; NON-PLATED HOLES START AT T1
; THROUGH (PLATED) HOLES START AT T100
M48
INCH
T1C0.125984
T100C0.027559
T101C0.038000
T102C0.015748
T103C0.031497
T104C0.040000
T105C0.042000
T106C0.031250
T107C0.035000
T108C0.037000
T109C0.039111
T110C0.035433
T111C0.100000
%
T1
X002444Y002035
X034944Y002035
X002444Y031535
X034944Y031535
T100
X006806Y016520
X006944Y010535
X006806Y017520
X005944Y010535
T101
X031310Y004551
X028318Y028921
X030310Y004551
X026318Y028921
X027318Y028921
X031318Y028921
X027310Y004551
X025310Y004551
X003814Y015850
X024318Y028921
X024310Y004551
X022310Y004551
X029310Y004551
X029318Y028921
X028310Y004551
X025318Y028921
X003814Y016850
X022318Y028921
X030318Y028921
X026310Y004551
X023318Y028921
X023310Y004551
T102
X015074Y015220
X027633Y023724
X020665Y023724
X031609Y023724
X022948Y013409
X020428Y008055
X032594Y023724
X017633Y023724
X011294Y010653
X030192Y007976
X031649Y007976
X011806Y005693
X023578Y023724
X018617Y023724
X028617Y011441
X024180Y013964
X028696Y023724
X030665Y023724
X019483Y013882
X030940Y007976
X028020Y014564
X022672Y007504
X014523Y011047
X026688Y011441
X014365Y010102
X012633Y020260
X027948Y007976
X020743Y010338
X029680Y023724
X022239Y013488
X020940Y007244
X020586Y014275
X028617Y007976
X014129Y016244
X031531Y013331
X029365Y007976
X014208Y023960
X026806Y007268
X018145Y013803
X023657Y011283
X015231Y010102
X016649Y020338
X025901Y011323
X013657Y010890
X027948Y011008
T103
X034444Y020051
X034444Y019067
X034444Y017067
X001928Y016035
X034444Y022035
X000944Y016035
X034444Y021051
X034444Y018051
T104
X013814Y026575
X007322Y002535
X002444Y010657
X010566Y002535
X013814Y030575
X002444Y012035
X011944Y002535
X013322Y002535
X005944Y002535
T105
X009464Y032035
X018944Y002535
X005444Y027535
X012444Y018015
X009798Y015075
X007924Y032035
X012444Y015035
X009798Y018055
X016944Y002535
X017944Y002535
X008424Y027535
X012444Y032035
X004944Y032035
T106
X017357Y029126
X017357Y027126
X017357Y028126
X017357Y025126
X017357Y026126
X017357Y030126
T107
X019491Y010315
X019491Y009315
X005310Y014551
X028066Y018764
X010822Y024323
X020113Y007189
X009944Y006535
X005944Y006535
X030664Y017346
X015944Y005035
X008310Y014551
X008310Y018551
X016491Y009315
X004444Y012035
X010822Y026323
X005310Y018551
X008444Y012035
X035861Y011992
X004444Y009035
X010444Y004035
X026664Y017346
X032239Y015772
X035861Y014551
X034090Y011992
X008444Y009035
X013444Y005035
X005444Y026035
X016113Y007189
X028239Y015772
X006444Y004035
X021940Y020260
X024066Y018764
X009444Y021035
X013444Y009035
X007444Y021035
X016491Y010315
X005444Y022035
X025940Y020260
X019944Y005035
X034090Y014551
T108
X007289Y029551
X008307Y029551
X010344Y029551
X009326Y029551
X011363Y029551
T109
X023424Y010035
X024428Y010028
X024420Y001518
X027439Y001520
X028445Y010035
X025432Y010028
X023416Y001518
X025432Y001518
X026436Y001518
X022412Y001518
X026444Y010035
X027441Y010035
T110
X020653Y012147
X029653Y012147
X028653Y012147
X028657Y022149
X019657Y022149
X016661Y022149
X018657Y022149
X014660Y012147
X026657Y022149
X014663Y022149
X032657Y022149
X030657Y022149
X015662Y022149
X023653Y012147
X015658Y012147
X022653Y012147
X017653Y012147
X019653Y012147
X025657Y022149
X024653Y012147
X025653Y012147
X029657Y022149
X026653Y012147
X023657Y022149
X024657Y022149
X020657Y022149
X022657Y022149
X021653Y012147
X021657Y022149
X030653Y012147
X027653Y012147
X016657Y012147
X032653Y012147
X031653Y012147
X027657Y022149
X018653Y012147
X017657Y022149
X031657Y022149
T111
X003444Y021535
X001044Y021535
X002244Y026635
X002244Y019635
X003444Y028535
X001044Y028535
T00
M30
