; NON-PLATED HOLES START AT T1
; THROUGH (PLATED) HOLES START AT T100
M48
INCH
T1C0.125984
T100C0.039111
T101C0.040000
T102C0.042000
T103C0.038000
T104C0.100000
T105C0.035433
T106C0.035000
T107C0.015748
T108C0.037000
T109C0.031497
T110C0.027559
T111C0.031250
%
T1
X002444Y002035
X034944Y031535
X002444Y031535
X034944Y002035
T100
X026436Y001518
X025432Y010028
X027441Y010035
X023424Y010035
X025432Y001518
X023416Y001518
X027439Y001520
X026444Y010035
X022412Y001518
X024428Y010028
X024420Y001518
X028445Y010035
T101
X005944Y002535
X010566Y002535
X011944Y002535
X007322Y002535
X013814Y026575
X013814Y030575
X013322Y002535
T102
X001767Y006126
X005444Y027535
X016515Y001874
X008972Y015193
X001767Y010283
X001767Y012283
X008424Y027535
X012444Y032035
X006294Y015036
X009464Y032035
X018515Y001874
X004944Y032035
X007924Y032035
X017515Y001874
X001767Y007126
X001767Y011283
X006294Y018016
X001767Y005126
X008972Y018173
T103
X003814Y016850
X023318Y028921
X022318Y028921
X029310Y004551
X028318Y028921
X023310Y004551
X027318Y028921
X025310Y004551
X024310Y004551
X029318Y028921
X028310Y004551
X026318Y028921
X030310Y004551
X027310Y004551
X025318Y028921
X026310Y004551
X022310Y004551
X031310Y004551
X030318Y028921
X003814Y015850
X024318Y028921
X031318Y028921
T104
X001044Y021535
X003444Y021535
X001044Y028535
X002244Y026635
X002244Y019635
X003444Y028535
T105
X026653Y012147
X019657Y022149
X017653Y012147
X031653Y012147
X030657Y022149
X029653Y012147
X027657Y022149
X015662Y022149
X025653Y012147
X014663Y022149
X021657Y022149
X027653Y012147
X032653Y012147
X022657Y022149
X024653Y012147
X029657Y022149
X021653Y012147
X018653Y012147
X024657Y022149
X018657Y022149
X028657Y022149
X019653Y012147
X025657Y022149
X023653Y012147
X016657Y012147
X016661Y022149
X031657Y022149
X032657Y022149
X014660Y012147
X026657Y022149
X028653Y012147
X030653Y012147
X023657Y022149
X017657Y022149
X015658Y012147
X020657Y022149
X022653Y012147
X020653Y012147
T106
X034090Y014551
X007118Y009929
X007118Y005535
X028318Y017346
X019491Y009315
X028239Y015772
X010389Y011976
X003618Y013488
X022239Y020102
X035861Y011992
X007118Y010929
X028475Y020260
X035861Y014551
X014562Y005323
X019944Y005035
X016113Y007189
X017594Y016104
X013420Y009323
X007118Y004535
X004118Y009929
X032318Y017346
X004118Y004535
X019601Y020104
X012279Y005323
X009129Y011976
X019601Y016104
X015944Y005035
X032239Y015772
X010389Y007976
X028397Y018764
X004118Y010929
X019491Y010315
X012279Y009323
X010822Y024323
X020113Y007189
X005444Y022035
X016491Y010315
X022239Y016102
X003618Y012307
X009129Y007976
X007618Y013488
X032475Y020260
X010822Y026323
X014562Y009323
X013420Y005323
X016491Y009315
X009444Y021035
X004118Y005535
X007444Y021035
X014759Y016104
X034090Y011992
X007618Y012307
X007618Y007898
X005444Y026035
X014759Y020104
X003618Y007898
X017594Y020104
X003618Y006716
X007618Y006716
X032397Y018764
T107
X028696Y023724
X017594Y021165
X023657Y011283
X012161Y014512
X024129Y013764
X020665Y023724
X031609Y023724
X028617Y011441
X010625Y016795
X019602Y013134
X029680Y023724
X014208Y023960
X023578Y023724
X016846Y014157
X029365Y007976
X010546Y017464
X030192Y007976
X031531Y013331
X031649Y007976
X028617Y007976
X012161Y015457
X018617Y023724
X026806Y007268
X011452Y006126
X027633Y023724
X020743Y010338
X017633Y023724
X030940Y007976
X012200Y012740
X024129Y015417
X024129Y014551
X030665Y023724
X032594Y023724
X013775Y004394
X022790Y008134
X016176Y011480
X026688Y011441
X014680Y011244
X011019Y016205
X028020Y014564
X009877Y014472
T108
X010344Y029551
X007289Y029551
X011363Y029551
X009326Y029551
X008307Y029551
T109
X034444Y019067
X000944Y016035
X034444Y018051
X034444Y021051
X001928Y016035
X034444Y022035
X034444Y020051
X034444Y017067
T110
X020979Y017622
X016216Y017622
X020979Y018622
X016216Y018622
T111
X017357Y029126
X017357Y030126
X017357Y028126
X017357Y025126
X017357Y027126
X017357Y026126
T00
M30
