; NON-PLATED HOLES START AT T1
; THROUGH (PLATED) HOLES START AT T100
M48
INCH
T1C0.125984
T100C0.035000
T101C0.038000
T102C0.027559
T103C0.039111
T104C0.040000
T105C0.037000
T106C0.042000
T107C0.035433
T108C0.015748
T109C0.031250
T110C0.100000
T111C0.031497
%
T1
X002444Y031535
X034944Y002035
X002444Y002035
X034944Y031535
T100
X019944Y005035
X016491Y010315
X021940Y020260
X030664Y017346
X019491Y010315
X024066Y018764
X010822Y026323
X025940Y020260
X004444Y012035
X020113Y007189
X005310Y018551
X005444Y026035
X007444Y021035
X013444Y005035
X008310Y014551
X028239Y015772
X016113Y007189
X035861Y011992
X008444Y012035
X034090Y011992
X028066Y018764
X008310Y018551
X004444Y009035
X026664Y017346
X005944Y006535
X034090Y014551
X016491Y009315
X032239Y015772
X005310Y014551
X009444Y021035
X005444Y022035
X009944Y006535
X010822Y024323
X013444Y009035
X019491Y009315
X006625Y004551
X035861Y014551
X015944Y005035
X010625Y004551
X008444Y009035
T101
X030318Y028921
X025318Y028921
X027310Y004551
X024310Y004551
X031310Y004551
X025310Y004551
X029318Y028921
X027318Y028921
X028318Y028921
X030310Y004551
X029310Y004551
X003814Y016850
X024318Y028921
X022310Y004551
X028310Y004551
X031318Y028921
X023310Y004551
X003814Y015850
X026310Y004551
X023318Y028921
X026318Y028921
X022318Y028921
T102
X006944Y010535
X006806Y017520
X005944Y010535
X006806Y016520
T103
X025432Y001518
X026444Y010035
X025432Y010028
X022412Y001518
X024420Y001518
X028445Y010035
X027441Y010035
X026436Y001518
X027439Y001520
X024428Y010028
X023424Y010035
X023416Y001518
T104
X011944Y002535
X007322Y002535
X013814Y026575
X013814Y030575
X013322Y002535
X005944Y002535
X002444Y012035
X002444Y010657
X010566Y002535
T105
X009326Y029551
X008307Y029551
X007289Y029551
X010344Y029551
X011363Y029551
T106
X009798Y018055
X018944Y002535
X008424Y027535
X012444Y018015
X012444Y015035
X005444Y027535
X007924Y032035
X017944Y002535
X016944Y002535
X009798Y015075
X009464Y032035
X012444Y032035
X004944Y032035
T107
X020657Y022149
X022657Y022149
X027653Y012147
X015658Y012147
X014660Y012147
X017653Y012147
X021653Y012147
X024657Y022149
X032657Y022149
X014663Y022149
X022653Y012147
X018653Y012147
X028653Y012147
X026657Y022149
X019653Y012147
X031657Y022149
X030653Y012147
X029653Y012147
X020653Y012147
X031653Y012147
X032653Y012147
X030657Y022149
X029657Y022149
X027657Y022149
X025657Y022149
X016661Y022149
X016657Y012147
X015662Y022149
X017657Y022149
X028657Y022149
X023657Y022149
X018657Y022149
X026653Y012147
X021657Y022149
X019657Y022149
X025653Y012147
X024653Y012147
X023653Y012147
T108
X022672Y007504
X018617Y023724
X023657Y011283
X025901Y011323
X015231Y010102
X031649Y007976
X030940Y007976
X011806Y005693
X026806Y007268
X022239Y013488
X023578Y023724
X014129Y016244
X026688Y011441
X024180Y013964
X029365Y007976
X019483Y013882
X028617Y011441
X032594Y023724
X020743Y010338
X020428Y008055
X017633Y023724
X027633Y023724
X013657Y010890
X014365Y010102
X031609Y023724
X030192Y007976
X015074Y015220
X012633Y020260
X031531Y013331
X014208Y023960
X028696Y023724
X029680Y023724
X027948Y011008
X027948Y007976
X011294Y010653
X028617Y007976
X020586Y014275
X020665Y023724
X016649Y020338
X022948Y013409
X028020Y014564
X018145Y013803
X030665Y023724
T109
X017357Y028126
X017357Y030126
X017357Y029126
X017357Y026126
X017357Y027126
X017357Y025126
T110
X001044Y028535
X003444Y021535
X001044Y021535
X002244Y026635
X002244Y019635
X003444Y028535
T111
X034444Y017067
X034444Y022035
X034444Y020051
X000944Y016035
X034444Y019067
X034444Y021051
X034444Y018051
X001928Y016035
T00
M30
