G04 MADE WITH FRITZING*
G04 WWW.FRITZING.ORG*
G04 DOUBLE SIDED*
G04 HOLES PLATED*
G04 CONTOUR ON CENTER OF CONTOUR VECTOR*
%ASAXBY*%
%FSLAX23Y23*%
%MOIN*%
%OFA0B0*%
%SFA1.0B1.0*%
%ADD10C,0.092000*%
%ADD11C,0.049370*%
%ADD12C,0.088000*%
%ADD13C,0.135984*%
%ADD14C,0.090000*%
%ADD15C,0.072000*%
%ADD16C,0.073111*%
%ADD17C,0.085000*%
%ADD18C,0.075000*%
%ADD19C,0.069000*%
%ADD20C,0.150000*%
%ADD21C,0.072992*%
%ADD22R,0.092000X0.092000*%
%ADD23R,0.085000X0.085000*%
%ADD24R,0.090000X0.090000*%
%ADD25R,0.069889X0.069000*%
%ADD26R,0.072992X0.072992*%
%ADD27R,0.001000X0.001000*%
%LNMASK1*%
G90*
G70*
G54D10*
X177Y1228D03*
X177Y1128D03*
X177Y1028D03*
X177Y713D03*
X177Y613D03*
X177Y513D03*
G54D11*
X1216Y1451D03*
X1145Y613D03*
X1055Y1746D03*
X1063Y1680D03*
X1759Y2117D03*
G54D12*
X381Y1685D03*
X381Y1585D03*
X381Y1685D03*
X381Y1585D03*
X3132Y2892D03*
X3032Y2892D03*
X2932Y2892D03*
X2832Y2892D03*
X2732Y2892D03*
X2632Y2892D03*
X2532Y2892D03*
X2432Y2892D03*
X2332Y2892D03*
X2232Y2892D03*
X3132Y2892D03*
X3032Y2892D03*
X2932Y2892D03*
X2832Y2892D03*
X2732Y2892D03*
X2632Y2892D03*
X2532Y2892D03*
X2432Y2892D03*
X2332Y2892D03*
X2232Y2892D03*
X3131Y455D03*
X3031Y455D03*
X2931Y455D03*
X2831Y455D03*
X2731Y455D03*
X2631Y455D03*
X2531Y455D03*
X2431Y455D03*
X2331Y455D03*
X2231Y455D03*
X3131Y455D03*
X3031Y455D03*
X2931Y455D03*
X2831Y455D03*
X2731Y455D03*
X2631Y455D03*
X2531Y455D03*
X2431Y455D03*
X2331Y455D03*
X2231Y455D03*
G54D11*
X1763Y2372D03*
X1862Y2372D03*
X2067Y2372D03*
X2358Y2372D03*
X2763Y2372D03*
X2870Y2372D03*
X2968Y2372D03*
X3067Y2372D03*
X3161Y2372D03*
X3259Y2372D03*
X2669Y1144D03*
X2862Y1144D03*
X2862Y798D03*
X2937Y798D03*
X3019Y798D03*
X3094Y798D03*
X3165Y798D03*
X2413Y1542D03*
X2413Y1376D03*
X2413Y1455D03*
X988Y1447D03*
X2366Y1128D03*
X3153Y1333D03*
X1102Y1621D03*
X1685Y1416D03*
X2681Y727D03*
X1216Y1546D03*
X1618Y1148D03*
X1960Y1313D03*
X1220Y1274D03*
X1468Y1124D03*
X2802Y1456D03*
X2074Y1034D03*
X2279Y813D03*
X1378Y439D03*
X1421Y2396D03*
G54D13*
X3494Y3154D03*
X244Y3154D03*
X3494Y204D03*
X244Y204D03*
G54D14*
X1381Y3058D03*
X1381Y2658D03*
G54D15*
X1766Y2215D03*
X1866Y2215D03*
X1966Y2215D03*
X2066Y2215D03*
X2166Y2215D03*
X2266Y2215D03*
X2366Y2215D03*
X2466Y2215D03*
X2566Y2215D03*
X2666Y2215D03*
X2766Y2215D03*
X2866Y2215D03*
X2966Y2215D03*
X3066Y2215D03*
X3166Y2215D03*
X3266Y2215D03*
X1466Y2215D03*
X1566Y2215D03*
X1666Y2215D03*
X1765Y1215D03*
X1865Y1215D03*
X1965Y1215D03*
X2065Y1215D03*
X2165Y1215D03*
X2265Y1215D03*
X2365Y1215D03*
X2465Y1215D03*
X2565Y1215D03*
X2665Y1215D03*
X2765Y1215D03*
X2865Y1215D03*
X2965Y1215D03*
X3065Y1215D03*
X3165Y1215D03*
X3265Y1215D03*
X1466Y1215D03*
X1566Y1215D03*
X1666Y1215D03*
G54D16*
X2744Y152D03*
X2644Y152D03*
X2543Y152D03*
X2442Y152D03*
X2342Y152D03*
X2241Y152D03*
X2845Y1004D03*
X2744Y1004D03*
X2644Y1004D03*
X2543Y1003D03*
X2443Y1003D03*
X2342Y1004D03*
G54D10*
X1652Y187D03*
X1752Y187D03*
X1852Y187D03*
G54D17*
X712Y993D03*
X412Y993D03*
X712Y1093D03*
X412Y1093D03*
X712Y454D03*
X412Y454D03*
X712Y554D03*
X412Y554D03*
X1949Y932D03*
X1649Y932D03*
X1949Y1032D03*
X1649Y1032D03*
X3409Y1199D03*
X3409Y1455D03*
X3586Y1199D03*
X3586Y1455D03*
G54D14*
X1332Y254D03*
X1194Y254D03*
X1057Y254D03*
X732Y254D03*
X594Y254D03*
G54D18*
X1622Y1862D03*
X1622Y1762D03*
X1622Y1862D03*
X1622Y1762D03*
X2098Y1862D03*
X2098Y1762D03*
X2098Y1862D03*
X2098Y1762D03*
G54D17*
X744Y2104D03*
X944Y2104D03*
X1082Y2432D03*
X1082Y2632D03*
G54D19*
X729Y2955D03*
X831Y2955D03*
X933Y2955D03*
X1034Y2955D03*
X1136Y2955D03*
G54D20*
X344Y2154D03*
X104Y2154D03*
X224Y1964D03*
X344Y2854D03*
X104Y2854D03*
X224Y2664D03*
G54D10*
X946Y3204D03*
X1244Y3204D03*
X842Y2754D03*
X544Y2754D03*
X897Y1519D03*
X897Y1817D03*
X629Y1504D03*
X629Y1802D03*
X792Y3204D03*
X494Y3204D03*
G54D17*
X1342Y532D03*
X1342Y932D03*
X1476Y2010D03*
X1476Y1610D03*
X1759Y1610D03*
X1759Y2010D03*
X2224Y1610D03*
X2224Y2010D03*
X1960Y2010D03*
X1960Y1610D03*
X1228Y532D03*
X1228Y932D03*
X2824Y1577D03*
X3224Y1577D03*
X2848Y2026D03*
X3248Y2026D03*
X2840Y1876D03*
X3240Y1876D03*
X2832Y1735D03*
X3232Y1735D03*
X362Y1231D03*
X762Y1231D03*
X362Y672D03*
X762Y672D03*
X1611Y719D03*
X2011Y719D03*
X362Y1349D03*
X762Y1349D03*
X362Y790D03*
X762Y790D03*
X1594Y504D03*
X1994Y504D03*
X913Y1198D03*
X913Y798D03*
X1039Y1198D03*
X1039Y798D03*
X1456Y932D03*
X1456Y532D03*
X544Y2604D03*
X544Y2204D03*
G54D21*
X3444Y2105D03*
X3444Y2204D03*
X3444Y1907D03*
X3444Y2005D03*
X3444Y1707D03*
X3444Y1805D03*
X193Y1604D03*
X94Y1604D03*
G54D22*
X177Y1228D03*
X177Y713D03*
X1652Y187D03*
G54D23*
X712Y993D03*
X712Y454D03*
X1949Y932D03*
G54D24*
X1332Y254D03*
X732Y254D03*
G54D23*
X744Y2104D03*
X1082Y2432D03*
G54D25*
X933Y2955D03*
G54D22*
X945Y3204D03*
X843Y2754D03*
X897Y1518D03*
X629Y1503D03*
X793Y3204D03*
G54D26*
X3444Y2105D03*
X3444Y1907D03*
X3444Y1707D03*
X193Y1604D03*
G54D27*
X1729Y3050D02*
X1742Y3050D01*
X1725Y3049D02*
X1746Y3049D01*
X1722Y3048D02*
X1749Y3048D01*
X1719Y3047D02*
X1751Y3047D01*
X1717Y3046D02*
X1753Y3046D01*
X1716Y3045D02*
X1755Y3045D01*
X1714Y3044D02*
X1756Y3044D01*
X1713Y3043D02*
X1757Y3043D01*
X1712Y3042D02*
X1759Y3042D01*
X1710Y3041D02*
X1760Y3041D01*
X1709Y3040D02*
X1761Y3040D01*
X1708Y3039D02*
X1762Y3039D01*
X1707Y3038D02*
X1763Y3038D01*
X1707Y3037D02*
X1764Y3037D01*
X1706Y3036D02*
X1765Y3036D01*
X1705Y3035D02*
X1765Y3035D01*
X1704Y3034D02*
X1766Y3034D01*
X1704Y3033D02*
X1767Y3033D01*
X1703Y3032D02*
X1767Y3032D01*
X1702Y3031D02*
X1768Y3031D01*
X1702Y3030D02*
X1768Y3030D01*
X1701Y3029D02*
X1769Y3029D01*
X1701Y3028D02*
X1769Y3028D01*
X1701Y3027D02*
X1770Y3027D01*
X1700Y3026D02*
X1770Y3026D01*
X1700Y3025D02*
X1771Y3025D01*
X1699Y3024D02*
X1771Y3024D01*
X1699Y3023D02*
X1771Y3023D01*
X1699Y3022D02*
X1771Y3022D01*
X1699Y3021D02*
X1772Y3021D01*
X1698Y3020D02*
X1772Y3020D01*
X1698Y3019D02*
X1772Y3019D01*
X1698Y3018D02*
X1772Y3018D01*
X1698Y3017D02*
X1772Y3017D01*
X1698Y3016D02*
X1772Y3016D01*
X1698Y3015D02*
X1773Y3015D01*
X1698Y3014D02*
X1773Y3014D01*
X1698Y3013D02*
X1773Y3013D01*
X1698Y3012D02*
X1773Y3012D01*
X1698Y3011D02*
X1773Y3011D01*
X1698Y3010D02*
X1773Y3010D01*
X1698Y3009D02*
X1772Y3009D01*
X1698Y3008D02*
X1772Y3008D01*
X1698Y3007D02*
X1772Y3007D01*
X1698Y3006D02*
X1772Y3006D01*
X1699Y3005D02*
X1772Y3005D01*
X1699Y3004D02*
X1772Y3004D01*
X1699Y3003D02*
X1771Y3003D01*
X1699Y3002D02*
X1771Y3002D01*
X1700Y3001D02*
X1771Y3001D01*
X1700Y3000D02*
X1770Y3000D01*
X1700Y2999D02*
X1770Y2999D01*
X1701Y2998D02*
X1770Y2998D01*
X1701Y2997D02*
X1769Y2997D01*
X1702Y2996D02*
X1769Y2996D01*
X1702Y2995D02*
X1768Y2995D01*
X1703Y2994D02*
X1768Y2994D01*
X1703Y2993D02*
X1767Y2993D01*
X1704Y2992D02*
X1766Y2992D01*
X1705Y2991D02*
X1766Y2991D01*
X1705Y2990D02*
X1765Y2990D01*
X1706Y2989D02*
X1764Y2989D01*
X1707Y2988D02*
X1763Y2988D01*
X1708Y2987D02*
X1763Y2987D01*
X1709Y2986D02*
X1762Y2986D01*
X1710Y2985D02*
X1761Y2985D01*
X1711Y2984D02*
X1759Y2984D01*
X1712Y2983D02*
X1758Y2983D01*
X1714Y2982D02*
X1757Y2982D01*
X1715Y2981D02*
X1755Y2981D01*
X1717Y2980D02*
X1754Y2980D01*
X1718Y2979D02*
X1752Y2979D01*
X1720Y2978D02*
X1750Y2978D01*
X1723Y2977D02*
X1747Y2977D01*
X1726Y2976D02*
X1744Y2976D01*
X1732Y2975D02*
X1739Y2975D01*
X1729Y2950D02*
X1742Y2950D01*
X1725Y2949D02*
X1746Y2949D01*
X1722Y2948D02*
X1749Y2948D01*
X1719Y2947D02*
X1751Y2947D01*
X1717Y2946D02*
X1753Y2946D01*
X1716Y2945D02*
X1755Y2945D01*
X1714Y2944D02*
X1756Y2944D01*
X1713Y2943D02*
X1758Y2943D01*
X1712Y2942D02*
X1759Y2942D01*
X1710Y2941D02*
X1760Y2941D01*
X1709Y2940D02*
X1761Y2940D01*
X1708Y2939D02*
X1762Y2939D01*
X1707Y2938D02*
X1763Y2938D01*
X1707Y2937D02*
X1764Y2937D01*
X1706Y2936D02*
X1765Y2936D01*
X1705Y2935D02*
X1765Y2935D01*
X1704Y2934D02*
X1766Y2934D01*
X1704Y2933D02*
X1767Y2933D01*
X1703Y2932D02*
X1767Y2932D01*
X1702Y2931D02*
X1768Y2931D01*
X1702Y2930D02*
X1768Y2930D01*
X1701Y2929D02*
X1769Y2929D01*
X1701Y2928D02*
X1769Y2928D01*
X1701Y2927D02*
X1770Y2927D01*
X1700Y2926D02*
X1770Y2926D01*
X1700Y2925D02*
X1771Y2925D01*
X1699Y2924D02*
X1771Y2924D01*
X1699Y2923D02*
X1771Y2923D01*
X1699Y2922D02*
X1771Y2922D01*
X1699Y2921D02*
X1772Y2921D01*
X1698Y2920D02*
X1772Y2920D01*
X1698Y2919D02*
X1772Y2919D01*
X1698Y2918D02*
X1772Y2918D01*
X1698Y2917D02*
X1772Y2917D01*
X1698Y2916D02*
X1772Y2916D01*
X1698Y2915D02*
X1773Y2915D01*
X1698Y2914D02*
X1773Y2914D01*
X1698Y2913D02*
X1773Y2913D01*
X1698Y2912D02*
X1773Y2912D01*
X1698Y2911D02*
X1773Y2911D01*
X1698Y2910D02*
X1773Y2910D01*
X1698Y2909D02*
X1772Y2909D01*
X1698Y2908D02*
X1772Y2908D01*
X1698Y2907D02*
X1772Y2907D01*
X1698Y2906D02*
X1772Y2906D01*
X1699Y2905D02*
X1772Y2905D01*
X1699Y2904D02*
X1772Y2904D01*
X1699Y2903D02*
X1771Y2903D01*
X1699Y2902D02*
X1771Y2902D01*
X1700Y2901D02*
X1771Y2901D01*
X1700Y2900D02*
X1770Y2900D01*
X1700Y2899D02*
X1770Y2899D01*
X1701Y2898D02*
X1770Y2898D01*
X1701Y2897D02*
X1769Y2897D01*
X1702Y2896D02*
X1769Y2896D01*
X1702Y2895D02*
X1768Y2895D01*
X1703Y2894D02*
X1768Y2894D01*
X1703Y2893D02*
X1767Y2893D01*
X1704Y2892D02*
X1766Y2892D01*
X1705Y2891D02*
X1766Y2891D01*
X1705Y2890D02*
X1765Y2890D01*
X1706Y2889D02*
X1764Y2889D01*
X1707Y2888D02*
X1763Y2888D01*
X1708Y2887D02*
X1763Y2887D01*
X1709Y2886D02*
X1762Y2886D01*
X1710Y2885D02*
X1761Y2885D01*
X1711Y2884D02*
X1759Y2884D01*
X1712Y2883D02*
X1758Y2883D01*
X1714Y2882D02*
X1757Y2882D01*
X1715Y2881D02*
X1755Y2881D01*
X1717Y2880D02*
X1754Y2880D01*
X1718Y2879D02*
X1752Y2879D01*
X1720Y2878D02*
X1750Y2878D01*
X1723Y2877D02*
X1747Y2877D01*
X1726Y2876D02*
X1744Y2876D01*
X1732Y2875D02*
X1739Y2875D01*
X1729Y2850D02*
X1742Y2850D01*
X1724Y2849D02*
X1746Y2849D01*
X1722Y2848D02*
X1749Y2848D01*
X1719Y2847D02*
X1751Y2847D01*
X1717Y2846D02*
X1753Y2846D01*
X1716Y2845D02*
X1755Y2845D01*
X1714Y2844D02*
X1756Y2844D01*
X1713Y2843D02*
X1758Y2843D01*
X1712Y2842D02*
X1759Y2842D01*
X1710Y2841D02*
X1760Y2841D01*
X1709Y2840D02*
X1761Y2840D01*
X1708Y2839D02*
X1762Y2839D01*
X1707Y2838D02*
X1763Y2838D01*
X1707Y2837D02*
X1764Y2837D01*
X1706Y2836D02*
X1765Y2836D01*
X1705Y2835D02*
X1765Y2835D01*
X1704Y2834D02*
X1766Y2834D01*
X1704Y2833D02*
X1767Y2833D01*
X1703Y2832D02*
X1767Y2832D01*
X1702Y2831D02*
X1768Y2831D01*
X1702Y2830D02*
X1769Y2830D01*
X1701Y2829D02*
X1769Y2829D01*
X1701Y2828D02*
X1769Y2828D01*
X1701Y2827D02*
X1770Y2827D01*
X1700Y2826D02*
X1770Y2826D01*
X1700Y2825D02*
X1771Y2825D01*
X1699Y2824D02*
X1771Y2824D01*
X1699Y2823D02*
X1771Y2823D01*
X1699Y2822D02*
X1771Y2822D01*
X1699Y2821D02*
X1772Y2821D01*
X1698Y2820D02*
X1772Y2820D01*
X1698Y2819D02*
X1772Y2819D01*
X1698Y2818D02*
X1772Y2818D01*
X1698Y2817D02*
X1772Y2817D01*
X1698Y2816D02*
X1773Y2816D01*
X1698Y2815D02*
X1773Y2815D01*
X1698Y2814D02*
X1773Y2814D01*
X1698Y2813D02*
X1773Y2813D01*
X1698Y2812D02*
X1773Y2812D01*
X1698Y2811D02*
X1773Y2811D01*
X1698Y2810D02*
X1773Y2810D01*
X1698Y2809D02*
X1772Y2809D01*
X1698Y2808D02*
X1772Y2808D01*
X1698Y2807D02*
X1772Y2807D01*
X1698Y2806D02*
X1772Y2806D01*
X1699Y2805D02*
X1772Y2805D01*
X1699Y2804D02*
X1772Y2804D01*
X1699Y2803D02*
X1771Y2803D01*
X1699Y2802D02*
X1771Y2802D01*
X1700Y2801D02*
X1771Y2801D01*
X1700Y2800D02*
X1770Y2800D01*
X1700Y2799D02*
X1770Y2799D01*
X1701Y2798D02*
X1770Y2798D01*
X1701Y2797D02*
X1769Y2797D01*
X1702Y2796D02*
X1769Y2796D01*
X1702Y2795D02*
X1768Y2795D01*
X1703Y2794D02*
X1768Y2794D01*
X1703Y2793D02*
X1767Y2793D01*
X1704Y2792D02*
X1766Y2792D01*
X1705Y2791D02*
X1766Y2791D01*
X1705Y2790D02*
X1765Y2790D01*
X1706Y2789D02*
X1764Y2789D01*
X1707Y2788D02*
X1763Y2788D01*
X1708Y2787D02*
X1763Y2787D01*
X1709Y2786D02*
X1762Y2786D01*
X1710Y2785D02*
X1761Y2785D01*
X1711Y2784D02*
X1759Y2784D01*
X1712Y2783D02*
X1758Y2783D01*
X1714Y2782D02*
X1757Y2782D01*
X1715Y2781D02*
X1755Y2781D01*
X1717Y2780D02*
X1754Y2780D01*
X1718Y2779D02*
X1752Y2779D01*
X1720Y2778D02*
X1750Y2778D01*
X1723Y2777D02*
X1747Y2777D01*
X1727Y2776D02*
X1744Y2776D01*
X1732Y2775D02*
X1738Y2775D01*
X1729Y2750D02*
X1742Y2750D01*
X1724Y2749D02*
X1746Y2749D01*
X1722Y2748D02*
X1749Y2748D01*
X1719Y2747D02*
X1751Y2747D01*
X1717Y2746D02*
X1753Y2746D01*
X1716Y2745D02*
X1755Y2745D01*
X1714Y2744D02*
X1756Y2744D01*
X1713Y2743D02*
X1758Y2743D01*
X1712Y2742D02*
X1759Y2742D01*
X1710Y2741D02*
X1760Y2741D01*
X1709Y2740D02*
X1761Y2740D01*
X1708Y2739D02*
X1762Y2739D01*
X1707Y2738D02*
X1763Y2738D01*
X1707Y2737D02*
X1764Y2737D01*
X1706Y2736D02*
X1765Y2736D01*
X1705Y2735D02*
X1765Y2735D01*
X1704Y2734D02*
X1766Y2734D01*
X1704Y2733D02*
X1767Y2733D01*
X1703Y2732D02*
X1767Y2732D01*
X1702Y2731D02*
X1768Y2731D01*
X1702Y2730D02*
X1768Y2730D01*
X1701Y2729D02*
X1769Y2729D01*
X1701Y2728D02*
X1769Y2728D01*
X1701Y2727D02*
X1770Y2727D01*
X1700Y2726D02*
X1770Y2726D01*
X1700Y2725D02*
X1771Y2725D01*
X1699Y2724D02*
X1771Y2724D01*
X1699Y2723D02*
X1771Y2723D01*
X1699Y2722D02*
X1771Y2722D01*
X1699Y2721D02*
X1772Y2721D01*
X1698Y2720D02*
X1772Y2720D01*
X1698Y2719D02*
X1772Y2719D01*
X1698Y2718D02*
X1772Y2718D01*
X1698Y2717D02*
X1772Y2717D01*
X1698Y2716D02*
X1773Y2716D01*
X1698Y2715D02*
X1773Y2715D01*
X1698Y2714D02*
X1773Y2714D01*
X1698Y2713D02*
X1773Y2713D01*
X1698Y2712D02*
X1773Y2712D01*
X1698Y2711D02*
X1773Y2711D01*
X1698Y2710D02*
X1773Y2710D01*
X1698Y2709D02*
X1772Y2709D01*
X1698Y2708D02*
X1772Y2708D01*
X1698Y2707D02*
X1772Y2707D01*
X1698Y2706D02*
X1772Y2706D01*
X1699Y2705D02*
X1772Y2705D01*
X1699Y2704D02*
X1772Y2704D01*
X1699Y2703D02*
X1771Y2703D01*
X1699Y2702D02*
X1771Y2702D01*
X1700Y2701D02*
X1771Y2701D01*
X1700Y2700D02*
X1770Y2700D01*
X1700Y2699D02*
X1770Y2699D01*
X1701Y2698D02*
X1770Y2698D01*
X1701Y2697D02*
X1769Y2697D01*
X1702Y2696D02*
X1769Y2696D01*
X1702Y2695D02*
X1768Y2695D01*
X1703Y2694D02*
X1768Y2694D01*
X1703Y2693D02*
X1767Y2693D01*
X1704Y2692D02*
X1766Y2692D01*
X1705Y2691D02*
X1766Y2691D01*
X1705Y2690D02*
X1765Y2690D01*
X1706Y2689D02*
X1764Y2689D01*
X1707Y2688D02*
X1763Y2688D01*
X1708Y2687D02*
X1763Y2687D01*
X1709Y2686D02*
X1762Y2686D01*
X1710Y2685D02*
X1761Y2685D01*
X1711Y2684D02*
X1759Y2684D01*
X1712Y2683D02*
X1758Y2683D01*
X1714Y2682D02*
X1757Y2682D01*
X1715Y2681D02*
X1755Y2681D01*
X1717Y2680D02*
X1754Y2680D01*
X1718Y2679D02*
X1752Y2679D01*
X1720Y2678D02*
X1750Y2678D01*
X1723Y2677D02*
X1747Y2677D01*
X1727Y2676D02*
X1744Y2676D01*
X1732Y2675D02*
X1738Y2675D01*
X1729Y2650D02*
X1742Y2650D01*
X1724Y2649D02*
X1746Y2649D01*
X1722Y2648D02*
X1749Y2648D01*
X1719Y2647D02*
X1751Y2647D01*
X1717Y2646D02*
X1753Y2646D01*
X1716Y2645D02*
X1755Y2645D01*
X1714Y2644D02*
X1756Y2644D01*
X1713Y2643D02*
X1758Y2643D01*
X1712Y2642D02*
X1759Y2642D01*
X1710Y2641D02*
X1760Y2641D01*
X1709Y2640D02*
X1761Y2640D01*
X1708Y2639D02*
X1762Y2639D01*
X1707Y2638D02*
X1763Y2638D01*
X1707Y2637D02*
X1764Y2637D01*
X1706Y2636D02*
X1765Y2636D01*
X1705Y2635D02*
X1765Y2635D01*
X1704Y2634D02*
X1766Y2634D01*
X1704Y2633D02*
X1767Y2633D01*
X1703Y2632D02*
X1767Y2632D01*
X1702Y2631D02*
X1768Y2631D01*
X1702Y2630D02*
X1769Y2630D01*
X1701Y2629D02*
X1769Y2629D01*
X1701Y2628D02*
X1769Y2628D01*
X1701Y2627D02*
X1770Y2627D01*
X1700Y2626D02*
X1770Y2626D01*
X1700Y2625D02*
X1771Y2625D01*
X1699Y2624D02*
X1771Y2624D01*
X1699Y2623D02*
X1771Y2623D01*
X1699Y2622D02*
X1771Y2622D01*
X1699Y2621D02*
X1772Y2621D01*
X1698Y2620D02*
X1772Y2620D01*
X1698Y2619D02*
X1772Y2619D01*
X1698Y2618D02*
X1772Y2618D01*
X1698Y2617D02*
X1772Y2617D01*
X1698Y2616D02*
X1773Y2616D01*
X1698Y2615D02*
X1773Y2615D01*
X1698Y2614D02*
X1773Y2614D01*
X1698Y2613D02*
X1773Y2613D01*
X1698Y2612D02*
X1773Y2612D01*
X1698Y2611D02*
X1773Y2611D01*
X1698Y2610D02*
X1773Y2610D01*
X1698Y2609D02*
X1772Y2609D01*
X1698Y2608D02*
X1772Y2608D01*
X1698Y2607D02*
X1772Y2607D01*
X1698Y2606D02*
X1772Y2606D01*
X1699Y2605D02*
X1772Y2605D01*
X1699Y2604D02*
X1772Y2604D01*
X1699Y2603D02*
X1771Y2603D01*
X1699Y2602D02*
X1771Y2602D01*
X1700Y2601D02*
X1771Y2601D01*
X1700Y2600D02*
X1770Y2600D01*
X1700Y2599D02*
X1770Y2599D01*
X1701Y2598D02*
X1770Y2598D01*
X1701Y2597D02*
X1769Y2597D01*
X1702Y2596D02*
X1769Y2596D01*
X1702Y2595D02*
X1768Y2595D01*
X1703Y2594D02*
X1768Y2594D01*
X1703Y2593D02*
X1767Y2593D01*
X1704Y2592D02*
X1766Y2592D01*
X1705Y2591D02*
X1766Y2591D01*
X1705Y2590D02*
X1765Y2590D01*
X1706Y2589D02*
X1764Y2589D01*
X1707Y2588D02*
X1763Y2588D01*
X1708Y2587D02*
X1763Y2587D01*
X1709Y2586D02*
X1762Y2586D01*
X1710Y2585D02*
X1761Y2585D01*
X1711Y2584D02*
X1759Y2584D01*
X1712Y2583D02*
X1758Y2583D01*
X1714Y2582D02*
X1757Y2582D01*
X1715Y2581D02*
X1755Y2581D01*
X1717Y2580D02*
X1754Y2580D01*
X1718Y2579D02*
X1752Y2579D01*
X1720Y2578D02*
X1750Y2578D01*
X1723Y2577D02*
X1747Y2577D01*
X1727Y2576D02*
X1744Y2576D01*
X1732Y2575D02*
X1738Y2575D01*
X1728Y2550D02*
X1742Y2550D01*
X1724Y2549D02*
X1746Y2549D01*
X1722Y2548D02*
X1749Y2548D01*
X1719Y2547D02*
X1751Y2547D01*
X1717Y2546D02*
X1753Y2546D01*
X1716Y2545D02*
X1755Y2545D01*
X1714Y2544D02*
X1756Y2544D01*
X1713Y2543D02*
X1758Y2543D01*
X1712Y2542D02*
X1759Y2542D01*
X1710Y2541D02*
X1760Y2541D01*
X1709Y2540D02*
X1761Y2540D01*
X1708Y2539D02*
X1762Y2539D01*
X1707Y2538D02*
X1763Y2538D01*
X1706Y2537D02*
X1764Y2537D01*
X1706Y2536D02*
X1765Y2536D01*
X1705Y2535D02*
X1765Y2535D01*
X1704Y2534D02*
X1766Y2534D01*
X1704Y2533D02*
X1767Y2533D01*
X1703Y2532D02*
X1767Y2532D01*
X1702Y2531D02*
X1768Y2531D01*
X1702Y2530D02*
X1769Y2530D01*
X1701Y2529D02*
X1769Y2529D01*
X1701Y2528D02*
X1769Y2528D01*
X1701Y2527D02*
X1770Y2527D01*
X1700Y2526D02*
X1770Y2526D01*
X1700Y2525D02*
X1771Y2525D01*
X1699Y2524D02*
X1771Y2524D01*
X1699Y2523D02*
X1771Y2523D01*
X1699Y2522D02*
X1771Y2522D01*
X1699Y2521D02*
X1772Y2521D01*
X1698Y2520D02*
X1772Y2520D01*
X1698Y2519D02*
X1772Y2519D01*
X1698Y2518D02*
X1772Y2518D01*
X1698Y2517D02*
X1772Y2517D01*
X1698Y2516D02*
X1773Y2516D01*
X1698Y2515D02*
X1773Y2515D01*
X1698Y2514D02*
X1773Y2514D01*
X1698Y2513D02*
X1773Y2513D01*
X1698Y2512D02*
X1773Y2512D01*
X1698Y2511D02*
X1773Y2511D01*
X1698Y2510D02*
X1773Y2510D01*
X1698Y2509D02*
X1772Y2509D01*
X1698Y2508D02*
X1772Y2508D01*
X1698Y2507D02*
X1772Y2507D01*
X1698Y2506D02*
X1772Y2506D01*
X1699Y2505D02*
X1772Y2505D01*
X1699Y2504D02*
X1772Y2504D01*
X1699Y2503D02*
X1771Y2503D01*
X1699Y2502D02*
X1771Y2502D01*
X1700Y2501D02*
X1771Y2501D01*
X1700Y2500D02*
X1770Y2500D01*
X1700Y2499D02*
X1770Y2499D01*
X1701Y2498D02*
X1770Y2498D01*
X1701Y2497D02*
X1769Y2497D01*
X1702Y2496D02*
X1769Y2496D01*
X1702Y2495D02*
X1768Y2495D01*
X1703Y2494D02*
X1768Y2494D01*
X1703Y2493D02*
X1767Y2493D01*
X1704Y2492D02*
X1766Y2492D01*
X1705Y2491D02*
X1766Y2491D01*
X1705Y2490D02*
X1765Y2490D01*
X1706Y2489D02*
X1764Y2489D01*
X1707Y2488D02*
X1763Y2488D01*
X1708Y2487D02*
X1763Y2487D01*
X1709Y2486D02*
X1762Y2486D01*
X1710Y2485D02*
X1761Y2485D01*
X1711Y2484D02*
X1759Y2484D01*
X1712Y2483D02*
X1758Y2483D01*
X1714Y2482D02*
X1757Y2482D01*
X1715Y2481D02*
X1755Y2481D01*
X1717Y2480D02*
X1754Y2480D01*
X1719Y2479D02*
X1752Y2479D01*
X1721Y2478D02*
X1750Y2478D01*
X1723Y2477D02*
X1747Y2477D01*
X1727Y2476D02*
X1744Y2476D01*
X1733Y2475D02*
X1738Y2475D01*
D02*
G04 End of Mask1*
M02*