solid CATIA STL
  facet normal -1.000000e+000  0.000000e+000  -0.000000e+000
    outer loop
      vertex -2.360000e+002  1.773278e+002  3.138791e+001
      vertex -2.360000e+002  1.795457e+002  3.340804e+001
      vertex -2.360000e+002  1.874285e+002  2.029842e+001
    endloop
  endfacet
  facet normal -1.000000e+000  0.000000e+000  0.000000e+000
    outer loop
      vertex -2.360000e+002  1.874285e+002  2.029842e+001
      vertex -2.360000e+002  1.795457e+002  3.340804e+001
      vertex -2.360000e+002  1.916665e+002  2.010065e+001
    endloop
  endfacet
  facet normal -1.000000e+000  -0.000000e+000  0.000000e+000
    outer loop
      vertex -2.360000e+002  1.874285e+002  2.029842e+001
      vertex -2.360000e+002  1.916665e+002  2.010065e+001
      vertex -2.360000e+002  1.785569e+002  1.221790e+001
    endloop
  endfacet
  facet normal -1.000000e+000  0.000000e+000  0.000000e+000
    outer loop
      vertex -2.360000e+002  1.785569e+002  1.221790e+001
      vertex -2.360000e+002  1.916665e+002  2.010065e+001
      vertex -2.360000e+002  1.805770e+002  1.000000e+001
    endloop
  endfacet
  facet normal  0.000000e+000 -6.733747e-001  7.393014e-001
    outer loop
      vertex -2.360000e+002  1.795457e+002  3.340804e+001
      vertex -2.360000e+002  1.773278e+002  3.138791e+001
      vertex -1.800000e+001  1.795457e+002  3.340804e+001
    endloop
  endfacet
  facet normal  0.000000e+000 -6.733747e-001  7.393014e-001
    outer loop
      vertex -1.800000e+001  1.795457e+002  3.340804e+001
      vertex -2.360000e+002  1.773278e+002  3.138791e+001
      vertex -1.800000e+001  1.773278e+002  3.138791e+001
    endloop
  endfacet
  facet normal -1.000000e+000  0.000000e+000  0.000000e+000
    outer loop
      vertex -1.800000e+001  3.072950e+001  1.967933e+002
      vertex -1.800000e+001  1.795457e+002  3.340804e+001
      vertex -1.800000e+001  2.851160e+001  1.947731e+002
    endloop
  endfacet
  facet normal -9.999999e-001  0.000000e+000  0.000000e+000
    outer loop
      vertex -1.800000e+001  2.851160e+001  1.947731e+002
      vertex -1.800000e+001  1.795457e+002  3.340804e+001
      vertex -1.800000e+001  1.773278e+002  3.138791e+001
    endloop
  endfacet
  facet normal  0.000000e+000  6.733786e-001 -7.392977e-001
    outer loop
      vertex -1.800000e+001  3.072950e+001  1.967933e+002
      vertex -1.800000e+001  2.851160e+001  1.947731e+002
      vertex -2.360000e+002  3.072950e+001  1.967933e+002
    endloop
  endfacet
  facet normal  0.000000e+000  6.733786e-001 -7.392977e-001
    outer loop
      vertex -2.360000e+002  3.072950e+001  1.967933e+002
      vertex -1.800000e+001  2.851160e+001  1.947731e+002
      vertex -2.360000e+002  2.851160e+001  1.947731e+002
    endloop
  endfacet
  facet normal -1.000000e+000  0.000000e+000  0.000000e+000
    outer loop
      vertex -2.360000e+002  3.072950e+001  1.967933e+002
      vertex -2.360000e+002  2.851160e+001  1.947731e+002
      vertex -2.360000e+002  1.860872e+001  2.101007e+002
    endloop
  endfacet
  facet normal -9.999999e-001  0.000000e+000  -0.000000e+000
    outer loop
      vertex -2.360000e+002  1.860872e+001  2.101007e+002
      vertex -2.360000e+002  2.851160e+001  1.947731e+002
      vertex -2.360000e+002  1.841095e+001  2.058626e+002
    endloop
  endfacet
  facet normal -9.999999e-001  -0.000000e+000  0.000000e+000
    outer loop
      vertex -2.360000e+002  1.860872e+001  2.101007e+002
      vertex -2.360000e+002  1.841095e+001  2.058626e+002
      vertex -2.360000e+002  7.519222e+000  2.000000e+002
    endloop
  endfacet
  facet normal -1.000000e+000  0.000000e+000  0.000000e+000
    outer loop
      vertex -2.360000e+002  7.519222e+000  2.000000e+002
      vertex -2.360000e+002  1.841095e+001  2.058626e+002
      vertex -2.360000e+002  9.539352e+000  1.977821e+002
    endloop
  endfacet
  facet normal  0.000000e+000 -7.393001e-001 -6.733761e-001
    outer loop
      vertex  1.101057e-014  1.805770e+002  1.000000e+001
      vertex -2.360000e+002  1.785569e+002  1.221790e+001
      vertex -2.360000e+002  1.805770e+002  1.000000e+001
    endloop
  endfacet
  facet normal  0.000000e+000 -7.393001e-001 -6.733760e-001
    outer loop
      vertex -2.360000e+002  1.785569e+002  1.221790e+001
      vertex  1.101057e-014  1.805770e+002  1.000000e+001
      vertex -3.000000e+000  1.785569e+002  1.221790e+001
    endloop
  endfacet
  facet normal -7.520544e-007 -7.392996e-001 -6.733766e-001
    outer loop
      vertex -3.000000e+000  1.785569e+002  1.221790e+001
      vertex  1.101057e-014  1.805770e+002  1.000000e+001
      vertex  1.348492e-015  7.519222e+000  2.000000e+002
    endloop
  endfacet
  facet normal  2.634319e-006 -7.392996e-001 -6.733766e-001
    outer loop
      vertex -3.000000e+000  1.785569e+002  1.221790e+001
      vertex  1.348492e-015  7.519222e+000  2.000000e+002
      vertex -3.000000e+000  9.539352e+000  1.977821e+002
    endloop
  endfacet
  facet normal  0.000000e+000 -7.393013e-001 -6.733747e-001
    outer loop
      vertex -3.000000e+000  9.539352e+000  1.977821e+002
      vertex  1.348492e-015  7.519222e+000  2.000000e+002
      vertex -2.360000e+002  7.519222e+000  2.000000e+002
    endloop
  endfacet
  facet normal  0.000000e+000 -7.393014e-001 -6.733747e-001
    outer loop
      vertex -3.000000e+000  9.539352e+000  1.977821e+002
      vertex -2.360000e+002  7.519222e+000  2.000000e+002
      vertex -2.360000e+002  9.539352e+000  1.977821e+002
    endloop
  endfacet
  facet normal -1.000000e+000  0.000000e+000  0.000000e+000
    outer loop
      vertex -3.000000e+000  1.841095e+001  2.058626e+002
      vertex -3.000000e+000  1.874285e+002  2.029842e+001
      vertex -3.000000e+000  9.539352e+000  1.977821e+002
    endloop
  endfacet
  facet normal -1.000000e+000  0.000000e+000  0.000000e+000
    outer loop
      vertex -3.000000e+000  9.539352e+000  1.977821e+002
      vertex -3.000000e+000  1.874285e+002  2.029842e+001
      vertex -3.000000e+000  1.785569e+002  1.221790e+001
    endloop
  endfacet
  facet normal  0.000000e+000 -6.733766e-001  7.392997e-001
    outer loop
      vertex -2.360000e+002  1.874285e+002  2.029842e+001
      vertex -2.360000e+002  1.785569e+002  1.221790e+001
      vertex -3.000000e+000  1.874285e+002  2.029842e+001
    endloop
  endfacet
  facet normal  0.000000e+000 -6.733766e-001  7.392997e-001
    outer loop
      vertex -3.000000e+000  1.874285e+002  2.029842e+001
      vertex -2.360000e+002  1.785569e+002  1.221790e+001
      vertex -3.000000e+000  1.785569e+002  1.221790e+001
    endloop
  endfacet
  facet normal  0.000000e+000  6.733767e-001 -7.392996e-001
    outer loop
      vertex -3.000000e+000  1.841095e+001  2.058626e+002
      vertex -3.000000e+000  9.539352e+000  1.977821e+002
      vertex -2.360000e+002  1.841095e+001  2.058626e+002
    endloop
  endfacet
  facet normal  0.000000e+000  6.733767e-001 -7.392996e-001
    outer loop
      vertex -2.360000e+002  1.841095e+001  2.058626e+002
      vertex -3.000000e+000  9.539352e+000  1.977821e+002
      vertex -2.360000e+002  9.539352e+000  1.977821e+002
    endloop
  endfacet
  facet normal  0.000000e+000 -7.392992e-001 -6.733770e-001
    outer loop
      vertex -3.000000e+000  1.874285e+002  2.029842e+001
      vertex -2.360000e+002  1.773278e+002  3.138791e+001
      vertex -2.360000e+002  1.874285e+002  2.029842e+001
    endloop
  endfacet
  facet normal  0.000000e+000 -7.392992e-001 -6.733771e-001
    outer loop
      vertex -2.360000e+002  1.773278e+002  3.138791e+001
      vertex -3.000000e+000  1.874285e+002  2.029842e+001
      vertex -1.800000e+001  1.773278e+002  3.138791e+001
    endloop
  endfacet
  facet normal  5.836030e-007 -7.392996e-001 -6.733766e-001
    outer loop
      vertex -1.800000e+001  1.773278e+002  3.138791e+001
      vertex -3.000000e+000  1.874285e+002  2.029842e+001
      vertex -3.000000e+000  1.841095e+001  2.058626e+002
    endloop
  endfacet
  facet normal -7.364724e-008 -7.392997e-001 -6.733766e-001
    outer loop
      vertex -1.800000e+001  1.773278e+002  3.138791e+001
      vertex -3.000000e+000  1.841095e+001  2.058626e+002
      vertex -1.800000e+001  2.851160e+001  1.947731e+002
    endloop
  endfacet
  facet normal  0.000000e+000 -7.392996e-001 -6.733767e-001
    outer loop
      vertex -1.800000e+001  2.851160e+001  1.947731e+002
      vertex -3.000000e+000  1.841095e+001  2.058626e+002
      vertex -2.360000e+002  1.841095e+001  2.058626e+002
    endloop
  endfacet
  facet normal  0.000000e+000 -7.392996e-001 -6.733766e-001
    outer loop
      vertex -1.800000e+001  2.851160e+001  1.947731e+002
      vertex -2.360000e+002  1.841095e+001  2.058626e+002
      vertex -2.360000e+002  2.851160e+001  1.947731e+002
    endloop
  endfacet
  facet normal  0.000000e+000  7.392998e-001  6.733764e-001
    outer loop
      vertex -2.360000e+002  1.916665e+002  2.010065e+001
      vertex -2.360000e+002  1.795457e+002  3.340804e+001
      vertex  8.201902e-015  1.916665e+002  2.010065e+001
    endloop
  endfacet
  facet normal  0.000000e+000  7.392998e-001  6.733764e-001
    outer loop
      vertex  8.201902e-015  1.916665e+002  2.010065e+001
      vertex -2.360000e+002  1.795457e+002  3.340804e+001
      vertex -1.800000e+001  1.795457e+002  3.340804e+001
    endloop
  endfacet
  facet normal  2.111030e-007  7.392997e-001  6.733766e-001
    outer loop
      vertex  8.201902e-015  1.916665e+002  2.010065e+001
      vertex -1.800000e+001  1.795457e+002  3.340804e+001
      vertex -1.460173e-015  1.860872e+001  2.101007e+002
    endloop
  endfacet
  facet normal  1.841181e-007  7.392996e-001  6.733766e-001
    outer loop
      vertex -1.460173e-015  1.860872e+001  2.101007e+002
      vertex -1.800000e+001  1.795457e+002  3.340804e+001
      vertex -1.800000e+001  3.072950e+001  1.967933e+002
    endloop
  endfacet
  facet normal  0.000000e+000  7.392994e-001  6.733767e-001
    outer loop
      vertex -1.460173e-015  1.860872e+001  2.101007e+002
      vertex -1.800000e+001  3.072950e+001  1.967933e+002
      vertex -2.360000e+002  1.860872e+001  2.101007e+002
    endloop
  endfacet
  facet normal  0.000000e+000  7.392995e-001  6.733767e-001
    outer loop
      vertex -2.360000e+002  1.860872e+001  2.101007e+002
      vertex -1.800000e+001  3.072950e+001  1.967933e+002
      vertex -2.360000e+002  3.072950e+001  1.967933e+002
    endloop
  endfacet
  facet normal  0.000000e+000 -6.733765e-001  7.392997e-001
    outer loop
      vertex -1.460173e-015  1.860872e+001  2.101007e+002
      vertex -2.360000e+002  1.860872e+001  2.101007e+002
      vertex  1.348492e-015  7.519222e+000  2.000000e+002
    endloop
  endfacet
  facet normal  0.000000e+000 -6.733765e-001  7.392997e-001
    outer loop
      vertex  1.348492e-015  7.519222e+000  2.000000e+002
      vertex -2.360000e+002  1.860872e+001  2.101007e+002
      vertex -2.360000e+002  7.519222e+000  2.000000e+002
    endloop
  endfacet
  facet normal  0.000000e+000  6.733766e-001 -7.392995e-001
    outer loop
      vertex -2.360000e+002  1.916665e+002  2.010065e+001
      vertex  8.201902e-015  1.916665e+002  2.010065e+001
      vertex -2.360000e+002  1.805770e+002  1.000000e+001
    endloop
  endfacet
  facet normal  0.000000e+000  6.733766e-001 -7.392995e-001
    outer loop
      vertex -2.360000e+002  1.805770e+002  1.000000e+001
      vertex  8.201902e-015  1.916665e+002  2.010065e+001
      vertex  1.101057e-014  1.805770e+002  1.000000e+001
    endloop
  endfacet
  facet normal  1.000000e+000  1.131137e-016  1.538804e-016
    outer loop
      vertex -1.460173e-015  1.860872e+001  2.101007e+002
      vertex  1.348492e-015  7.519222e+000  2.000000e+002
      vertex  8.201902e-015  1.916665e+002  2.010065e+001
    endloop
  endfacet
  facet normal  1.000000e+000  1.131137e-016  1.538804e-016
    outer loop
      vertex  8.201902e-015  1.916665e+002  2.010065e+001
      vertex  1.348492e-015  7.519222e+000  2.000000e+002
      vertex  1.101057e-014  1.805770e+002  1.000000e+001
    endloop
  endfacet
endsolid CATIA STL
