solid CATIA STL
  facet normal -1.000000e+000  0.000000e+000  -0.000000e+000
    outer loop
      vertex -2.360000e+002  1.813940e+002  3.509148e+001
      vertex -2.360000e+002  1.836119e+002  3.711161e+001
      vertex -2.360000e+002  1.914946e+002  2.400199e+001
    endloop
  endfacet
  facet normal -1.000000e+000  0.000000e+000  0.000000e+000
    outer loop
      vertex -2.360000e+002  1.914946e+002  2.400199e+001
      vertex -2.360000e+002  1.836119e+002  3.711161e+001
      vertex -2.360000e+002  1.957327e+002  2.380422e+001
    endloop
  endfacet
  facet normal -1.000000e+000  -0.000000e+000  0.000000e+000
    outer loop
      vertex -2.360000e+002  1.914946e+002  2.400199e+001
      vertex -2.360000e+002  1.957327e+002  2.380422e+001
      vertex -2.360000e+002  1.785569e+002  1.221790e+001
    endloop
  endfacet
  facet normal -1.000000e+000  0.000000e+000  0.000000e+000
    outer loop
      vertex -2.360000e+002  1.785569e+002  1.221790e+001
      vertex -2.360000e+002  1.957327e+002  2.380422e+001
      vertex -2.360000e+002  1.805770e+002  1.000000e+001
    endloop
  endfacet
  facet normal  0.000000e+000 -6.733772e-001  7.392991e-001
    outer loop
      vertex -2.360000e+002  1.836119e+002  3.711161e+001
      vertex -2.360000e+002  1.813940e+002  3.509148e+001
      vertex -1.800000e+001  1.836119e+002  3.711161e+001
    endloop
  endfacet
  facet normal  0.000000e+000 -6.733772e-001  7.392991e-001
    outer loop
      vertex -1.800000e+001  1.836119e+002  3.711161e+001
      vertex -2.360000e+002  1.813940e+002  3.509148e+001
      vertex -1.800000e+001  1.813940e+002  3.509148e+001
    endloop
  endfacet
  facet normal -1.000000e+000  0.000000e+000  0.000000e+000
    outer loop
      vertex -1.800000e+001  3.479564e+001  2.004968e+002
      vertex -1.800000e+001  1.836119e+002  3.711161e+001
      vertex -1.800000e+001  3.257774e+001  1.984767e+002
    endloop
  endfacet
  facet normal -1.000000e+000  0.000000e+000  0.000000e+000
    outer loop
      vertex -1.800000e+001  3.257774e+001  1.984767e+002
      vertex -1.800000e+001  1.836119e+002  3.711161e+001
      vertex -1.800000e+001  1.813940e+002  3.509148e+001
    endloop
  endfacet
  facet normal  0.000000e+000  6.733759e-001 -7.393003e-001
    outer loop
      vertex -1.800000e+001  3.479564e+001  2.004968e+002
      vertex -1.800000e+001  3.257774e+001  1.984767e+002
      vertex -2.360000e+002  3.479564e+001  2.004968e+002
    endloop
  endfacet
  facet normal  0.000000e+000  6.733759e-001 -7.393003e-001
    outer loop
      vertex -2.360000e+002  3.479564e+001  2.004968e+002
      vertex -1.800000e+001  3.257774e+001  1.984767e+002
      vertex -2.360000e+002  3.257774e+001  1.984767e+002
    endloop
  endfacet
  facet normal -9.999999e-001  0.000000e+000  0.000000e+000
    outer loop
      vertex -2.360000e+002  3.479564e+001  2.004968e+002
      vertex -2.360000e+002  3.257774e+001  1.984767e+002
      vertex -2.360000e+002  2.267486e+001  2.138042e+002
    endloop
  endfacet
  facet normal -1.000000e+000  0.000000e+000  -0.000000e+000
    outer loop
      vertex -2.360000e+002  2.267486e+001  2.138042e+002
      vertex -2.360000e+002  3.257774e+001  1.984767e+002
      vertex -2.360000e+002  2.247709e+001  2.095662e+002
    endloop
  endfacet
  facet normal -1.000000e+000  -0.000000e+000  0.000000e+000
    outer loop
      vertex -2.360000e+002  2.267486e+001  2.138042e+002
      vertex -2.360000e+002  2.247709e+001  2.095662e+002
      vertex -2.360000e+002  7.519222e+000  2.000000e+002
    endloop
  endfacet
  facet normal -1.000000e+000  0.000000e+000  0.000000e+000
    outer loop
      vertex -2.360000e+002  7.519222e+000  2.000000e+002
      vertex -2.360000e+002  2.247709e+001  2.095662e+002
      vertex -2.360000e+002  9.539352e+000  1.977821e+002
    endloop
  endfacet
  facet normal  0.000000e+000 -7.393001e-001 -6.733761e-001
    outer loop
      vertex  1.101057e-014  1.805770e+002  1.000000e+001
      vertex -2.360000e+002  1.785569e+002  1.221790e+001
      vertex -2.360000e+002  1.805770e+002  1.000000e+001
    endloop
  endfacet
  facet normal  0.000000e+000 -7.393001e-001 -6.733760e-001
    outer loop
      vertex -2.360000e+002  1.785569e+002  1.221790e+001
      vertex  1.101057e-014  1.805770e+002  1.000000e+001
      vertex -3.000000e+000  1.785569e+002  1.221790e+001
    endloop
  endfacet
  facet normal -7.520544e-007 -7.392996e-001 -6.733766e-001
    outer loop
      vertex -3.000000e+000  1.785569e+002  1.221790e+001
      vertex  1.101057e-014  1.805770e+002  1.000000e+001
      vertex  1.348492e-015  7.519222e+000  2.000000e+002
    endloop
  endfacet
  facet normal  2.634319e-006 -7.392996e-001 -6.733766e-001
    outer loop
      vertex -3.000000e+000  1.785569e+002  1.221790e+001
      vertex  1.348492e-015  7.519222e+000  2.000000e+002
      vertex -3.000000e+000  9.539352e+000  1.977821e+002
    endloop
  endfacet
  facet normal  0.000000e+000 -7.393013e-001 -6.733747e-001
    outer loop
      vertex -3.000000e+000  9.539352e+000  1.977821e+002
      vertex  1.348492e-015  7.519222e+000  2.000000e+002
      vertex -2.360000e+002  7.519222e+000  2.000000e+002
    endloop
  endfacet
  facet normal  0.000000e+000 -7.393014e-001 -6.733747e-001
    outer loop
      vertex -3.000000e+000  9.539352e+000  1.977821e+002
      vertex -2.360000e+002  7.519222e+000  2.000000e+002
      vertex -2.360000e+002  9.539352e+000  1.977821e+002
    endloop
  endfacet
  facet normal -1.000000e+000  0.000000e+000  0.000000e+000
    outer loop
      vertex -3.000000e+000  2.247709e+001  2.095662e+002
      vertex -3.000000e+000  1.914946e+002  2.400199e+001
      vertex -3.000000e+000  9.539352e+000  1.977821e+002
    endloop
  endfacet
  facet normal -1.000000e+000  0.000000e+000  0.000000e+000
    outer loop
      vertex -3.000000e+000  9.539352e+000  1.977821e+002
      vertex -3.000000e+000  1.914946e+002  2.400199e+001
      vertex -3.000000e+000  1.785569e+002  1.221790e+001
    endloop
  endfacet
  facet normal  0.000000e+000 -6.733766e-001  7.392997e-001
    outer loop
      vertex -2.360000e+002  1.914946e+002  2.400199e+001
      vertex -2.360000e+002  1.785569e+002  1.221790e+001
      vertex -3.000000e+000  1.914946e+002  2.400199e+001
    endloop
  endfacet
  facet normal  0.000000e+000 -6.733766e-001  7.392997e-001
    outer loop
      vertex -3.000000e+000  1.914946e+002  2.400199e+001
      vertex -2.360000e+002  1.785569e+002  1.221790e+001
      vertex -3.000000e+000  1.785569e+002  1.221790e+001
    endloop
  endfacet
  facet normal  0.000000e+000  6.733770e-001 -7.392992e-001
    outer loop
      vertex -3.000000e+000  2.247709e+001  2.095662e+002
      vertex -3.000000e+000  9.539352e+000  1.977821e+002
      vertex -2.360000e+002  2.247709e+001  2.095662e+002
    endloop
  endfacet
  facet normal  0.000000e+000  6.733770e-001 -7.392992e-001
    outer loop
      vertex -2.360000e+002  2.247709e+001  2.095662e+002
      vertex -3.000000e+000  9.539352e+000  1.977821e+002
      vertex -2.360000e+002  9.539352e+000  1.977821e+002
    endloop
  endfacet
  facet normal  0.000000e+000 -7.392998e-001 -6.733766e-001
    outer loop
      vertex -3.000000e+000  1.914946e+002  2.400199e+001
      vertex -2.360000e+002  1.813940e+002  3.509148e+001
      vertex -2.360000e+002  1.914946e+002  2.400199e+001
    endloop
  endfacet
  facet normal  0.000000e+000 -7.392997e-001 -6.733765e-001
    outer loop
      vertex -2.360000e+002  1.813940e+002  3.509148e+001
      vertex -3.000000e+000  1.914946e+002  2.400199e+001
      vertex -1.800000e+001  1.813940e+002  3.509148e+001
    endloop
  endfacet
  facet normal -1.296896e-007 -7.392997e-001 -6.733766e-001
    outer loop
      vertex -1.800000e+001  1.813940e+002  3.509148e+001
      vertex -3.000000e+000  1.914946e+002  2.400199e+001
      vertex -3.000000e+000  2.247709e+001  2.095662e+002
    endloop
  endfacet
  facet normal -3.682362e-008 -7.392997e-001 -6.733766e-001
    outer loop
      vertex -1.800000e+001  1.813940e+002  3.509148e+001
      vertex -3.000000e+000  2.247709e+001  2.095662e+002
      vertex -1.800000e+001  3.257774e+001  1.984767e+002
    endloop
  endfacet
  facet normal  0.000000e+000 -7.392996e-001 -6.733767e-001
    outer loop
      vertex -1.800000e+001  3.257774e+001  1.984767e+002
      vertex -3.000000e+000  2.247709e+001  2.095662e+002
      vertex -2.360000e+002  2.247709e+001  2.095662e+002
    endloop
  endfacet
  facet normal  0.000000e+000 -7.392996e-001 -6.733766e-001
    outer loop
      vertex -1.800000e+001  3.257774e+001  1.984767e+002
      vertex -2.360000e+002  2.247709e+001  2.095662e+002
      vertex -2.360000e+002  3.257774e+001  1.984767e+002
    endloop
  endfacet
  facet normal  0.000000e+000  7.392998e-001  6.733764e-001
    outer loop
      vertex -2.360000e+002  1.957327e+002  2.380422e+001
      vertex -2.360000e+002  1.836119e+002  3.711161e+001
      vertex  7.172058e-015  1.957327e+002  2.380422e+001
    endloop
  endfacet
  facet normal  0.000000e+000  7.392998e-001  6.733764e-001
    outer loop
      vertex  7.172058e-015  1.957327e+002  2.380422e+001
      vertex -2.360000e+002  1.836119e+002  3.711161e+001
      vertex -1.800000e+001  1.836119e+002  3.711161e+001
    endloop
  endfacet
  facet normal  2.638787e-007  7.392997e-001  6.733766e-001
    outer loop
      vertex  7.172058e-015  1.957327e+002  2.380422e+001
      vertex -1.800000e+001  1.836119e+002  3.711161e+001
      vertex -2.490017e-015  2.267486e+001  2.138042e+002
    endloop
  endfacet
  facet normal  1.227454e-007  7.392996e-001  6.733766e-001
    outer loop
      vertex -2.490017e-015  2.267486e+001  2.138042e+002
      vertex -1.800000e+001  1.836119e+002  3.711161e+001
      vertex -1.800000e+001  3.479564e+001  2.004968e+002
    endloop
  endfacet
  facet normal  0.000000e+000  7.392994e-001  6.733767e-001
    outer loop
      vertex -2.490017e-015  2.267486e+001  2.138042e+002
      vertex -1.800000e+001  3.479564e+001  2.004968e+002
      vertex -2.360000e+002  2.267486e+001  2.138042e+002
    endloop
  endfacet
  facet normal  0.000000e+000  7.392995e-001  6.733767e-001
    outer loop
      vertex -2.360000e+002  2.267486e+001  2.138042e+002
      vertex -1.800000e+001  3.479564e+001  2.004968e+002
      vertex -2.360000e+002  3.479564e+001  2.004968e+002
    endloop
  endfacet
  facet normal  0.000000e+000 -6.733764e-001  7.392997e-001
    outer loop
      vertex -2.490017e-015  2.267486e+001  2.138042e+002
      vertex -2.360000e+002  2.267486e+001  2.138042e+002
      vertex  1.348492e-015  7.519222e+000  2.000000e+002
    endloop
  endfacet
  facet normal  0.000000e+000 -6.733764e-001  7.392997e-001
    outer loop
      vertex  1.348492e-015  7.519222e+000  2.000000e+002
      vertex -2.360000e+002  2.267486e+001  2.138042e+002
      vertex -2.360000e+002  7.519222e+000  2.000000e+002
    endloop
  endfacet
  facet normal  0.000000e+000  6.733767e-001 -7.392996e-001
    outer loop
      vertex -2.360000e+002  1.957327e+002  2.380422e+001
      vertex  7.172058e-015  1.957327e+002  2.380422e+001
      vertex -2.360000e+002  1.805770e+002  1.000000e+001
    endloop
  endfacet
  facet normal  0.000000e+000  6.733767e-001 -7.392996e-001
    outer loop
      vertex -2.360000e+002  1.805770e+002  1.000000e+001
      vertex  7.172058e-015  1.957327e+002  2.380422e+001
      vertex  1.101057e-014  1.805770e+002  1.000000e+001
    endloop
  endfacet
  facet normal  1.000000e+000  1.131137e-016  1.538804e-016
    outer loop
      vertex -2.490017e-015  2.267486e+001  2.138042e+002
      vertex  1.348492e-015  7.519222e+000  2.000000e+002
      vertex  7.172058e-015  1.957327e+002  2.380422e+001
    endloop
  endfacet
  facet normal  9.999999e-001  1.131137e-016  1.538804e-016
    outer loop
      vertex  7.172058e-015  1.957327e+002  2.380422e+001
      vertex  1.348492e-015  7.519222e+000  2.000000e+002
      vertex  1.101057e-014  1.805770e+002  1.000000e+001
    endloop
  endfacet
endsolid CATIA STL
