solid CATIA STL
  facet normal  0.000000e+000  -0.000000e+000  1.000000e+000
    outer loop
      vertex -7.206446e+001 -1.970000e+001  8.830000e+001
      vertex -7.112479e+001 -1.849930e+001  8.830000e+001
      vertex -7.024530e+001 -1.725385e+001  8.830000e+001
    endloop
  endfacet
  facet normal  0.000000e+000  -0.000000e+000  1.000000e+000
    outer loop
      vertex -7.206446e+001 -1.970000e+001  8.830000e+001
      vertex -7.024530e+001 -1.725385e+001  8.830000e+001
      vertex -6.942811e+001 -1.596667e+001  8.830000e+001
    endloop
  endfacet
  facet normal  0.000000e+000  -0.000000e+000  1.000000e+000
    outer loop
      vertex -7.206446e+001 -1.970000e+001  8.830000e+001
      vertex -6.942811e+001 -1.596667e+001  8.830000e+001
      vertex -6.867519e+001 -1.464086e+001  8.830000e+001
    endloop
  endfacet
  facet normal  0.000000e+000  -0.000000e+000  1.000000e+000
    outer loop
      vertex -7.206446e+001 -1.970000e+001  8.830000e+001
      vertex -6.867519e+001 -1.464086e+001  8.830000e+001
      vertex -6.798837e+001 -1.327963e+001  8.830000e+001
    endloop
  endfacet
  facet normal  0.000000e+000  -0.000000e+000  9.999999e-001
    outer loop
      vertex -7.206446e+001 -1.970000e+001  8.830000e+001
      vertex -6.798837e+001 -1.327963e+001  8.830000e+001
      vertex -6.736932e+001 -1.188629e+001  8.830000e+001
    endloop
  endfacet
  facet normal  0.000000e+000  -0.000000e+000  1.000000e+000
    outer loop
      vertex -7.206446e+001 -1.970000e+001  8.830000e+001
      vertex -6.736932e+001 -1.188629e+001  8.830000e+001
      vertex -6.681951e+001 -1.046418e+001  8.830000e+001
    endloop
  endfacet
  facet normal  0.000000e+000  -0.000000e+000  1.000000e+000
    outer loop
      vertex -7.206446e+001 -1.970000e+001  8.830000e+001
      vertex -6.681951e+001 -1.046418e+001  8.830000e+001
      vertex -6.634030e+001 -9.016770e+000  8.830000e+001
    endloop
  endfacet
  facet normal  0.000000e+000  -0.000000e+000  1.000000e+000
    outer loop
      vertex -7.206446e+001 -1.970000e+001  8.830000e+001
      vertex -6.634030e+001 -9.016770e+000  8.830000e+001
      vertex -6.593283e+001 -7.547545e+000  8.830000e+001
    endloop
  endfacet
  facet normal  0.000000e+000  -0.000000e+000  1.000000e+000
    outer loop
      vertex -7.206446e+001 -1.970000e+001  8.830000e+001
      vertex -6.593283e+001 -7.547545e+000  8.830000e+001
      vertex -6.559810e+001 -6.060062e+000  8.830000e+001
    endloop
  endfacet
  facet normal  0.000000e+000  -0.000000e+000  1.000000e+000
    outer loop
      vertex -7.206446e+001 -1.970000e+001  8.830000e+001
      vertex -6.559810e+001 -6.060062e+000  8.830000e+001
      vertex -6.533691e+001 -4.557920e+000  8.830000e+001
    endloop
  endfacet
  facet normal  0.000000e+000  -0.000000e+000  1.000000e+000
    outer loop
      vertex -7.206446e+001 -1.970000e+001  8.830000e+001
      vertex -6.533691e+001 -4.557920e+000  8.830000e+001
      vertex -6.514989e+001 -3.044753e+000  8.830000e+001
    endloop
  endfacet
  facet normal  0.000000e+000  -0.000000e+000  1.000000e+000
    outer loop
      vertex -7.206446e+001 -1.970000e+001  8.830000e+001
      vertex -6.514989e+001 -3.044753e+000  8.830000e+001
      vertex -6.503749e+001 -1.524220e+000  8.830000e+001
    endloop
  endfacet
  facet normal  0.000000e+000  -0.000000e+000  1.000000e+000
    outer loop
      vertex -7.206446e+001 -1.970000e+001  8.830000e+001
      vertex -6.503749e+001 -1.524220e+000  8.830000e+001
      vertex -6.500000e+001 -2.263740e-015  8.830000e+001
    endloop
  endfacet
  facet normal  0.000000e+000  0.000000e+000  1.000000e+000
    outer loop
      vertex -7.206446e+001 -1.970000e+001  8.830000e+001
      vertex -6.500000e+001 -2.263740e-015  8.830000e+001
      vertex -6.503749e+001  1.524220e+000  8.830000e+001
    endloop
  endfacet
  facet normal  0.000000e+000  0.000000e+000  9.999999e-001
    outer loop
      vertex -7.206446e+001 -1.970000e+001  8.830000e+001
      vertex -6.503749e+001  1.524220e+000  8.830000e+001
      vertex -6.514989e+001  3.044753e+000  8.830000e+001
    endloop
  endfacet
  facet normal  0.000000e+000  0.000000e+000  1.000000e+000
    outer loop
      vertex -7.206446e+001 -1.970000e+001  8.830000e+001
      vertex -6.514989e+001  3.044753e+000  8.830000e+001
      vertex -6.533691e+001  4.557920e+000  8.830000e+001
    endloop
  endfacet
  facet normal  0.000000e+000  0.000000e+000  1.000000e+000
    outer loop
      vertex -7.206446e+001 -1.970000e+001  8.830000e+001
      vertex -6.533691e+001  4.557920e+000  8.830000e+001
      vertex -6.559810e+001  6.060062e+000  8.830000e+001
    endloop
  endfacet
  facet normal  0.000000e+000  0.000000e+000  1.000000e+000
    outer loop
      vertex -7.206446e+001 -1.970000e+001  8.830000e+001
      vertex -6.559810e+001  6.060062e+000  8.830000e+001
      vertex -6.593283e+001  7.547545e+000  8.830000e+001
    endloop
  endfacet
  facet normal  0.000000e+000  0.000000e+000  1.000000e+000
    outer loop
      vertex -7.206446e+001 -1.970000e+001  8.830000e+001
      vertex -6.593283e+001  7.547545e+000  8.830000e+001
      vertex -6.634030e+001  9.016770e+000  8.830000e+001
    endloop
  endfacet
  facet normal  0.000000e+000  0.000000e+000  1.000000e+000
    outer loop
      vertex -7.206446e+001 -1.970000e+001  8.830000e+001
      vertex -6.634030e+001  9.016770e+000  8.830000e+001
      vertex -6.681951e+001  1.046418e+001  8.830000e+001
    endloop
  endfacet
  facet normal  0.000000e+000  0.000000e+000  1.000000e+000
    outer loop
      vertex -7.206446e+001 -1.970000e+001  8.830000e+001
      vertex -6.681951e+001  1.046418e+001  8.830000e+001
      vertex -6.736932e+001  1.188629e+001  8.830000e+001
    endloop
  endfacet
  facet normal  0.000000e+000  0.000000e+000  1.000000e+000
    outer loop
      vertex -7.206446e+001 -1.970000e+001  8.830000e+001
      vertex -6.736932e+001  1.188629e+001  8.830000e+001
      vertex -6.798837e+001  1.327963e+001  8.830000e+001
    endloop
  endfacet
  facet normal  0.000000e+000  -0.000000e+000  9.999999e-001
    outer loop
      vertex -8.420000e+001 -1.050000e+002  8.830000e+001
      vertex  8.320000e+001 -1.050000e+002  8.830000e+001
      vertex  8.320000e+001 -1.970000e+001  8.830000e+001
    endloop
  endfacet
  facet normal  0.000000e+000  0.000000e+000  1.000000e+000
    outer loop
      vertex -8.420000e+001 -1.050000e+002  8.830000e+001
      vertex  8.320000e+001 -1.970000e+001  8.830000e+001
      vertex -7.206446e+001 -1.970000e+001  8.830000e+001
    endloop
  endfacet
  facet normal  0.000000e+000  -0.000000e+000  9.999999e-001
    outer loop
      vertex -8.420000e+001 -1.050000e+002  8.830000e+001
      vertex -7.206446e+001 -1.970000e+001  8.830000e+001
      vertex -6.798837e+001  1.327963e+001  8.830000e+001
    endloop
  endfacet
  facet normal  0.000000e+000  0.000000e+000  9.999999e-001
    outer loop
      vertex -8.420000e+001 -1.050000e+002  8.830000e+001
      vertex -6.798837e+001  1.327963e+001  8.830000e+001
      vertex -6.867519e+001  1.464086e+001  8.830000e+001
    endloop
  endfacet
  facet normal  0.000000e+000  0.000000e+000  1.000000e+000
    outer loop
      vertex -8.420000e+001 -1.050000e+002  8.830000e+001
      vertex -6.867519e+001  1.464086e+001  8.830000e+001
      vertex -6.942811e+001  1.596667e+001  8.830000e+001
    endloop
  endfacet
  facet normal  0.000000e+000  0.000000e+000  9.999999e-001
    outer loop
      vertex -8.420000e+001 -1.050000e+002  8.830000e+001
      vertex -6.942811e+001  1.596667e+001  8.830000e+001
      vertex -7.024530e+001  1.725385e+001  8.830000e+001
    endloop
  endfacet
  facet normal  0.000000e+000  0.000000e+000  1.000000e+000
    outer loop
      vertex -8.420000e+001 -1.050000e+002  8.830000e+001
      vertex -7.024530e+001  1.725385e+001  8.830000e+001
      vertex -7.112479e+001  1.849930e+001  8.830000e+001
    endloop
  endfacet
  facet normal  0.000000e+000  0.000000e+000  1.000000e+000
    outer loop
      vertex -8.420000e+001 -1.050000e+002  8.830000e+001
      vertex -7.112479e+001  1.849930e+001  8.830000e+001
      vertex -7.206446e+001  1.970000e+001  8.830000e+001
    endloop
  endfacet
  facet normal  0.000000e+000  0.000000e+000  1.000000e+000
    outer loop
      vertex -8.420000e+001 -1.050000e+002  8.830000e+001
      vertex -7.206446e+001  1.970000e+001  8.830000e+001
      vertex -8.420000e+001  1.050000e+002  8.830000e+001
    endloop
  endfacet
  facet normal  0.000000e+000  0.000000e+000  1.000000e+000
    outer loop
      vertex  8.320000e+001  1.970000e+001  8.830000e+001
      vertex  8.320000e+001  1.050000e+002  8.830000e+001
      vertex -7.206446e+001  1.970000e+001  8.830000e+001
    endloop
  endfacet
  facet normal  0.000000e+000  -0.000000e+000  1.000000e+000
    outer loop
      vertex -7.206446e+001  1.970000e+001  8.830000e+001
      vertex  8.320000e+001  1.050000e+002  8.830000e+001
      vertex -8.420000e+001  1.050000e+002  8.830000e+001
    endloop
  endfacet
  facet normal  0.000000e+000  -0.000000e+000 -1.000000e+000
    outer loop
      vertex -7.206446e+001 -1.970000e+001  8.530000e+001
      vertex -6.798837e+001  1.327963e+001  8.530000e+001
      vertex -6.736932e+001  1.188629e+001  8.530000e+001
    endloop
  endfacet
  facet normal  0.000000e+000  -0.000000e+000 -1.000000e+000
    outer loop
      vertex -7.206446e+001 -1.970000e+001  8.530000e+001
      vertex -6.736932e+001  1.188629e+001  8.530000e+001
      vertex -6.681951e+001  1.046418e+001  8.530000e+001
    endloop
  endfacet
  facet normal  0.000000e+000  -0.000000e+000 -1.000000e+000
    outer loop
      vertex -7.206446e+001 -1.970000e+001  8.530000e+001
      vertex -6.681951e+001  1.046418e+001  8.530000e+001
      vertex -6.634030e+001  9.016770e+000  8.530000e+001
    endloop
  endfacet
  facet normal  0.000000e+000  -0.000000e+000 -1.000000e+000
    outer loop
      vertex -7.206446e+001 -1.970000e+001  8.530000e+001
      vertex -6.634030e+001  9.016770e+000  8.530000e+001
      vertex -6.593283e+001  7.547545e+000  8.530000e+001
    endloop
  endfacet
  facet normal  0.000000e+000  -0.000000e+000 -1.000000e+000
    outer loop
      vertex -7.206446e+001 -1.970000e+001  8.530000e+001
      vertex -6.593283e+001  7.547545e+000  8.530000e+001
      vertex -6.559810e+001  6.060062e+000  8.530000e+001
    endloop
  endfacet
  facet normal  0.000000e+000  -0.000000e+000 -1.000000e+000
    outer loop
      vertex -7.206446e+001 -1.970000e+001  8.530000e+001
      vertex -6.559810e+001  6.060062e+000  8.530000e+001
      vertex -6.533691e+001  4.557920e+000  8.530000e+001
    endloop
  endfacet
  facet normal  0.000000e+000  -0.000000e+000 -1.000000e+000
    outer loop
      vertex -7.206446e+001 -1.970000e+001  8.530000e+001
      vertex -6.533691e+001  4.557920e+000  8.530000e+001
      vertex -6.514989e+001  3.044753e+000  8.530000e+001
    endloop
  endfacet
  facet normal  0.000000e+000  -0.000000e+000 -1.000000e+000
    outer loop
      vertex -7.206446e+001 -1.970000e+001  8.530000e+001
      vertex -6.514989e+001  3.044753e+000  8.530000e+001
      vertex -6.503749e+001  1.524220e+000  8.530000e+001
    endloop
  endfacet
  facet normal  0.000000e+000  -0.000000e+000 -1.000000e+000
    outer loop
      vertex -7.206446e+001 -1.970000e+001  8.530000e+001
      vertex -6.503749e+001  1.524220e+000  8.530000e+001
      vertex -6.500000e+001 -2.263740e-015  8.530000e+001
    endloop
  endfacet
  facet normal  0.000000e+000  0.000000e+000 -1.000000e+000
    outer loop
      vertex -7.206446e+001 -1.970000e+001  8.530000e+001
      vertex -6.500000e+001 -2.263740e-015  8.530000e+001
      vertex -6.503749e+001 -1.524220e+000  8.530000e+001
    endloop
  endfacet
  facet normal  0.000000e+000  0.000000e+000 -1.000000e+000
    outer loop
      vertex -7.206446e+001 -1.970000e+001  8.530000e+001
      vertex -6.503749e+001 -1.524220e+000  8.530000e+001
      vertex -6.514989e+001 -3.044753e+000  8.530000e+001
    endloop
  endfacet
  facet normal  0.000000e+000  0.000000e+000 -1.000000e+000
    outer loop
      vertex -7.206446e+001 -1.970000e+001  8.530000e+001
      vertex -6.514989e+001 -3.044753e+000  8.530000e+001
      vertex -6.533691e+001 -4.557920e+000  8.530000e+001
    endloop
  endfacet
  facet normal  0.000000e+000  0.000000e+000 -1.000000e+000
    outer loop
      vertex -7.206446e+001 -1.970000e+001  8.530000e+001
      vertex -6.533691e+001 -4.557920e+000  8.530000e+001
      vertex -6.559810e+001 -6.060062e+000  8.530000e+001
    endloop
  endfacet
  facet normal  0.000000e+000  0.000000e+000 -9.999999e-001
    outer loop
      vertex -7.206446e+001 -1.970000e+001  8.530000e+001
      vertex -6.559810e+001 -6.060062e+000  8.530000e+001
      vertex -6.593283e+001 -7.547545e+000  8.530000e+001
    endloop
  endfacet
  facet normal  0.000000e+000  0.000000e+000 -1.000000e+000
    outer loop
      vertex -7.206446e+001 -1.970000e+001  8.530000e+001
      vertex -6.593283e+001 -7.547545e+000  8.530000e+001
      vertex -6.634030e+001 -9.016770e+000  8.530000e+001
    endloop
  endfacet
  facet normal  0.000000e+000  0.000000e+000 -1.000000e+000
    outer loop
      vertex -7.206446e+001 -1.970000e+001  8.530000e+001
      vertex -6.634030e+001 -9.016770e+000  8.530000e+001
      vertex -6.681951e+001 -1.046418e+001  8.530000e+001
    endloop
  endfacet
  facet normal  0.000000e+000  0.000000e+000 -1.000000e+000
    outer loop
      vertex -7.206446e+001 -1.970000e+001  8.530000e+001
      vertex -6.681951e+001 -1.046418e+001  8.530000e+001
      vertex -6.736932e+001 -1.188629e+001  8.530000e+001
    endloop
  endfacet
  facet normal  0.000000e+000  0.000000e+000 -1.000000e+000
    outer loop
      vertex -7.206446e+001 -1.970000e+001  8.530000e+001
      vertex -6.736932e+001 -1.188629e+001  8.530000e+001
      vertex -6.798837e+001 -1.327963e+001  8.530000e+001
    endloop
  endfacet
  facet normal  0.000000e+000  0.000000e+000 -1.000000e+000
    outer loop
      vertex -7.206446e+001 -1.970000e+001  8.530000e+001
      vertex -6.798837e+001 -1.327963e+001  8.530000e+001
      vertex -6.867519e+001 -1.464086e+001  8.530000e+001
    endloop
  endfacet
  facet normal  0.000000e+000  0.000000e+000 -9.999999e-001
    outer loop
      vertex -7.206446e+001 -1.970000e+001  8.530000e+001
      vertex -6.867519e+001 -1.464086e+001  8.530000e+001
      vertex -6.942811e+001 -1.596667e+001  8.530000e+001
    endloop
  endfacet
  facet normal  0.000000e+000  0.000000e+000 -1.000000e+000
    outer loop
      vertex -7.206446e+001 -1.970000e+001  8.530000e+001
      vertex -6.942811e+001 -1.596667e+001  8.530000e+001
      vertex -7.024530e+001 -1.725385e+001  8.530000e+001
    endloop
  endfacet
  facet normal  0.000000e+000  0.000000e+000 -1.000000e+000
    outer loop
      vertex -7.206446e+001 -1.970000e+001  8.530000e+001
      vertex -7.024530e+001 -1.725385e+001  8.530000e+001
      vertex -7.112479e+001 -1.849930e+001  8.530000e+001
    endloop
  endfacet
  facet normal  0.000000e+000  0.000000e+000 -1.000000e+000
    outer loop
      vertex -8.420000e+001 -1.050000e+002  8.530000e+001
      vertex -8.420000e+001  1.050000e+002  8.530000e+001
      vertex -7.206446e+001  1.970000e+001  8.530000e+001
    endloop
  endfacet
  facet normal  0.000000e+000  -0.000000e+000 -1.000000e+000
    outer loop
      vertex -8.420000e+001 -1.050000e+002  8.530000e+001
      vertex -7.206446e+001  1.970000e+001  8.530000e+001
      vertex -7.112479e+001  1.849930e+001  8.530000e+001
    endloop
  endfacet
  facet normal  0.000000e+000  -0.000000e+000 -9.999999e-001
    outer loop
      vertex -8.420000e+001 -1.050000e+002  8.530000e+001
      vertex -7.112479e+001  1.849930e+001  8.530000e+001
      vertex -7.024530e+001  1.725385e+001  8.530000e+001
    endloop
  endfacet
  facet normal  0.000000e+000  -0.000000e+000 -1.000000e+000
    outer loop
      vertex -8.420000e+001 -1.050000e+002  8.530000e+001
      vertex -7.024530e+001  1.725385e+001  8.530000e+001
      vertex -6.942811e+001  1.596667e+001  8.530000e+001
    endloop
  endfacet
  facet normal  0.000000e+000  -0.000000e+000 -1.000000e+000
    outer loop
      vertex -8.420000e+001 -1.050000e+002  8.530000e+001
      vertex -6.942811e+001  1.596667e+001  8.530000e+001
      vertex -6.867519e+001  1.464086e+001  8.530000e+001
    endloop
  endfacet
  facet normal  0.000000e+000  -0.000000e+000 -1.000000e+000
    outer loop
      vertex -8.420000e+001 -1.050000e+002  8.530000e+001
      vertex -6.867519e+001  1.464086e+001  8.530000e+001
      vertex -6.798837e+001  1.327963e+001  8.530000e+001
    endloop
  endfacet
  facet normal  0.000000e+000  0.000000e+000 -1.000000e+000
    outer loop
      vertex -8.420000e+001 -1.050000e+002  8.530000e+001
      vertex -6.798837e+001  1.327963e+001  8.530000e+001
      vertex -7.206446e+001 -1.970000e+001  8.530000e+001
    endloop
  endfacet
  facet normal  0.000000e+000  -0.000000e+000 -1.000000e+000
    outer loop
      vertex -8.420000e+001 -1.050000e+002  8.530000e+001
      vertex -7.206446e+001 -1.970000e+001  8.530000e+001
      vertex  8.320000e+001 -1.970000e+001  8.530000e+001
    endloop
  endfacet
  facet normal  0.000000e+000  -0.000000e+000 -9.999999e-001
    outer loop
      vertex -8.420000e+001 -1.050000e+002  8.530000e+001
      vertex  8.320000e+001 -1.970000e+001  8.530000e+001
      vertex  8.320000e+001 -1.050000e+002  8.530000e+001
    endloop
  endfacet
  facet normal  0.000000e+000  0.000000e+000 -1.000000e+000
    outer loop
      vertex  8.320000e+001  1.970000e+001  8.530000e+001
      vertex -7.206446e+001  1.970000e+001  8.530000e+001
      vertex  8.320000e+001  1.050000e+002  8.530000e+001
    endloop
  endfacet
  facet normal  -0.000000e+000  0.000000e+000 -9.999999e-001
    outer loop
      vertex  8.320000e+001  1.050000e+002  8.530000e+001
      vertex -7.206446e+001  1.970000e+001  8.530000e+001
      vertex -8.420000e+001  1.050000e+002  8.530000e+001
    endloop
  endfacet
  facet normal  7.875084e-001  6.163039e-001  0.000000e+000
    outer loop
      vertex -7.206446e+001  1.970000e+001  8.530000e+001
      vertex -7.206446e+001  1.970000e+001  8.830000e+001
      vertex -7.112479e+001  1.849930e+001  8.530000e+001
    endloop
  endfacet
  facet normal  7.875084e-001  6.163039e-001  -0.000000e+000
    outer loop
      vertex -7.112479e+001  1.849930e+001  8.530000e+001
      vertex -7.206446e+001  1.970000e+001  8.830000e+001
      vertex -7.112479e+001  1.849930e+001  8.830000e+001
    endloop
  endfacet
  facet normal  8.168587e-001  5.768378e-001  0.000000e+000
    outer loop
      vertex -7.112479e+001  1.849930e+001  8.530000e+001
      vertex -7.112479e+001  1.849930e+001  8.830000e+001
      vertex -7.024530e+001  1.725385e+001  8.530000e+001
    endloop
  endfacet
  facet normal  8.168587e-001  5.768378e-001  -0.000000e+000
    outer loop
      vertex -7.024530e+001  1.725385e+001  8.530000e+001
      vertex -7.112479e+001  1.849930e+001  8.830000e+001
      vertex -7.024530e+001  1.725385e+001  8.830000e+001
    endloop
  endfacet
  facet normal  8.442332e-001  5.359760e-001  0.000000e+000
    outer loop
      vertex -7.024530e+001  1.725385e+001  8.530000e+001
      vertex -7.024530e+001  1.725385e+001  8.830000e+001
      vertex -6.942811e+001  1.596667e+001  8.530000e+001
    endloop
  endfacet
  facet normal  8.442332e-001  5.359760e-001  -0.000000e+000
    outer loop
      vertex -6.942811e+001  1.596667e+001  8.530000e+001
      vertex -7.024530e+001  1.725385e+001  8.830000e+001
      vertex -6.942811e+001  1.596667e+001  8.830000e+001
    endloop
  endfacet
  facet normal  8.695631e-001  4.938219e-001  0.000000e+000
    outer loop
      vertex -6.942811e+001  1.596667e+001  8.530000e+001
      vertex -6.942811e+001  1.596667e+001  8.830000e+001
      vertex -6.867519e+001  1.464086e+001  8.530000e+001
    endloop
  endfacet
  facet normal  8.695631e-001  4.938219e-001  -0.000000e+000
    outer loop
      vertex -6.867519e+001  1.464086e+001  8.530000e+001
      vertex -6.942811e+001  1.596667e+001  8.830000e+001
      vertex -6.867519e+001  1.464086e+001  8.830000e+001
    endloop
  endfacet
  facet normal  8.927945e-001  4.504642e-001  0.000000e+000
    outer loop
      vertex -6.867519e+001  1.464086e+001  8.530000e+001
      vertex -6.867519e+001  1.464086e+001  8.830000e+001
      vertex -6.798837e+001  1.327963e+001  8.530000e+001
    endloop
  endfacet
  facet normal  8.927945e-001  4.504642e-001  -0.000000e+000
    outer loop
      vertex -6.798837e+001  1.327963e+001  8.530000e+001
      vertex -6.867519e+001  1.464086e+001  8.830000e+001
      vertex -6.798837e+001  1.327963e+001  8.830000e+001
    endloop
  endfacet
  facet normal  9.138624e-001  4.060240e-001  0.000000e+000
    outer loop
      vertex -6.798837e+001  1.327963e+001  8.530000e+001
      vertex -6.798837e+001  1.327963e+001  8.830000e+001
      vertex -6.736932e+001  1.188629e+001  8.530000e+001
    endloop
  endfacet
  facet normal  9.138624e-001  4.060240e-001  -0.000000e+000
    outer loop
      vertex -6.736932e+001  1.188629e+001  8.530000e+001
      vertex -6.798837e+001  1.327963e+001  8.830000e+001
      vertex -6.736932e+001  1.188629e+001  8.830000e+001
    endloop
  endfacet
  facet normal  9.327195e-001  3.606027e-001  0.000000e+000
    outer loop
      vertex -6.736932e+001  1.188629e+001  8.530000e+001
      vertex -6.736932e+001  1.188629e+001  8.830000e+001
      vertex -6.681951e+001  1.046418e+001  8.530000e+001
    endloop
  endfacet
  facet normal  9.327195e-001  3.606027e-001  -0.000000e+000
    outer loop
      vertex -6.681951e+001  1.046418e+001  8.530000e+001
      vertex -6.736932e+001  1.188629e+001  8.830000e+001
      vertex -6.681951e+001  1.046418e+001  8.830000e+001
    endloop
  endfacet
  facet normal  9.493231e-001  3.143018e-001  0.000000e+000
    outer loop
      vertex -6.681951e+001  1.046418e+001  8.530000e+001
      vertex -6.681951e+001  1.046418e+001  8.830000e+001
      vertex -6.634030e+001  9.016770e+000  8.530000e+001
    endloop
  endfacet
  facet normal  9.493231e-001  3.143018e-001  -0.000000e+000
    outer loop
      vertex -6.634030e+001  9.016770e+000  8.530000e+001
      vertex -6.681951e+001  1.046418e+001  8.830000e+001
      vertex -6.634030e+001  9.016770e+000  8.830000e+001
    endloop
  endfacet
  facet normal  9.636273e-001  2.672497e-001  0.000000e+000
    outer loop
      vertex -6.634030e+001  9.016770e+000  8.530000e+001
      vertex -6.634030e+001  9.016770e+000  8.830000e+001
      vertex -6.593283e+001  7.547545e+000  8.530000e+001
    endloop
  endfacet
  facet normal  9.636273e-001  2.672497e-001  -0.000000e+000
    outer loop
      vertex -6.593283e+001  7.547545e+000  8.530000e+001
      vertex -6.634030e+001  9.016770e+000  8.830000e+001
      vertex -6.593283e+001  7.547545e+000  8.830000e+001
    endloop
  endfacet
  facet normal  9.756029e-001  2.195424e-001  0.000000e+000
    outer loop
      vertex -6.593283e+001  7.547545e+000  8.530000e+001
      vertex -6.593283e+001  7.547545e+000  8.830000e+001
      vertex -6.559810e+001  6.060062e+000  8.530000e+001
    endloop
  endfacet
  facet normal  9.756029e-001  2.195424e-001  -0.000000e+000
    outer loop
      vertex -6.559810e+001  6.060062e+000  8.530000e+001
      vertex -6.593283e+001  7.547545e+000  8.830000e+001
      vertex -6.559810e+001  6.060062e+000  8.830000e+001
    endloop
  endfacet
  facet normal  9.852173e-001  1.713095e-001  0.000000e+000
    outer loop
      vertex -6.559810e+001  6.060062e+000  8.530000e+001
      vertex -6.559810e+001  6.060062e+000  8.830000e+001
      vertex -6.533691e+001  4.557920e+000  8.530000e+001
    endloop
  endfacet
  facet normal  9.852173e-001  1.713095e-001  -0.000000e+000
    outer loop
      vertex -6.533691e+001  4.557920e+000  8.530000e+001
      vertex -6.559810e+001  6.060062e+000  8.830000e+001
      vertex -6.533691e+001  4.557920e+000  8.830000e+001
    endloop
  endfacet
  facet normal  9.924486e-001  1.226613e-001  0.000000e+000
    outer loop
      vertex -6.533691e+001  4.557920e+000  8.530000e+001
      vertex -6.533691e+001  4.557920e+000  8.830000e+001
      vertex -6.514989e+001  3.044753e+000  8.530000e+001
    endloop
  endfacet
  facet normal  9.924486e-001  1.226613e-001  -0.000000e+000
    outer loop
      vertex -6.514989e+001  3.044753e+000  8.530000e+001
      vertex -6.533691e+001  4.557920e+000  8.830000e+001
      vertex -6.514989e+001  3.044753e+000  8.830000e+001
    endloop
  endfacet
  facet normal  9.972791e-001  7.371785e-002  0.000000e+000
    outer loop
      vertex -6.514989e+001  3.044753e+000  8.530000e+001
      vertex -6.514989e+001  3.044753e+000  8.830000e+001
      vertex -6.503749e+001  1.524220e+000  8.530000e+001
    endloop
  endfacet
  facet normal  9.972791e-001  7.371785e-002  -0.000000e+000
    outer loop
      vertex -6.503749e+001  1.524220e+000  8.530000e+001
      vertex -6.514989e+001  3.044753e+000  8.830000e+001
      vertex -6.503749e+001  1.524220e+000  8.830000e+001
    endloop
  endfacet
  facet normal  9.996976e-001  2.458931e-002  0.000000e+000
    outer loop
      vertex -6.503749e+001  1.524220e+000  8.530000e+001
      vertex -6.503749e+001  1.524220e+000  8.830000e+001
      vertex -6.500000e+001 -2.263740e-015  8.530000e+001
    endloop
  endfacet
  facet normal  9.996976e-001  2.458931e-002  -0.000000e+000
    outer loop
      vertex -6.500000e+001 -2.263740e-015  8.530000e+001
      vertex -6.503749e+001  1.524220e+000  8.830000e+001
      vertex -6.500000e+001 -2.263740e-015  8.830000e+001
    endloop
  endfacet
  facet normal  9.996976e-001 -2.458931e-002  0.000000e+000
    outer loop
      vertex -6.500000e+001 -2.263740e-015  8.530000e+001
      vertex -6.500000e+001 -2.263740e-015  8.830000e+001
      vertex -6.503749e+001 -1.524220e+000  8.530000e+001
    endloop
  endfacet
  facet normal  9.996976e-001 -2.458931e-002  0.000000e+000
    outer loop
      vertex -6.503749e+001 -1.524220e+000  8.530000e+001
      vertex -6.500000e+001 -2.263740e-015  8.830000e+001
      vertex -6.503749e+001 -1.524220e+000  8.830000e+001
    endloop
  endfacet
  facet normal  9.972791e-001 -7.371785e-002  0.000000e+000
    outer loop
      vertex -6.503749e+001 -1.524220e+000  8.530000e+001
      vertex -6.503749e+001 -1.524220e+000  8.830000e+001
      vertex -6.514989e+001 -3.044753e+000  8.530000e+001
    endloop
  endfacet
  facet normal  9.972791e-001 -7.371785e-002  0.000000e+000
    outer loop
      vertex -6.514989e+001 -3.044753e+000  8.530000e+001
      vertex -6.503749e+001 -1.524220e+000  8.830000e+001
      vertex -6.514989e+001 -3.044753e+000  8.830000e+001
    endloop
  endfacet
  facet normal  9.924486e-001 -1.226613e-001  0.000000e+000
    outer loop
      vertex -6.514989e+001 -3.044753e+000  8.530000e+001
      vertex -6.514989e+001 -3.044753e+000  8.830000e+001
      vertex -6.533691e+001 -4.557920e+000  8.530000e+001
    endloop
  endfacet
  facet normal  9.924486e-001 -1.226613e-001  0.000000e+000
    outer loop
      vertex -6.533691e+001 -4.557920e+000  8.530000e+001
      vertex -6.514989e+001 -3.044753e+000  8.830000e+001
      vertex -6.533691e+001 -4.557920e+000  8.830000e+001
    endloop
  endfacet
  facet normal  9.852173e-001 -1.713095e-001  0.000000e+000
    outer loop
      vertex -6.533691e+001 -4.557920e+000  8.530000e+001
      vertex -6.533691e+001 -4.557920e+000  8.830000e+001
      vertex -6.559810e+001 -6.060062e+000  8.530000e+001
    endloop
  endfacet
  facet normal  9.852173e-001 -1.713095e-001  0.000000e+000
    outer loop
      vertex -6.559810e+001 -6.060062e+000  8.530000e+001
      vertex -6.533691e+001 -4.557920e+000  8.830000e+001
      vertex -6.559810e+001 -6.060062e+000  8.830000e+001
    endloop
  endfacet
  facet normal  9.756029e-001 -2.195424e-001  0.000000e+000
    outer loop
      vertex -6.559810e+001 -6.060062e+000  8.530000e+001
      vertex -6.559810e+001 -6.060062e+000  8.830000e+001
      vertex -6.593283e+001 -7.547545e+000  8.530000e+001
    endloop
  endfacet
  facet normal  9.756029e-001 -2.195424e-001  0.000000e+000
    outer loop
      vertex -6.593283e+001 -7.547545e+000  8.530000e+001
      vertex -6.559810e+001 -6.060062e+000  8.830000e+001
      vertex -6.593283e+001 -7.547545e+000  8.830000e+001
    endloop
  endfacet
  facet normal  9.636273e-001 -2.672497e-001  0.000000e+000
    outer loop
      vertex -6.593283e+001 -7.547545e+000  8.530000e+001
      vertex -6.593283e+001 -7.547545e+000  8.830000e+001
      vertex -6.634030e+001 -9.016770e+000  8.530000e+001
    endloop
  endfacet
  facet normal  9.636273e-001 -2.672497e-001  0.000000e+000
    outer loop
      vertex -6.634030e+001 -9.016770e+000  8.530000e+001
      vertex -6.593283e+001 -7.547545e+000  8.830000e+001
      vertex -6.634030e+001 -9.016770e+000  8.830000e+001
    endloop
  endfacet
  facet normal  9.493231e-001 -3.143018e-001  0.000000e+000
    outer loop
      vertex -6.634030e+001 -9.016770e+000  8.530000e+001
      vertex -6.634030e+001 -9.016770e+000  8.830000e+001
      vertex -6.681951e+001 -1.046418e+001  8.530000e+001
    endloop
  endfacet
  facet normal  9.493231e-001 -3.143018e-001  0.000000e+000
    outer loop
      vertex -6.681951e+001 -1.046418e+001  8.530000e+001
      vertex -6.634030e+001 -9.016770e+000  8.830000e+001
      vertex -6.681951e+001 -1.046418e+001  8.830000e+001
    endloop
  endfacet
  facet normal  9.327195e-001 -3.606027e-001  0.000000e+000
    outer loop
      vertex -6.681951e+001 -1.046418e+001  8.530000e+001
      vertex -6.681951e+001 -1.046418e+001  8.830000e+001
      vertex -6.736932e+001 -1.188629e+001  8.530000e+001
    endloop
  endfacet
  facet normal  9.327195e-001 -3.606027e-001  0.000000e+000
    outer loop
      vertex -6.736932e+001 -1.188629e+001  8.530000e+001
      vertex -6.681951e+001 -1.046418e+001  8.830000e+001
      vertex -6.736932e+001 -1.188629e+001  8.830000e+001
    endloop
  endfacet
  facet normal  9.138624e-001 -4.060240e-001  0.000000e+000
    outer loop
      vertex -6.736932e+001 -1.188629e+001  8.530000e+001
      vertex -6.736932e+001 -1.188629e+001  8.830000e+001
      vertex -6.798837e+001 -1.327963e+001  8.530000e+001
    endloop
  endfacet
  facet normal  9.138624e-001 -4.060240e-001  0.000000e+000
    outer loop
      vertex -6.798837e+001 -1.327963e+001  8.530000e+001
      vertex -6.736932e+001 -1.188629e+001  8.830000e+001
      vertex -6.798837e+001 -1.327963e+001  8.830000e+001
    endloop
  endfacet
  facet normal  8.927945e-001 -4.504642e-001  0.000000e+000
    outer loop
      vertex -6.798837e+001 -1.327963e+001  8.530000e+001
      vertex -6.798837e+001 -1.327963e+001  8.830000e+001
      vertex -6.867519e+001 -1.464086e+001  8.530000e+001
    endloop
  endfacet
  facet normal  8.927945e-001 -4.504642e-001  0.000000e+000
    outer loop
      vertex -6.867519e+001 -1.464086e+001  8.530000e+001
      vertex -6.798837e+001 -1.327963e+001  8.830000e+001
      vertex -6.867519e+001 -1.464086e+001  8.830000e+001
    endloop
  endfacet
  facet normal  8.695631e-001 -4.938219e-001  0.000000e+000
    outer loop
      vertex -6.867519e+001 -1.464086e+001  8.530000e+001
      vertex -6.867519e+001 -1.464086e+001  8.830000e+001
      vertex -6.942811e+001 -1.596667e+001  8.530000e+001
    endloop
  endfacet
  facet normal  8.695631e-001 -4.938219e-001  0.000000e+000
    outer loop
      vertex -6.942811e+001 -1.596667e+001  8.530000e+001
      vertex -6.867519e+001 -1.464086e+001  8.830000e+001
      vertex -6.942811e+001 -1.596667e+001  8.830000e+001
    endloop
  endfacet
  facet normal  8.442332e-001 -5.359760e-001  0.000000e+000
    outer loop
      vertex -6.942811e+001 -1.596667e+001  8.530000e+001
      vertex -6.942811e+001 -1.596667e+001  8.830000e+001
      vertex -7.024530e+001 -1.725385e+001  8.530000e+001
    endloop
  endfacet
  facet normal  8.442332e-001 -5.359760e-001  0.000000e+000
    outer loop
      vertex -7.024530e+001 -1.725385e+001  8.530000e+001
      vertex -6.942811e+001 -1.596667e+001  8.830000e+001
      vertex -7.024530e+001 -1.725385e+001  8.830000e+001
    endloop
  endfacet
  facet normal  8.168587e-001 -5.768378e-001  0.000000e+000
    outer loop
      vertex -7.024530e+001 -1.725385e+001  8.530000e+001
      vertex -7.024530e+001 -1.725385e+001  8.830000e+001
      vertex -7.112479e+001 -1.849930e+001  8.530000e+001
    endloop
  endfacet
  facet normal  8.168587e-001 -5.768378e-001  0.000000e+000
    outer loop
      vertex -7.112479e+001 -1.849930e+001  8.530000e+001
      vertex -7.024530e+001 -1.725385e+001  8.830000e+001
      vertex -7.112479e+001 -1.849930e+001  8.830000e+001
    endloop
  endfacet
  facet normal  7.875084e-001 -6.163039e-001  0.000000e+000
    outer loop
      vertex -7.112479e+001 -1.849930e+001  8.530000e+001
      vertex -7.112479e+001 -1.849930e+001  8.830000e+001
      vertex -7.206446e+001 -1.970000e+001  8.530000e+001
    endloop
  endfacet
  facet normal  7.875084e-001 -6.163039e-001  0.000000e+000
    outer loop
      vertex -7.206446e+001 -1.970000e+001  8.530000e+001
      vertex -7.112479e+001 -1.849930e+001  8.830000e+001
      vertex -7.206446e+001 -1.970000e+001  8.830000e+001
    endloop
  endfacet
  facet normal  0.000000e+000  1.000000e+000  0.000000e+000
    outer loop
      vertex -7.206446e+001 -1.970000e+001  8.830000e+001
      vertex  8.320000e+001 -1.970000e+001  8.830000e+001
      vertex -7.206446e+001 -1.970000e+001  8.530000e+001
    endloop
  endfacet
  facet normal  0.000000e+000  1.000000e+000  0.000000e+000
    outer loop
      vertex -7.206446e+001 -1.970000e+001  8.530000e+001
      vertex  8.320000e+001 -1.970000e+001  8.830000e+001
      vertex  8.320000e+001 -1.970000e+001  8.530000e+001
    endloop
  endfacet
  facet normal  1.000000e+000  -0.000000e+000  0.000000e+000
    outer loop
      vertex  8.320000e+001 -1.970000e+001  8.830000e+001
      vertex  8.320000e+001 -1.050000e+002  8.830000e+001
      vertex  8.320000e+001 -1.970000e+001  8.530000e+001
    endloop
  endfacet
  facet normal  1.000000e+000  0.000000e+000  0.000000e+000
    outer loop
      vertex  8.320000e+001 -1.970000e+001  8.530000e+001
      vertex  8.320000e+001 -1.050000e+002  8.830000e+001
      vertex  8.320000e+001 -1.050000e+002  8.530000e+001
    endloop
  endfacet
  facet normal  0.000000e+000 -1.000000e+000  0.000000e+000
    outer loop
      vertex -8.420000e+001 -1.050000e+002  8.830000e+001
      vertex -8.420000e+001 -1.050000e+002  8.530000e+001
      vertex  8.320000e+001 -1.050000e+002  8.830000e+001
    endloop
  endfacet
  facet normal  0.000000e+000 -1.000000e+000  -0.000000e+000
    outer loop
      vertex  8.320000e+001 -1.050000e+002  8.830000e+001
      vertex -8.420000e+001 -1.050000e+002  8.530000e+001
      vertex  8.320000e+001 -1.050000e+002  8.530000e+001
    endloop
  endfacet
  facet normal -1.000000e+000  0.000000e+000  0.000000e+000
    outer loop
      vertex -8.420000e+001  1.050000e+002  8.830000e+001
      vertex -8.420000e+001  1.050000e+002  8.530000e+001
      vertex -8.420000e+001 -1.050000e+002  8.830000e+001
    endloop
  endfacet
  facet normal -1.000000e+000  0.000000e+000  0.000000e+000
    outer loop
      vertex -8.420000e+001 -1.050000e+002  8.830000e+001
      vertex -8.420000e+001  1.050000e+002  8.530000e+001
      vertex -8.420000e+001 -1.050000e+002  8.530000e+001
    endloop
  endfacet
  facet normal  0.000000e+000  1.000000e+000  0.000000e+000
    outer loop
      vertex -8.420000e+001  1.050000e+002  8.830000e+001
      vertex  8.320000e+001  1.050000e+002  8.830000e+001
      vertex -8.420000e+001  1.050000e+002  8.530000e+001
    endloop
  endfacet
  facet normal  0.000000e+000  1.000000e+000  0.000000e+000
    outer loop
      vertex -8.420000e+001  1.050000e+002  8.530000e+001
      vertex  8.320000e+001  1.050000e+002  8.830000e+001
      vertex  8.320000e+001  1.050000e+002  8.530000e+001
    endloop
  endfacet
  facet normal  1.000000e+000  -0.000000e+000  0.000000e+000
    outer loop
      vertex  8.320000e+001  1.050000e+002  8.830000e+001
      vertex  8.320000e+001  1.970000e+001  8.830000e+001
      vertex  8.320000e+001  1.050000e+002  8.530000e+001
    endloop
  endfacet
  facet normal  1.000000e+000  0.000000e+000  0.000000e+000
    outer loop
      vertex  8.320000e+001  1.050000e+002  8.530000e+001
      vertex  8.320000e+001  1.970000e+001  8.830000e+001
      vertex  8.320000e+001  1.970000e+001  8.530000e+001
    endloop
  endfacet
  facet normal  0.000000e+000 -1.000000e+000  0.000000e+000
    outer loop
      vertex -7.206446e+001  1.970000e+001  8.830000e+001
      vertex -7.206446e+001  1.970000e+001  8.530000e+001
      vertex  8.320000e+001  1.970000e+001  8.830000e+001
    endloop
  endfacet
  facet normal  0.000000e+000 -1.000000e+000  -0.000000e+000
    outer loop
      vertex  8.320000e+001  1.970000e+001  8.830000e+001
      vertex -7.206446e+001  1.970000e+001  8.530000e+001
      vertex  8.320000e+001  1.970000e+001  8.530000e+001
    endloop
  endfacet
endsolid CATIA STL
