<?xml version="1.0" encoding="UTF-8" standalone="no"?>
<!-- Created with Inkscape (http://www.inkscape.org/) -->

<svg
   xmlns:dc="http://purl.org/dc/elements/1.1/"
   xmlns:cc="http://creativecommons.org/ns#"
   xmlns:rdf="http://www.w3.org/1999/02/22-rdf-syntax-ns#"
   xmlns:svg="http://www.w3.org/2000/svg"
   xmlns="http://www.w3.org/2000/svg"
   xmlns:sodipodi="http://sodipodi.sourceforge.net/DTD/sodipodi-0.dtd"
   xmlns:inkscape="http://www.inkscape.org/namespaces/inkscape"
   version="1.1"
   id="svg2"
   width="315.51999"
   height="423.35999"
   viewBox="0 0 315.51999 423.35999"
   sodipodi:docname="out.svg"
   inkscape:version="0.92.5 (0.92.5+68)">
  <metadata
     id="metadata8">
    <rdf:RDF>
      <cc:Work
         rdf:about="">
        <dc:format>image/svg+xml</dc:format>
        <dc:type
           rdf:resource="http://purl.org/dc/dcmitype/StillImage" />
        <dc:title></dc:title>
      </cc:Work>
    </rdf:RDF>
  </metadata>
  <defs
     id="defs6" />
  <sodipodi:namedview
     pagecolor="#ffffff"
     bordercolor="#666666"
     borderopacity="1"
     objecttolerance="10"
     gridtolerance="10"
     guidetolerance="10"
     inkscape:pageopacity="0"
     inkscape:pageshadow="2"
     inkscape:window-width="2525"
     inkscape:window-height="1056"
     id="namedview4"
     showgrid="false"
     inkscape:zoom="1.1148904"
     inkscape:cx="267.13818"
     inkscape:cy="126.00228"
     inkscape:window-x="35"
     inkscape:window-y="24"
     inkscape:window-maximized="1"
     inkscape:current-layer="svg2" />
  <path
     inkscape:connector-curvature="0"
     id="path82"
     d="m 146.31532,423.29054 c -4.65484,-2.95203 -5.26316,-5.21693 -5.62781,-20.9536 -0.294,-12.68778 -0.10813,-15.99709 1.03927,-18.50333 2.05195,-4.48204 6.77496,-6.93667 13.34711,-6.93667 7.8105,0 12.56987,3.27303 13.74557,9.45286 0.19955,1.04893 0.45099,3.97271 0.55875,6.49728 0.16021,3.75316 0.11386,4.64208 -0.2542,4.87511 -0.60582,0.38352 -11.40109,0.37769 -11.63841,-0.006 -0.10233,-0.16557 -0.2786,-2.85987 -0.39171,-5.98736 -0.19383,-5.35904 -0.24784,-5.72851 -0.93829,-6.41898 -0.93787,-0.93785 -1.55849,-0.92493 -2.53626,0.0528 l -0.78545,0.78548 0.0265,8.09452 c 0.0146,4.452 0.12447,11.2408 0.24417,15.08621 0.21249,6.82605 0.23543,7.00605 0.96892,7.6 0.89503,0.72474 1.61634,0.77021 2.45923,0.15498 0.56017,-0.4089 0.63687,-0.98224 0.78116,-5.84 l 0.16,-5.38663 5.72989,-0.28704 c 7.18746,-0.36006 6.73351,-0.72409 6.44366,5.16711 -0.34884,7.09017 -1.39346,9.50896 -5.245,12.1447 l -2.00959,1.37523 h -7.27683 -7.27683 l -1.52387,-0.9664 z m 37.57621,-1.00093 c -0.55967,-1.32294 -7.34565,-44.89376 -7.04099,-45.20816 0.302,-0.31164 9.5922,-1.8438 14.6408,-2.41459 7.39058,-0.83555 10.98658,1.30253 12.35971,7.3487 0.66951,2.948 1.78317,10.28884 1.78105,11.74 -0.007,4.48183 -3.03859,7.13642 -9.42259,8.2497 -1.56591,0.27309 -2.9176,0.56698 -3.00375,0.65312 -0.0861,0.0862 0.46593,4.09731 1.22683,8.9137 0.7609,4.81638 1.30511,8.96124 1.20935,9.21078 -0.12109,0.31555 -1.67131,0.67907 -5.09108,1.19376 -2.70434,0.40701 -5.23736,0.81331 -5.62895,0.90285 -0.53057,0.12134 -0.7931,-0.0291 -1.03038,-0.58986 z m 10.62235,-28.78909 c 0.308,-0.37097 0.55954,-1.12652 0.55898,-1.67904 -0.001,-1.39987 -0.90512,-6.57558 -1.33947,-7.67145 -0.49422,-1.24698 -2.32552,-1.89779 -3.40851,-1.21139 -0.3531,0.2238 -0.28028,1.19955 0.41163,5.5151 0.46235,2.88378 0.90962,5.44077 0.99393,5.68221 0.22085,0.63248 2.08387,0.20717 2.78344,-0.63543 z m -86.07897,27.11264 c -4.61942,-0.74038 -8.534602,-1.48342 -8.700392,-1.6512 -0.36105,-0.36534 6.691402,-45.06505 7.188532,-45.56217 0.3576,-0.3576 11.90061,1.39878 16.75177,2.54896 6.50711,1.54278 9.30889,4.37837 9.31594,9.42825 0.005,3.36048 -3.84797,27.73968 -4.98073,31.51748 -0.64985,2.16726 -2.59578,4.24707 -4.4572,4.76384 -2.26538,0.62889 -6.49973,0.33616 -15.11792,-1.04516 z m 7.46205,-7.89536 c 0.70062,-0.58147 1.00111,-1.99452 2.87158,-13.50326 2.26512,-13.93702 2.30025,-14.28323 1.54213,-15.19664 -0.82698,-0.99638 -2.5503,-1.31405 -2.79118,-0.51453 -0.44427,1.47463 -4.6847,29.09437 -4.52908,29.49991 0.20167,0.52553 2.16123,0.33308 2.90655,-0.28548 z m 37.41693,-41.76883 c -6.06163,-0.36374 -11.52329,-0.89414 -16.43906,-1.59644 C 95.687438,363.46808 58.471778,341.44869 33.338758,308.09337 8.7136881,275.41216 -2.1063819,234.41902 3.1017881,193.53695 c 3.3651,-26.41478 13.5890399,-51.80184 29.5828399,-73.45712 8.62498,-11.67806 20.75191,-23.811503 32.61447,-32.631983 37.091882,-27.5799 85.040632,-37.52072 130.414782,-27.03784 21.16511,4.88983 41.60265,14.37604 58.8708,27.32527 7.54296,5.6564 16.8423,14.071163 17.95012,16.242673 1.39883,2.74193 0.17597,6.36163 -2.64503,7.8294 -1.12462,0.58514 -4.01133,0.57322 -5.15109,-0.0213 -0.49236,-0.25682 -2.43636,-1.8973 -4.32,-3.64552 -7.14473,-6.6311 -13.54274,-11.671903 -20.8648,-16.438753 -40.04757,-26.07203 -91.14481,-30.78288 -135.81435,-12.52123 -1.9501,0.79723 -5.993632,2.65415 -8.985632,4.12649 -41.15041,20.249763 -70.49209,59.088063 -78.68349,104.149913 -1.20153,6.60979 -1.76253,11.56941 -2.17586,19.23613 -1.31393,24.37152 4.04872,49.89166 15.14056,72.05198 7.42321,14.8308 16.34529,26.9377 28.84633,39.14332 8.56851,8.36603 16.69114,14.63864 26.63246,20.56671 24.823652,14.80243 53.384492,21.95107 82.030162,20.53177 35.2404,-1.74601 66.74479,-14.92269 92.82317,-38.82319 2.56904,-2.35449 5.00376,-4.45899 5.41049,-4.67667 0.40672,-0.21767 1.52755,-0.39577 2.49072,-0.39577 4.41716,0 7.11803,4.19123 5.28784,8.20571 -0.95091,2.08579 -9.67959,10.04535 -17.40337,15.86989 -23.46244,17.69312 -50.97193,28.31536 -80.70872,31.16413 -4.93086,0.47235 -17.45365,0.83862 -21.1303,0.61801 z m -3.2,-22.85628 c -32.85631,-2.39898 -62.355312,-15.79108 -85.279992,-38.71575 -29.20603,-29.20603 -43.00631,-69.63633 -37.75335,-110.60498 3.70563,-28.90084 16.88225,-55.69247 37.59335,-76.43744 21.77079,-21.8064 49.944512,-35.228693 80.542622,-38.371453 21.48845,-2.20709 42.48751,0.69497 62.81736,8.68132 8.85784,3.47971 19.81682,9.412563 27.45194,14.861643 12.14568,8.66819 23.79479,20.32065 32.10168,32.11092 12.79852,18.1654 20.70266,39.05238 23.37148,61.76 0.70549,6.00259 0.80332,21.37898 0.17408,27.35999 -1.75334,16.66575 -6.1098,31.59101 -13.54348,46.4 -20.29739,40.43548 -59.60131,67.62675 -104.77626,72.48643 -5.52778,0.59466 -17.57225,0.84365 -22.69943,0.46932 z m 12.10103,-48.36365 c 1.04302,-0.54901 1.16871,-0.88258 1.17407,-3.11592 l 0.005,-2.04382 2.08,-2.32404 c 1.144,-1.27822 2.08,-2.49542 2.08,-2.7049 0,-0.28583 -0.69867,-0.31419 -2.8,-0.11366 -1.54,0.14697 -4.78,0.23528 -7.19999,0.19624 -2.58292,-0.0417 -4.4,0.0532 -4.4,0.2298 0,0.16544 0.89374,1.2562 1.98609,2.42393 l 1.9861,2.12315 0.1739,2.44049 c 0.15663,2.19799 0.2534,2.48057 0.97391,2.84385 1.00344,0.50592 3.02146,0.5289 3.94103,0.0449 z m 2.61896,-14.68131 c 5.09078,-0.57264 4.74653,-0.40282 7.02904,-3.46742 2.44947,-3.28876 5.14135,-7.65964 4.87895,-7.92205 -0.10283,-0.10283 -1.74419,0.17695 -3.64747,0.62172 -5.93933,1.38794 -8.04675,1.63309 -14.02051,1.63099 -5.76351,-0.002 -9.37802,-0.43184 -13.13178,-1.56156 -0.84561,-0.25449 -1.66329,-0.38496 -1.81705,-0.28993 -0.36812,0.22751 0.93098,2.45114 3.6207,6.19746 3.46133,4.82102 3.14296,4.54023 5.44312,4.80078 3.12956,0.35451 8.44517,0.34995 11.645,-0.01 z m 2.14952,-13.94916 c 1.95027,-0.28511 5.28846,-0.97879 7.41821,-1.54151 l 3.87227,-1.02314 1.07671,-2.85849 c 1.12401,-2.98411 1.76336,-7.82874 1.08822,-8.246 -0.17582,-0.10866 -1.52686,0.0177 -3.0023,0.28075 -11.32628,2.01948 -22.98967,2.16751 -32.92262,0.41783 -2.024,-0.35652 -3.896,-0.67136 -4.16,-0.69965 -0.82132,-0.088 -0.54786,4.17718 0.46806,7.30022 1.42234,4.37247 1.3953,4.34732 5.80024,5.39463 2.09643,0.49844 4.6037,1.02047 5.5717,1.16007 3.18016,0.45863 11.06218,0.36018 14.78951,-0.18471 z m 5.21048,-16.90622 c 4.51727,-0.63791 7.21476,-1.15306 7.92,-1.5125 0.50825,-0.25904 0.56,-0.94981 0.56,-7.47416 0,-6.63349 -0.0433,-7.18867 -0.56,-7.1877 -0.308,6.4e-4 -2.792,0.24349 -5.52,0.53979 -6.88208,0.74751 -24.35481,0.75592 -30.21659,0.0145 -2.27513,-0.28775 -4.25513,-0.44993 -4.4,-0.36039 -0.45571,0.28164 -0.32539,14.07543 0.1366,14.45723 0.67956,0.56161 4.49326,1.24727 11.76,2.11431 2.53738,0.30275 16.96159,-0.11686 20.31999,-0.59112 z m -58.75884,-10.27041 c 6.61079,-1.85625 12.11569,-3.53045 12.23311,-3.72044 0.11742,-0.18998 2.53374,-7.7088 5.36961,-16.70848 3.89203,-12.35142 5.15613,-16.76943 5.15613,-18.02067 0,-0.9117 -0.11888,-1.7311 -0.26417,-1.8209 -0.14529,-0.0898 -6.14049,4.11371 -13.32265,9.34112 l -13.05849,9.50437 -4.59225,12 c -2.52575,6.6 -4.59455,12.18 -4.59735,12.4 -0.003,0.22 0.23376,0.4 0.52568,0.4 0.29192,0 5.93958,-1.51875 12.55038,-3.375 z m 106.91884,3.24506 c 0,-0.37074 -9.0623,-23.8063 -9.4174,-24.35389 -0.34443,-0.53111 -22.63176,-16.9906 -25.5426,-18.86354 l -0.88,-0.56623 0.005,2.1968 c 0.005,1.94023 0.59928,4.07907 5.09228,18.31308 2.79793,8.86395 5.22311,16.25225 5.3893,16.41843 0.16618,0.16618 5.54266,1.78981 11.94772,3.60805 10.37714,2.94581 13.40558,3.67941 13.40558,3.2473 z m -44.70191,-12.15318 c 2.42995,-0.2758 4.55395,-0.58543 4.72,-0.68805 0.18428,-0.11389 0.30191,-8.40914 0.30191,-21.29008 v -21.10348 l -20.4,0.0824 -20.39999,0.0824 -0.0823,21.02751 c -0.0774,19.78193 -0.049,21.04496 0.48,21.32222 0.30926,0.16208 2.2903,0.45854 4.4023,0.65879 2.112,0.20025 4.344,0.41905 4.96,0.48621 2.86858,0.31279 21.89399,-0.10976 26.01808,-0.57786 z m -16.53493,-15.9967 c -6.17036,-6.64192 -13.53581,-14.73973 -13.74233,-15.10876 -0.6443,-1.15129 0.11221,-1.66806 6.7515,-4.61193 3.64522,-1.61629 7.13617,-3.01212 7.75766,-3.10184 0.95374,-0.13769 2.17355,0.34191 7.82052,3.07478 6.72963,3.25684 7.84949,3.92916 7.84949,4.71251 0,0.40955 -11.24572,13.43091 -13.15757,15.23506 -1.23013,1.16085 -2.06231,1.11014 -3.27927,-0.19982 z m 6.67684,-8.33765 c 2.464,-2.86693 4.51995,-5.41447 4.56876,-5.6612 0.0581,-0.2937 -1.6739,-1.32443 -5.01574,-2.98492 l -5.10451,-2.53632 -5.0424,2.23439 c -2.77331,1.22891 -5.09051,2.37874 -5.14932,2.55518 -0.16927,0.50779 10.40558,11.97496 10.86185,11.77839 0.22075,-0.0951 2.41736,-2.51859 4.88136,-5.38552 z m -76.505222,12.4699 16.985232,-5.58758 14.08,-9.69242 14.08,-9.69242 0.0921,-2.96541 c 0.0683,-2.20105 -0.0142,-3.00015 -0.32,-3.1002 -0.43633,-0.14273 -71.484332,-5.91703 -73.723382,-5.99174 -0.91667,-0.0306 -2.40941,0.41736 -4.96,1.48844 -6.71153,2.81839 -7.86512,2.54753 11.62265,2.72891 17.17039,0.1598 17.1922,0.16085 17.89333,0.86222 0.91983,0.92013 0.91978,2.47551 -1.1e-4,3.39555 l -0.70209,0.70223 -21.67124,0.0953 c -16.29107,0.0716 -21.96938,-6.4e-4 -22.87217,-0.29153 -1.1305,-0.36411 -1.42118,-0.29441 -4.95631,1.18835 -2.19186,0.91935 -3.78595,1.77349 -3.8288,2.05153 -0.0461,0.29917 7.51164,6.03843 20.31631,15.42798 11.21436,8.22337 20.52238,14.95537 20.6845,14.96 0.16212,0.005 7.93812,-2.506 17.28,-5.57917 z m 178.579632,-9.45243 c 11.36839,-8.33079 20.27478,-15.06993 20.23559,-15.31154 -0.0413,-0.25453 -2.23572,-1.14365 -5.35,-2.16765 -5.07072,-1.66728 -5.31805,-1.71648 -6.24,-1.2413 -0.84196,0.43396 -3.46715,0.48409 -21.35125,0.40765 l -20.39124,-0.0872 -0.70209,-0.70223 c -0.91982,-0.92 -0.91991,-2.47541 -1.8e-4,-3.39555 0.69637,-0.69668 0.81368,-0.70349 14.85333,-0.86222 16.20765,-0.18325 15.73697,-0.002 7.11598,-2.73749 -2.85411,-0.90556 -5.31549,-1.50222 -6.08,-1.47384 -2.03556,0.0755 -64.59849,5.82846 -65.05663,5.98222 -0.30567,0.10258 -0.3883,0.90399 -0.32,3.1037 l 0.0921,2.96541 14.08,9.69255 14.08,9.69255 16.8,5.56421 c 9.24,3.06032 17.05399,5.53868 17.36441,5.50745 0.31042,-0.0312 9.70192,-6.75277 20.87,-14.93677 z M 177.3439,185.82378 c 1.19854,-1.32438 3.41753,-2.3608 5.40998,-2.52683 l 1.92,-0.16 -0.0276,-2.88 c -0.0501,-5.21284 -2.84784,-11.62147 -7.41952,-16.9953 -1.10395,-1.29764 -2.37676,-2.60151 -2.82847,-2.89749 -0.80436,-0.52703 -0.8377,-0.51719 -1.61602,0.47732 -0.94776,1.21101 -2.32326,1.36054 -3.32261,0.36119 -0.56623,-0.56623 -0.62623,-0.90211 -0.4459,-2.49602 l 0.20837,-1.84175 -1.2341,-0.55403 c -4.47836,-2.01051 -11.29971,-1.99262 -15.47409,0.0406 -1.10782,0.53957 -1.12,0.56795 -1.12,2.60904 0,1.88179 -0.0724,2.10456 -0.82217,2.52921 -1.08449,0.61424 -2.45622,0.25648 -2.92008,-0.76157 -0.19828,-0.43514 -0.53427,-0.79117 -0.74667,-0.79117 -0.73002,0 -5.16831,5.0064 -6.82536,7.699 -2.75404,4.47518 -4.7127,10.65829 -4.46619,14.09892 l 0.10046,1.40208 2.10734,0.18135 c 2.2122,0.19038 3.67627,0.87098 5.07389,2.35867 l 0.77033,0.81998 h 16.53462 c 16.39977,0 16.53959,-0.006 17.14383,-0.67317 z m -35.81434,-10.58697 c -1.77859,-2.82922 -2.13312,-3.52943 -2.11314,-4.17351 0.0285,-0.9206 2.29452,-4.56635 2.83814,-4.56635 0.22421,0 0.98093,1.04273 1.68161,2.31718 l 1.27397,2.31719 -1.23656,2.29896 c -0.6801,1.26442 -1.40358,2.35463 -1.60773,2.42268 -0.20415,0.068 -0.58048,-0.20922 -0.83629,-0.61615 z m 35.20386,-1.42204 c -0.64875,-1.16719 -1.17954,-2.33797 -1.17954,-2.60172 0,-0.70439 2.31767,-4.8761 2.709,-4.8761 0.32724,0 3.051,4.26338 3.051,4.77558 0,0.56672 -2.66687,4.82442 -3.02185,4.82442 -0.20849,0 -0.90986,-0.95498 -1.55861,-2.12218 z m -27.27089,-17.60391 c -0.30334,-1.91065 -0.74648,-3.78919 -0.98476,-4.17452 -0.47226,-0.76373 -9.23093,-7.61939 -9.73439,-7.61939 -1.1328,0 0.79093,1.73581 8.15678,7.36 0.73051,0.55778 0.91656,1.10271 1.44825,4.24191 0.6598,3.89552 0.85659,4.47497 1.35168,3.97988 0.20529,-0.20528 0.12306,-1.51644 -0.23756,-3.78788 z m 22.05734,3.48609 c 0.093,-0.308 0.40792,-2 0.69979,-3.76 0.29188,-1.76 0.6908,-3.3989 0.88649,-3.642 0.19569,-0.24309 2.33849,-1.9569 4.76177,-3.80844 2.42328,-1.85155 4.40596,-3.48015 4.40596,-3.61912 0,-0.13897 -0.13091,-0.33359 -0.29092,-0.43248 -0.32173,-0.19884 -9.92208,7.05935 -10.16105,7.6821 -0.28761,0.74948 -1.31354,7.66195 -1.17249,7.89994 0.25,0.42182 0.69593,0.25788 0.87045,-0.32 z m 134.19323,90.45781 c -1.69263,-0.89356 -2.88775,-2.81634 -2.92511,-4.70609 -0.0165,-0.83145 0.42825,-4.17573 0.98819,-7.43173 0.55994,-3.256 1.10623,-6.59345 1.21398,-7.41655 0.35745,-2.73066 2.43196,-4.83652 5.16886,-5.24694 2.1064,-0.31587 4.7269,1.06822 5.8001,3.06349 0.6961,1.29423 0.7556,1.69916 0.5875,4 -0.2472,3.38511 -2.0114,13.37794 -2.618,14.82989 -0.6221,1.48883 -1.3029,2.21948 -2.762,2.96417 -1.544,0.78801 -3.9003,0.76371 -5.45352,-0.0562 z m 3.87912,-41.24739 c -2.5892,-0.78313 -3.95187,-2.98488 -4.26444,-6.89042 -1.43823,-17.9705 -6.41173,-36.01557 -14.40553,-52.26668 -2.85604,-5.80624 -3.19191,-7.10478 -2.38801,-9.23249 1.61317,-4.26962 7.80193,-4.89862 10.3477,-1.05169 3.89069,5.87921 10.85418,23.53681 13.75178,34.87086 2.9566,11.56498 5.2908,27.74011 4.4216,30.64109 -0.9047,3.01968 -4.395,4.85731 -7.4631,3.92933 z M 266.43388,72.274797 c -4.29667,-1.67164 -5.61823,-2.31824 -5.67831,-2.77828 -0.0431,-0.32976 0.40938,-2.18357 1.00545,-4.11957 0.59607,-1.936 1.01145,-3.63992 0.92306,-3.78648 -0.23348,-0.38717 -2.91895,-1.49352 -3.62525,-1.49352 -0.45302,0 -1.03487,0.91067 -2.35123,3.68 -1.15116,2.4218 -1.92356,3.68 -2.25912,3.68 -0.28044,0 -3.02645,-0.95555 -6.10225,-2.12345 -3.80443,-1.44457 -5.59235,-2.27649 -5.59235,-2.60213 0,-0.683 23.08598,-42.992145 23.55736,-43.173031 0.55539,-0.213125 16.80796,6.044361 17.0002,6.545341 0.16405,0.42751 -9.94043,46.38843 -10.48094,47.67327 -0.1666,0.396 -0.41398,0.71022 -0.54976,0.69827 -0.13577,-0.0119 -2.76686,-1.00214 -5.84686,-2.20042 z m -0.28839,-20.49785 c 1.34868,-4.46321 4.45699,-16.09806 4.33365,-16.22141 -0.26539,-0.26539 -1.6875,2.20345 -5.22822,9.07639 -3.62531,7.03716 -3.60542,6.94177 -1.60293,7.68661 1.46605,0.54531 2.21837,0.38216 2.4975,-0.54159 z M 50.256218,70.659417 c -4.19222,-0.61519 -6.57864,-2.70736 -9.22756,-8.08978 -1.673,-3.39943 -8.63833,-21.18962 -9.49372,-24.24799 -1.52461,-5.45108 -0.55178,-9.44035 3.19653,-13.10807 3.81279,-3.730823 11.14605,-6.09347 15.8767,-5.115199 5.40406,1.117529 7.63637,3.609909 11.10858,12.402789 1.31008,3.31759 1.50414,4.06156 1.14701,4.39726 -0.4618,0.43409 -10.45698,4.31852 -11.11215,4.31852 -0.43901,0 -0.88167,-0.95856 -3.05815,-6.62228 -1.75786,-4.57439 -2.40546,-5.53772 -3.72279,-5.53772 -1.07205,0 -2.21677,0.98399 -2.21677,1.90551 0,0.81364 1.61066,5.26394 6.3246,17.47498 3.93676,10.19783 4.59352,11.73 5.44358,12.69951 0.60784,0.69325 1.62412,0.7178 2.56061,0.0619 1.08739,-0.76163 0.90557,-2.18698 -0.91876,-7.20272 -0.89648,-2.46476 -1.55908,-4.65637 -1.47242,-4.87026 0.20775,-0.51279 10.94969,-4.51594 11.52528,-4.29507 0.24503,0.094 1.13646,2.23538 1.98097,4.75857 1.29451,3.86771 1.54022,4.98935 1.5658,7.14762 0.0267,2.25609 -0.0923,2.8189 -1.00259,4.74082 -1.88644,3.98282 -6.04414,7.10779 -11.30149,8.4943 -2.98668,0.78767 -5.12754,0.99196 -7.20326,0.68735 z m 37.29494,-12.24247 c -0.59439,-1.38492 -11.54618,-45.798292 -11.45217,-46.442553 0.0821,-0.562768 0.88051,-0.844701 5.92906,-2.0937351 3.75553,-0.9291345 5.94342,-1.3330035 6.14083,-1.1335525 0.38982,0.3938455 11.924742,46.4834106 11.79809,47.1410606 -0.0669,0.34729 -1.67091,0.88648 -5.53363,1.86013 -2.99169,0.75409 -5.69453,1.37503 -6.0063,1.37986 -0.31178,0.005 -0.70592,-0.31521 -0.87588,-0.71121 z m 133.602722,-0.79026 c -2.52466,-0.35337 -18.86535,-3.94709 -19.12412,-4.20587 -0.30512,-0.30511 9.53592,-47.3214056 10.01333,-47.8394566 0.24073,-0.261217 4.1397,0.468651 11.95631,2.238157 13.51189,3.0587916 16.15446,5.9768226 14.41554,15.9181996 -0.57161,3.26788 -4.73217,22.79286 -5.4543,25.59635 -1.27045,4.93217 -2.74716,7.08716 -5.49903,8.02482 -1.36385,0.46471 -4.07773,0.57992 -6.30773,0.2678 z m -2.29109,-9.67032 c 1.1994,-0.45601 1.78865,-2.43933 4.52175,-15.21942 3.01402,-14.093729 3.06302,-14.470965 2.00729,-15.453607 -0.43349,-0.403485 -1.19905,-0.763485 -1.70124,-0.8 l -0.91307,-0.06639 -3.33458,15.634687 c -3.49553,16.38935 -3.47158,16.18621 -1.90989,16.20041 0.29655,0.003 0.89493,-0.13036 1.32974,-0.29568 z m -94.82762,4.74876 c -3.35364,-0.65661 -6.27638,-2.44458 -7.72229,-4.72406 -1.77688,-2.80126 -2.5032,-6.46287 -3.46813,-17.48412 -1.18461,-13.530446 -1.3055,-15.825232 -0.95067,-18.046365 0.80715,-5.0525996 4.71753,-8.8793686 10.53981,-10.3144436 2.62757,-0.647646 8.39629,-0.55129 10.56,0.176385 3.87588,1.303495 6.46878,3.580621 7.63921,6.70887 0.88513,2.3657396 1.62292,6.9884586 1.72229,10.7912496 l 0.0785,3.004304 -6.07773,0.54628 c -3.34274,0.30046 -6.17229,0.44446 -6.28788,0.32 -0.1156,-0.12445 -0.4483,-2.814691 -0.73935,-5.978308 -0.29104,-3.163617 -0.70257,-6.115617 -0.9145,-6.56 -0.30591,-0.641455 -0.65893,-0.827946 -1.71293,-0.904902 -1.62816,-0.118878 -2.35047,0.69783 -2.34206,2.648135 0.0123,2.85186 2.53561,29.201675 2.89121,30.191645 0.4479,1.24694 1.53346,1.7819 2.70897,1.33497 1.37324,-0.52211 1.5375,-1.55739 1.1083,-6.98481 -0.24564,-3.10611 -0.27626,-5.01878 -0.0834,-5.2116 0.16754,-0.16754 2.92817,-0.53622 6.13473,-0.81929 4.51915,-0.39895 5.91608,-0.42874 6.2124,-0.13249 0.26911,0.26905 0.38228,2.15356 0.38228,6.36627 0,5.88676 -0.0144,6.01338 -0.8839,7.78395 -1.70765,3.47726 -5.57443,6.17057 -10.24376,7.13505 -2.6288,0.54299 -6.23088,0.60756 -8.55106,0.15328 z m 57.98276,-1.07862 c -2.86877,-0.21641 -5.34822,-0.52574 -5.50989,-0.6874 -0.16166,-0.16166 -0.33448,-2.16328 -0.38404,-4.44805 l -0.0901,-4.15411 h -2.2369 -2.2369 l -0.6431,3.91121 c -0.3537,2.15117 -0.7871,4.04279 -0.9631,4.2036 -0.36634,0.33473 -12.30813,-0.44982 -12.67726,-0.83287 -0.18754,-0.19461 9.43779,-48.3091326 9.72091,-48.5922496 0.20727,-0.20727302 18.03218,1.24639 18.29065,1.491646 0.30441,0.288854 4.08782,46.7540236 3.94573,48.4586636 -0.0986,1.18309 -0.11902,1.18492 -7.21598,0.64956 z m -5.7849,-26.53884 c -0.0665,-4.559108 -0.22603,-8.663107 -0.35457,-9.120002 -0.22438,-0.797536 -0.24777,-0.779591 -0.58554,0.449285 -0.47999,1.746229 -2.56061,12.830447 -2.81549,14.999127 l -0.20617,1.75416 1.08131,0.13915 c 0.59472,0.0765 1.51331,0.12305 2.04131,0.10336 l 0.96,-0.0358 z"
     style="fill:#ffffff;stroke-width:0.31999999" />
</svg>
