solid CATIA STL
  facet normal  0.000000e+000  0.000000e+000  1.000000e+000
    outer loop
      vertex -3.500000e+001 -4.440892e-015  2.200000e+001
      vertex -8.660254e-001  2.500000e+000  2.200000e+001
      vertex -9.659258e-001  2.741181e+000  2.200000e+001
    endloop
  endfacet
  facet normal  0.000000e+000  0.000000e+000  1.000000e+000
    outer loop
      vertex -3.500000e+001 -4.440892e-015  2.200000e+001
      vertex -7.071068e-001  2.292893e+000  2.200000e+001
      vertex -8.660254e-001  2.500000e+000  2.200000e+001
    endloop
  endfacet
  facet normal  0.000000e+000  0.000000e+000  1.000000e+000
    outer loop
      vertex -3.500000e+001 -4.440892e-015  2.200000e+001
      vertex -5.000000e-001  2.133975e+000  2.200000e+001
      vertex -7.071068e-001  2.292893e+000  2.200000e+001
    endloop
  endfacet
  facet normal  0.000000e+000  0.000000e+000  1.000000e+000
    outer loop
      vertex  3.500000e+001 -1.243450e-014  2.200000e+001
      vertex  7.071068e-001  2.292893e+000  2.200000e+001
      vertex  5.000000e-001  2.133975e+000  2.200000e+001
    endloop
  endfacet
  facet normal  0.000000e+000  0.000000e+000  9.999999e-001
    outer loop
      vertex  3.500000e+001 -1.243450e-014  2.200000e+001
      vertex  8.660254e-001  2.500000e+000  2.200000e+001
      vertex  7.071068e-001  2.292893e+000  2.200000e+001
    endloop
  endfacet
  facet normal  0.000000e+000  0.000000e+000  1.000000e+000
    outer loop
      vertex  3.500000e+001 -1.243450e-014  2.200000e+001
      vertex  9.659258e-001  2.741181e+000  2.200000e+001
      vertex  8.660254e-001  2.500000e+000  2.200000e+001
    endloop
  endfacet
  facet normal  0.000000e+000  0.000000e+000  1.000000e+000
    outer loop
      vertex  3.500000e+001 -1.243450e-014  2.200000e+001
      vertex  1.000000e+000  3.000000e+000  2.200000e+001
      vertex  9.659258e-001  2.741181e+000  2.200000e+001
    endloop
  endfacet
  facet normal  0.000000e+000  0.000000e+000  1.000000e+000
    outer loop
      vertex  3.500000e+001 -1.243450e-014  2.200000e+001
      vertex  9.659258e-001  3.258819e+000  2.200000e+001
      vertex  1.000000e+000  3.000000e+000  2.200000e+001
    endloop
  endfacet
  facet normal  0.000000e+000  0.000000e+000  1.000000e+000
    outer loop
      vertex  3.500000e+001 -1.243450e-014  2.200000e+001
      vertex  8.660254e-001  3.500000e+000  2.200000e+001
      vertex  9.659258e-001  3.258819e+000  2.200000e+001
    endloop
  endfacet
  facet normal  0.000000e+000  0.000000e+000  1.000000e+000
    outer loop
      vertex  3.500000e+001 -1.243450e-014  2.200000e+001
      vertex  7.071068e-001  3.707107e+000  2.200000e+001
      vertex  8.660254e-001  3.500000e+000  2.200000e+001
    endloop
  endfacet
  facet normal  0.000000e+000  0.000000e+000  9.999999e-001
    outer loop
      vertex  3.500000e+001 -1.243450e-014  2.200000e+001
      vertex  5.000000e-001  3.866025e+000  2.200000e+001
      vertex  7.071068e-001  3.707107e+000  2.200000e+001
    endloop
  endfacet
  facet normal  0.000000e+000  0.000000e+000  1.000000e+000
    outer loop
      vertex  3.500000e+001 -1.243450e-014  2.200000e+001
      vertex  2.588190e-001  3.965926e+000  2.200000e+001
      vertex  5.000000e-001  3.866025e+000  2.200000e+001
    endloop
  endfacet
  facet normal  0.000000e+000  0.000000e+000  1.000000e+000
    outer loop
      vertex  3.500000e+001 -1.243450e-014  2.200000e+001
      vertex  4.440892e-015  2.500000e+001  2.200000e+001
      vertex  2.588190e-001  3.965926e+000  2.200000e+001
    endloop
  endfacet
  facet normal  0.000000e+000  -0.000000e+000  9.999999e-001
    outer loop
      vertex -3.500000e+001 -4.440892e-015  2.200000e+001
      vertex -8.660254e-001  3.500000e+000  2.200000e+001
      vertex -7.071068e-001  3.707107e+000  2.200000e+001
    endloop
  endfacet
  facet normal  0.000000e+000  -0.000000e+000  9.999999e-001
    outer loop
      vertex -3.500000e+001 -4.440892e-015  2.200000e+001
      vertex -9.659258e-001  3.258819e+000  2.200000e+001
      vertex -8.660254e-001  3.500000e+000  2.200000e+001
    endloop
  endfacet
  facet normal  0.000000e+000  -0.000000e+000  1.000000e+000
    outer loop
      vertex -3.500000e+001 -4.440892e-015  2.200000e+001
      vertex -1.000000e+000  3.000000e+000  2.200000e+001
      vertex -9.659258e-001  3.258819e+000  2.200000e+001
    endloop
  endfacet
  facet normal  0.000000e+000  0.000000e+000  1.000000e+000
    outer loop
      vertex -3.500000e+001 -4.440892e-015  2.200000e+001
      vertex -9.659258e-001  2.741181e+000  2.200000e+001
      vertex -1.000000e+000  3.000000e+000  2.200000e+001
    endloop
  endfacet
  facet normal -5.812382e-001  8.137335e-001 -2.257994e-007
    outer loop
      vertex -3.290000e+001  1.500000e+000  2.100000e+001
      vertex  4.440892e-015  2.500000e+001  2.200000e+001
      vertex -2.500000e-001  2.482143e+001  2.100000e+001
    endloop
  endfacet
  facet normal -5.812382e-001  8.137335e-001  8.868991e-007
    outer loop
      vertex -3.290000e+001  1.500000e+000  2.100000e+001
      vertex -3.500000e+001 -4.440892e-015  2.200000e+001
      vertex  4.440892e-015  2.500000e+001  2.200000e+001
    endloop
  endfacet
  facet normal -5.812384e-001  8.137332e-001  0.000000e+000
    outer loop
      vertex -3.290000e+001  1.500000e+000  2.100000e+001
      vertex -3.290000e+001  1.500000e+000  1.000000e+000
      vertex -3.500000e+001 -4.440892e-015  2.200000e+001
    endloop
  endfacet
  facet normal -1.244724e-001  9.922231e-001  0.000000e+000
    outer loop
      vertex -3.290000e+001  1.500000e+000  2.100000e+001
      vertex -5.000000e+000  5.000000e+000  2.100000e+001
      vertex -3.290000e+001  1.500000e+000  1.000000e+000
    endloop
  endfacet
  facet normal  0.000000e+000  0.000000e+000 -1.000000e+000
    outer loop
      vertex -3.500000e+001 -4.440892e-015  0.000000e+000
      vertex -8.660254e-001  3.500000e+000  0.000000e+000
      vertex -9.659258e-001  3.258819e+000  0.000000e+000
    endloop
  endfacet
  facet normal  0.000000e+000  0.000000e+000 -1.000000e+000
    outer loop
      vertex -3.500000e+001 -4.440892e-015  0.000000e+000
      vertex -7.071068e-001  3.707107e+000  0.000000e+000
      vertex -8.660254e-001  3.500000e+000  0.000000e+000
    endloop
  endfacet
  facet normal  0.000000e+000  0.000000e+000 -9.999999e-001
    outer loop
      vertex -3.500000e+001 -4.440892e-015  0.000000e+000
      vertex -5.000000e-001  3.866025e+000  0.000000e+000
      vertex -7.071068e-001  3.707107e+000  0.000000e+000
    endloop
  endfacet
  facet normal  0.000000e+000  0.000000e+000 -1.000000e+000
    outer loop
      vertex -3.500000e+001 -4.440892e-015  0.000000e+000
      vertex -2.588190e-001  3.965926e+000  0.000000e+000
      vertex -5.000000e-001  3.866025e+000  0.000000e+000
    endloop
  endfacet
  facet normal  2.558274e-017 -2.241027e-016 -1.000000e+000
    outer loop
      vertex -3.500000e+001 -4.440892e-015  0.000000e+000
      vertex -5.551115e-017  2.500000e+001 -4.707172e-015
      vertex -2.588190e-001  3.965926e+000  0.000000e+000
    endloop
  endfacet
  facet normal  0.000000e+000  0.000000e+000 -9.999999e-001
    outer loop
      vertex  3.500000e+001 -5.329071e-015  0.000000e+000
      vertex  8.660254e-001  3.500000e+000  0.000000e+000
      vertex  7.071068e-001  3.707107e+000  0.000000e+000
    endloop
  endfacet
  facet normal  0.000000e+000  0.000000e+000 -9.999999e-001
    outer loop
      vertex  3.500000e+001 -5.329071e-015  0.000000e+000
      vertex  9.659258e-001  3.258819e+000  0.000000e+000
      vertex  8.660254e-001  3.500000e+000  0.000000e+000
    endloop
  endfacet
  facet normal  0.000000e+000  0.000000e+000 -1.000000e+000
    outer loop
      vertex  3.500000e+001 -5.329071e-015  0.000000e+000
      vertex  1.000000e+000  3.000000e+000  0.000000e+000
      vertex  9.659258e-001  3.258819e+000  0.000000e+000
    endloop
  endfacet
  facet normal  0.000000e+000  0.000000e+000 -1.000000e+000
    outer loop
      vertex  3.500000e+001 -5.329071e-015  0.000000e+000
      vertex  9.659258e-001  2.741181e+000  0.000000e+000
      vertex  1.000000e+000  3.000000e+000  0.000000e+000
    endloop
  endfacet
  facet normal  0.000000e+000  0.000000e+000 -1.000000e+000
    outer loop
      vertex  3.500000e+001 -5.329071e-015  0.000000e+000
      vertex  8.660254e-001  2.500000e+000  0.000000e+000
      vertex  9.659258e-001  2.741181e+000  0.000000e+000
    endloop
  endfacet
  facet normal  0.000000e+000  0.000000e+000 -1.000000e+000
    outer loop
      vertex  3.500000e+001 -5.329071e-015  0.000000e+000
      vertex  7.071068e-001  2.292893e+000  0.000000e+000
      vertex  8.660254e-001  2.500000e+000  0.000000e+000
    endloop
  endfacet
  facet normal  0.000000e+000  0.000000e+000 -1.000000e+000
    outer loop
      vertex  3.500000e+001 -5.329071e-015  0.000000e+000
      vertex  5.000000e-001  2.133975e+000  0.000000e+000
      vertex  7.071068e-001  2.292893e+000  0.000000e+000
    endloop
  endfacet
  facet normal  0.000000e+000  -0.000000e+000 -1.000000e+000
    outer loop
      vertex -3.500000e+001 -4.440892e-015  0.000000e+000
      vertex -7.071068e-001  2.292893e+000  0.000000e+000
      vertex -5.000000e-001  2.133975e+000  0.000000e+000
    endloop
  endfacet
  facet normal  0.000000e+000  -0.000000e+000 -9.999999e-001
    outer loop
      vertex -3.500000e+001 -4.440892e-015  0.000000e+000
      vertex -8.660254e-001  2.500000e+000  0.000000e+000
      vertex -7.071068e-001  2.292893e+000  0.000000e+000
    endloop
  endfacet
  facet normal  0.000000e+000  -0.000000e+000 -1.000000e+000
    outer loop
      vertex -3.500000e+001 -4.440892e-015  0.000000e+000
      vertex -9.659258e-001  2.741181e+000  0.000000e+000
      vertex -8.660254e-001  2.500000e+000  0.000000e+000
    endloop
  endfacet
  facet normal  0.000000e+000  -0.000000e+000 -1.000000e+000
    outer loop
      vertex -3.500000e+001 -4.440892e-015  0.000000e+000
      vertex -1.000000e+000  3.000000e+000  0.000000e+000
      vertex -9.659258e-001  2.741181e+000  0.000000e+000
    endloop
  endfacet
  facet normal  0.000000e+000  0.000000e+000 -1.000000e+000
    outer loop
      vertex -3.500000e+001 -4.440892e-015  0.000000e+000
      vertex -9.659258e-001  3.258819e+000  0.000000e+000
      vertex -1.000000e+000  3.000000e+000  0.000000e+000
    endloop
  endfacet
  facet normal  1.244724e-001  9.922231e-001  -0.000000e+000
    outer loop
      vertex  3.290000e+001  1.500000e+000  2.100000e+001
      vertex  5.000000e+000  5.000000e+000  1.000000e+000
      vertex  5.000000e+000  5.000000e+000  2.100000e+001
    endloop
  endfacet
  facet normal  1.244724e-001  9.922231e-001  -0.000000e+000
    outer loop
      vertex  3.290000e+001  1.500000e+000  2.100000e+001
      vertex  3.290000e+001  1.500000e+000  1.000000e+000
      vertex  5.000000e+000  5.000000e+000  1.000000e+000
    endloop
  endfacet
  facet normal  5.812384e-001  8.137332e-001  0.000000e+000
    outer loop
      vertex  3.290000e+001  1.500000e+000  2.100000e+001
      vertex  3.500000e+001 -1.243450e-014  2.200000e+001
      vertex  3.290000e+001  1.500000e+000  1.000000e+000
    endloop
  endfacet
  facet normal  0.000000e+000  0.000000e+000  1.000000e+000
    outer loop
      vertex -3.500000e+001 -4.440892e-015  2.200000e+001
      vertex -2.588190e-001  2.034074e+000  2.200000e+001
      vertex -5.000000e-001  2.133975e+000  2.200000e+001
    endloop
  endfacet
  facet normal  0.000000e+000  0.000000e+000  9.999999e-001
    outer loop
      vertex -3.500000e+001 -4.440892e-015  2.200000e+001
      vertex  1.110223e-016  2.000000e+000  2.200000e+001
      vertex -2.588190e-001  2.034074e+000  2.200000e+001
    endloop
  endfacet
  facet normal  0.000000e+000  0.000000e+000  1.000000e+000
    outer loop
      vertex  3.500000e+001 -1.243450e-014  2.200000e+001
      vertex  1.110223e-016  2.000000e+000  2.200000e+001
      vertex -3.500000e+001 -4.440892e-015  2.200000e+001
    endloop
  endfacet
  facet normal  0.000000e+000  0.000000e+000  9.999999e-001
    outer loop
      vertex  3.500000e+001 -1.243450e-014  2.200000e+001
      vertex  2.588190e-001  2.034074e+000  2.200000e+001
      vertex  1.110223e-016  2.000000e+000  2.200000e+001
    endloop
  endfacet
  facet normal  -0.000000e+000  0.000000e+000  1.000000e+000
    outer loop
      vertex  5.000000e-001  2.133975e+000  2.200000e+001
      vertex  2.588190e-001  2.034074e+000  2.200000e+001
      vertex  3.500000e+001 -1.243450e-014  2.200000e+001
    endloop
  endfacet
  facet normal  -0.000000e+000  0.000000e+000  1.000000e+000
    outer loop
      vertex  4.440892e-015  2.500000e+001  2.200000e+001
      vertex  5.551115e-017  4.000000e+000  2.200000e+001
      vertex  2.588190e-001  3.965926e+000  2.200000e+001
    endloop
  endfacet
  facet normal  0.000000e+000  0.000000e+000  1.000000e+000
    outer loop
      vertex  4.440892e-015  2.500000e+001  2.200000e+001
      vertex -2.588190e-001  3.965926e+000  2.200000e+001
      vertex  5.551115e-017  4.000000e+000  2.200000e+001
    endloop
  endfacet
  facet normal  0.000000e+000  -0.000000e+000  1.000000e+000
    outer loop
      vertex -3.500000e+001 -4.440892e-015  2.200000e+001
      vertex -2.588190e-001  3.965926e+000  2.200000e+001
      vertex  4.440892e-015  2.500000e+001  2.200000e+001
    endloop
  endfacet
  facet normal  0.000000e+000  -0.000000e+000  1.000000e+000
    outer loop
      vertex -3.500000e+001 -4.440892e-015  2.200000e+001
      vertex -5.000000e-001  3.866025e+000  2.200000e+001
      vertex -2.588190e-001  3.965926e+000  2.200000e+001
    endloop
  endfacet
  facet normal  0.000000e+000  0.000000e+000  9.999999e-001
    outer loop
      vertex -7.071068e-001  3.707107e+000  2.200000e+001
      vertex -5.000000e-001  3.866025e+000  2.200000e+001
      vertex -3.500000e+001 -4.440892e-015  2.200000e+001
    endloop
  endfacet
  facet normal -5.812384e-001  8.137332e-001  0.000000e+000
    outer loop
      vertex -3.290000e+001  1.500000e+000  1.000000e+000
      vertex -3.500000e+001 -4.440892e-015  0.000000e+000
      vertex -3.500000e+001 -4.440892e-015  2.200000e+001
    endloop
  endfacet
  facet normal -5.812382e-001  8.137335e-001 -1.419039e-006
    outer loop
      vertex -3.290000e+001  1.500000e+000  1.000000e+000
      vertex -5.551115e-017  2.500000e+001 -4.707172e-015
      vertex -3.500000e+001 -4.440892e-015  0.000000e+000
    endloop
  endfacet
  facet normal -5.812382e-001  8.137335e-001  2.257994e-007
    outer loop
      vertex -2.500000e-001  2.482143e+001  1.000000e+000
      vertex -5.551115e-017  2.500000e+001 -4.707172e-015
      vertex -3.290000e+001  1.500000e+000  1.000000e+000
    endloop
  endfacet
  facet normal -5.812388e-001  8.137331e-001  1.187947e-016
    outer loop
      vertex -2.500000e-001  2.482143e+001  1.000000e+000
      vertex  4.440892e-015  2.500000e+001  2.200000e+001
      vertex -5.551115e-017  2.500000e+001 -4.707172e-015
    endloop
  endfacet
  facet normal -5.812387e-001  8.137330e-001  0.000000e+000
    outer loop
      vertex -2.500000e-001  2.482143e+001  2.100000e+001
      vertex  4.440892e-015  2.500000e+001  2.200000e+001
      vertex -2.500000e-001  2.482143e+001  1.000000e+000
    endloop
  endfacet
  facet normal  2.950996e-017 -2.241511e-016 -1.000000e+000
    outer loop
      vertex -5.551115e-017  2.500000e+001 -4.707172e-015
      vertex  5.551115e-017  4.000000e+000  0.000000e+000
      vertex -2.588190e-001  3.965926e+000  0.000000e+000
    endloop
  endfacet
  facet normal -2.950995e-017 -2.241510e-016 -1.000000e+000
    outer loop
      vertex -5.551115e-017  2.500000e+001 -4.707172e-015
      vertex  2.588190e-001  3.965926e+000  0.000000e+000
      vertex  5.551115e-017  4.000000e+000  0.000000e+000
    endloop
  endfacet
  facet normal -2.558275e-017 -2.241027e-016 -1.000000e+000
    outer loop
      vertex  3.500000e+001 -5.329071e-015  0.000000e+000
      vertex  2.588190e-001  3.965926e+000  0.000000e+000
      vertex -5.551115e-017  2.500000e+001 -4.707172e-015
    endloop
  endfacet
  facet normal  0.000000e+000  0.000000e+000 -1.000000e+000
    outer loop
      vertex  3.500000e+001 -5.329071e-015  0.000000e+000
      vertex  5.000000e-001  3.866025e+000  0.000000e+000
      vertex  2.588190e-001  3.965926e+000  0.000000e+000
    endloop
  endfacet
  facet normal  0.000000e+000  0.000000e+000 -9.999999e-001
    outer loop
      vertex  7.071068e-001  3.707107e+000  0.000000e+000
      vertex  5.000000e-001  3.866025e+000  0.000000e+000
      vertex  3.500000e+001 -5.329071e-015  0.000000e+000
    endloop
  endfacet
  facet normal -2.392374e-016 -3.867755e-015 -1.000000e+000
    outer loop
      vertex  3.500000e+001 -5.329071e-015  0.000000e+000
      vertex  2.588190e-001  2.034074e+000  4.440892e-016
      vertex  5.000000e-001  2.133975e+000  0.000000e+000
    endloop
  endfacet
  facet normal -8.847905e-018  6.720625e-017 -9.999999e-001
    outer loop
      vertex  3.500000e+001 -5.329071e-015  0.000000e+000
      vertex  0.000000e+000  2.000000e+000  4.440892e-016
      vertex  2.588190e-001  2.034074e+000  4.440892e-016
    endloop
  endfacet
  facet normal  0.000000e+000  2.220446e-016 -1.000000e+000
    outer loop
      vertex -3.500000e+001 -4.440892e-015  0.000000e+000
      vertex  0.000000e+000  2.000000e+000  4.440892e-016
      vertex  3.500000e+001 -5.329071e-015  0.000000e+000
    endloop
  endfacet
  facet normal  5.281779e-016 -9.021069e-015 -9.999999e-001
    outer loop
      vertex -3.500000e+001 -4.440892e-015  0.000000e+000
      vertex -2.588190e-001  2.034074e+000  0.000000e+000
      vertex  0.000000e+000  2.000000e+000  4.440892e-016
    endloop
  endfacet
  facet normal  -0.000000e+000  0.000000e+000 -1.000000e+000
    outer loop
      vertex -5.000000e-001  2.133975e+000  0.000000e+000
      vertex -2.588190e-001  2.034074e+000  0.000000e+000
      vertex -3.500000e+001 -4.440892e-015  0.000000e+000
    endloop
  endfacet
  facet normal  5.812384e-001  8.137332e-001  0.000000e+000
    outer loop
      vertex  3.500000e+001 -5.329071e-015  0.000000e+000
      vertex  3.290000e+001  1.500000e+000  1.000000e+000
      vertex  3.500000e+001 -1.243450e-014  2.200000e+001
    endloop
  endfacet
  facet normal  5.812382e-001  8.137335e-001 -8.868991e-007
    outer loop
      vertex -5.551115e-017  2.500000e+001 -4.707172e-015
      vertex  3.290000e+001  1.500000e+000  1.000000e+000
      vertex  3.500000e+001 -5.329071e-015  0.000000e+000
    endloop
  endfacet
  facet normal  5.812382e-001  8.137335e-001  2.257994e-007
    outer loop
      vertex -5.551115e-017  2.500000e+001 -4.707172e-015
      vertex  2.500000e-001  2.482143e+001  1.000000e+000
      vertex  3.290000e+001  1.500000e+000  1.000000e+000
    endloop
  endfacet
  facet normal  5.812388e-001  8.137331e-001  0.000000e+000
    outer loop
      vertex  4.440892e-015  2.500000e+001  2.200000e+001
      vertex  2.500000e-001  2.482143e+001  1.000000e+000
      vertex -5.551115e-017  2.500000e+001 -4.707172e-015
    endloop
  endfacet
  facet normal  5.812387e-001  8.137330e-001  0.000000e+000
    outer loop
      vertex  4.440892e-015  2.500000e+001  2.200000e+001
      vertex  2.500000e-001  2.482143e+001  2.100000e+001
      vertex  2.500000e-001  2.482143e+001  1.000000e+000
    endloop
  endfacet
  facet normal  5.812382e-001  8.137335e-001 -2.257994e-007
    outer loop
      vertex  3.290000e+001  1.500000e+000  2.100000e+001
      vertex  2.500000e-001  2.482143e+001  2.100000e+001
      vertex  4.440892e-015  2.500000e+001  2.200000e+001
    endloop
  endfacet
  facet normal -9.914449e-001  1.305262e-001  0.000000e+000
    outer loop
      vertex  1.000000e+000  3.000000e+000  1.100000e+001
      vertex  9.659258e-001  2.741181e+000  1.650000e+001
      vertex  1.000000e+000  3.000000e+000  1.650000e+001
    endloop
  endfacet
  facet normal -9.914449e-001  1.305262e-001  0.000000e+000
    outer loop
      vertex  9.659258e-001  2.741181e+000  1.100000e+001
      vertex  9.659258e-001  2.741181e+000  1.650000e+001
      vertex  1.000000e+000  3.000000e+000  1.100000e+001
    endloop
  endfacet
  facet normal -9.238795e-001  3.826835e-001  0.000000e+000
    outer loop
      vertex  9.659258e-001  2.741181e+000  1.100000e+001
      vertex  8.660254e-001  2.500000e+000  1.650000e+001
      vertex  9.659258e-001  2.741181e+000  1.650000e+001
    endloop
  endfacet
  facet normal -9.238795e-001  3.826835e-001  0.000000e+000
    outer loop
      vertex  8.660254e-001  2.500000e+000  1.100000e+001
      vertex  8.660254e-001  2.500000e+000  1.650000e+001
      vertex  9.659258e-001  2.741181e+000  1.100000e+001
    endloop
  endfacet
  facet normal -7.933534e-001  6.087613e-001  0.000000e+000
    outer loop
      vertex  8.660254e-001  2.500000e+000  1.100000e+001
      vertex  7.071068e-001  2.292893e+000  1.650000e+001
      vertex  8.660254e-001  2.500000e+000  1.650000e+001
    endloop
  endfacet
  facet normal -7.933534e-001  6.087613e-001  0.000000e+000
    outer loop
      vertex  7.071068e-001  2.292893e+000  1.100000e+001
      vertex  7.071068e-001  2.292893e+000  1.650000e+001
      vertex  8.660254e-001  2.500000e+000  1.100000e+001
    endloop
  endfacet
  facet normal -6.087614e-001  7.933533e-001  0.000000e+000
    outer loop
      vertex  7.071068e-001  2.292893e+000  1.100000e+001
      vertex  5.000000e-001  2.133975e+000  1.650000e+001
      vertex  7.071068e-001  2.292893e+000  1.650000e+001
    endloop
  endfacet
  facet normal -6.087614e-001  7.933533e-001  0.000000e+000
    outer loop
      vertex  5.000000e-001  2.133975e+000  1.100000e+001
      vertex  5.000000e-001  2.133975e+000  1.650000e+001
      vertex  7.071068e-001  2.292893e+000  1.100000e+001
    endloop
  endfacet
  facet normal -3.826829e-001  9.238798e-001  0.000000e+000
    outer loop
      vertex  5.000000e-001  2.133975e+000  1.100000e+001
      vertex  2.588190e-001  2.034074e+000  1.650000e+001
      vertex  5.000000e-001  2.133975e+000  1.650000e+001
    endloop
  endfacet
  facet normal -3.826829e-001  9.238798e-001  0.000000e+000
    outer loop
      vertex  2.588190e-001  2.034074e+000  1.100000e+001
      vertex  2.588190e-001  2.034074e+000  1.650000e+001
      vertex  5.000000e-001  2.133975e+000  1.100000e+001
    endloop
  endfacet
  facet normal -1.305267e-001  9.914448e-001  0.000000e+000
    outer loop
      vertex  2.588190e-001  2.034074e+000  1.100000e+001
      vertex -5.551115e-017  2.000000e+000  1.650000e+001
      vertex  2.588190e-001  2.034074e+000  1.650000e+001
    endloop
  endfacet
  facet normal -1.305267e-001  9.914448e-001 -5.269591e-018
    outer loop
      vertex  1.665335e-016  2.000000e+000  1.100000e+001
      vertex -5.551115e-017  2.000000e+000  1.650000e+001
      vertex  2.588190e-001  2.034074e+000  1.100000e+001
    endloop
  endfacet
  facet normal  1.305267e-001  9.914448e-001  0.000000e+000
    outer loop
      vertex  1.665335e-016  2.000000e+000  1.100000e+001
      vertex -2.588190e-001  2.034074e+000  1.650000e+001
      vertex -5.551115e-017  2.000000e+000  1.650000e+001
    endloop
  endfacet
  facet normal  1.305267e-001  9.914448e-001  0.000000e+000
    outer loop
      vertex -2.588190e-001  2.034074e+000  1.100000e+001
      vertex -2.588190e-001  2.034074e+000  1.650000e+001
      vertex  1.665335e-016  2.000000e+000  1.100000e+001
    endloop
  endfacet
  facet normal  3.826829e-001  9.238798e-001  0.000000e+000
    outer loop
      vertex -2.588190e-001  2.034074e+000  1.100000e+001
      vertex -5.000000e-001  2.133975e+000  1.650000e+001
      vertex -2.588190e-001  2.034074e+000  1.650000e+001
    endloop
  endfacet
  facet normal  3.826829e-001  9.238798e-001  0.000000e+000
    outer loop
      vertex -5.000000e-001  2.133975e+000  1.100000e+001
      vertex -5.000000e-001  2.133975e+000  1.650000e+001
      vertex -2.588190e-001  2.034074e+000  1.100000e+001
    endloop
  endfacet
  facet normal  6.087614e-001  7.933533e-001  0.000000e+000
    outer loop
      vertex -5.000000e-001  2.133975e+000  1.100000e+001
      vertex -7.071068e-001  2.292893e+000  1.650000e+001
      vertex -5.000000e-001  2.133975e+000  1.650000e+001
    endloop
  endfacet
  facet normal  6.087614e-001  7.933533e-001  0.000000e+000
    outer loop
      vertex -7.071068e-001  2.292893e+000  1.100000e+001
      vertex -7.071068e-001  2.292893e+000  1.650000e+001
      vertex -5.000000e-001  2.133975e+000  1.100000e+001
    endloop
  endfacet
  facet normal  7.933534e-001  6.087613e-001  0.000000e+000
    outer loop
      vertex -7.071068e-001  2.292893e+000  1.100000e+001
      vertex -8.660254e-001  2.500000e+000  1.650000e+001
      vertex -7.071068e-001  2.292893e+000  1.650000e+001
    endloop
  endfacet
  facet normal  7.933534e-001  6.087613e-001  0.000000e+000
    outer loop
      vertex -8.660254e-001  2.500000e+000  1.100000e+001
      vertex -8.660254e-001  2.500000e+000  1.650000e+001
      vertex -7.071068e-001  2.292893e+000  1.100000e+001
    endloop
  endfacet
  facet normal  9.914449e-001 -1.305262e-001  0.000000e+000
    outer loop
      vertex -9.659258e-001  3.258819e+000  1.650000e+001
      vertex -1.000000e+000  3.000000e+000  1.100000e+001
      vertex -9.659258e-001  3.258819e+000  1.100000e+001
    endloop
  endfacet
  facet normal  9.914449e-001 -1.305262e-001  0.000000e+000
    outer loop
      vertex -1.000000e+000  3.000000e+000  1.650000e+001
      vertex -1.000000e+000  3.000000e+000  1.100000e+001
      vertex -9.659258e-001  3.258819e+000  1.650000e+001
    endloop
  endfacet
  facet normal  9.914449e-001  1.305262e-001  0.000000e+000
    outer loop
      vertex -1.000000e+000  3.000000e+000  1.650000e+001
      vertex -9.659258e-001  2.741181e+000  1.100000e+001
      vertex -1.000000e+000  3.000000e+000  1.100000e+001
    endloop
  endfacet
  facet normal  9.914449e-001  1.305262e-001  -0.000000e+000
    outer loop
      vertex -9.659258e-001  2.741181e+000  1.650000e+001
      vertex -9.659258e-001  2.741181e+000  1.100000e+001
      vertex -1.000000e+000  3.000000e+000  1.650000e+001
    endloop
  endfacet
  facet normal -9.914449e-001  1.305262e-001  0.000000e+000
    outer loop
      vertex  1.000000e+000  3.000000e+000  5.500000e+000
      vertex  9.659258e-001  2.741181e+000  1.100000e+001
      vertex  1.000000e+000  3.000000e+000  1.100000e+001
    endloop
  endfacet
  facet normal -9.914449e-001  1.305262e-001  0.000000e+000
    outer loop
      vertex  9.659258e-001  2.741181e+000  5.500000e+000
      vertex  9.659258e-001  2.741181e+000  1.100000e+001
      vertex  1.000000e+000  3.000000e+000  5.500000e+000
    endloop
  endfacet
  facet normal -9.238795e-001  3.826835e-001  0.000000e+000
    outer loop
      vertex  9.659258e-001  2.741181e+000  5.500000e+000
      vertex  8.660254e-001  2.500000e+000  1.100000e+001
      vertex  9.659258e-001  2.741181e+000  1.100000e+001
    endloop
  endfacet
  facet normal -9.238795e-001  3.826835e-001  0.000000e+000
    outer loop
      vertex  8.660254e-001  2.500000e+000  5.500000e+000
      vertex  8.660254e-001  2.500000e+000  1.100000e+001
      vertex  9.659258e-001  2.741181e+000  5.500000e+000
    endloop
  endfacet
  facet normal -7.933534e-001  6.087613e-001  0.000000e+000
    outer loop
      vertex  8.660254e-001  2.500000e+000  5.500000e+000
      vertex  7.071068e-001  2.292893e+000  1.100000e+001
      vertex  8.660254e-001  2.500000e+000  1.100000e+001
    endloop
  endfacet
  facet normal -7.933534e-001  6.087613e-001  0.000000e+000
    outer loop
      vertex  7.071068e-001  2.292893e+000  5.500000e+000
      vertex  7.071068e-001  2.292893e+000  1.100000e+001
      vertex  8.660254e-001  2.500000e+000  5.500000e+000
    endloop
  endfacet
  facet normal -6.087614e-001  7.933533e-001  0.000000e+000
    outer loop
      vertex  7.071068e-001  2.292893e+000  5.500000e+000
      vertex  5.000000e-001  2.133975e+000  1.100000e+001
      vertex  7.071068e-001  2.292893e+000  1.100000e+001
    endloop
  endfacet
  facet normal -6.087614e-001  7.933533e-001  0.000000e+000
    outer loop
      vertex  5.000000e-001  2.133975e+000  5.500000e+000
      vertex  5.000000e-001  2.133975e+000  1.100000e+001
      vertex  7.071068e-001  2.292893e+000  5.500000e+000
    endloop
  endfacet
  facet normal -3.826829e-001  9.238798e-001  0.000000e+000
    outer loop
      vertex  5.000000e-001  2.133975e+000  5.500000e+000
      vertex  2.588190e-001  2.034074e+000  1.100000e+001
      vertex  5.000000e-001  2.133975e+000  1.100000e+001
    endloop
  endfacet
  facet normal -3.826829e-001  9.238798e-001  0.000000e+000
    outer loop
      vertex  2.588190e-001  2.034074e+000  5.500000e+000
      vertex  2.588190e-001  2.034074e+000  1.100000e+001
      vertex  5.000000e-001  2.133975e+000  5.500000e+000
    endloop
  endfacet
  facet normal -1.305267e-001  9.914448e-001  0.000000e+000
    outer loop
      vertex  2.588190e-001  2.034074e+000  5.500000e+000
      vertex  1.665335e-016  2.000000e+000  1.100000e+001
      vertex  2.588190e-001  2.034074e+000  1.100000e+001
    endloop
  endfacet
  facet normal -1.305267e-001  9.914448e-001  0.000000e+000
    outer loop
      vertex  1.665335e-016  2.000000e+000  5.500000e+000
      vertex  1.665335e-016  2.000000e+000  1.100000e+001
      vertex  2.588190e-001  2.034074e+000  5.500000e+000
    endloop
  endfacet
  facet normal  1.305267e-001  9.914448e-001  0.000000e+000
    outer loop
      vertex  1.665335e-016  2.000000e+000  5.500000e+000
      vertex -2.588190e-001  2.034074e+000  1.100000e+001
      vertex  1.665335e-016  2.000000e+000  1.100000e+001
    endloop
  endfacet
  facet normal  1.305267e-001  9.914448e-001  0.000000e+000
    outer loop
      vertex -2.588190e-001  2.034074e+000  5.500000e+000
      vertex -2.588190e-001  2.034074e+000  1.100000e+001
      vertex  1.665335e-016  2.000000e+000  5.500000e+000
    endloop
  endfacet
  facet normal  3.826829e-001  9.238798e-001  0.000000e+000
    outer loop
      vertex -2.588190e-001  2.034074e+000  5.500000e+000
      vertex -5.000000e-001  2.133975e+000  1.100000e+001
      vertex -2.588190e-001  2.034074e+000  1.100000e+001
    endloop
  endfacet
  facet normal  3.826829e-001  9.238798e-001  0.000000e+000
    outer loop
      vertex -5.000000e-001  2.133975e+000  5.500000e+000
      vertex -5.000000e-001  2.133975e+000  1.100000e+001
      vertex -2.588190e-001  2.034074e+000  5.500000e+000
    endloop
  endfacet
  facet normal  6.087614e-001  7.933533e-001  0.000000e+000
    outer loop
      vertex -5.000000e-001  2.133975e+000  5.500000e+000
      vertex -7.071068e-001  2.292893e+000  1.100000e+001
      vertex -5.000000e-001  2.133975e+000  1.100000e+001
    endloop
  endfacet
  facet normal  6.087614e-001  7.933533e-001  0.000000e+000
    outer loop
      vertex -7.071068e-001  2.292893e+000  5.500000e+000
      vertex -7.071068e-001  2.292893e+000  1.100000e+001
      vertex -5.000000e-001  2.133975e+000  5.500000e+000
    endloop
  endfacet
  facet normal  7.933534e-001  6.087613e-001  0.000000e+000
    outer loop
      vertex -7.071068e-001  2.292893e+000  5.500000e+000
      vertex -8.660254e-001  2.500000e+000  1.100000e+001
      vertex -7.071068e-001  2.292893e+000  1.100000e+001
    endloop
  endfacet
  facet normal  7.933534e-001  6.087613e-001  0.000000e+000
    outer loop
      vertex -8.660254e-001  2.500000e+000  5.500000e+000
      vertex -8.660254e-001  2.500000e+000  1.100000e+001
      vertex -7.071068e-001  2.292893e+000  5.500000e+000
    endloop
  endfacet
  facet normal  9.914449e-001 -1.305262e-001  0.000000e+000
    outer loop
      vertex -9.659258e-001  3.258819e+000  1.100000e+001
      vertex -1.000000e+000  3.000000e+000  5.500000e+000
      vertex -9.659258e-001  3.258819e+000  5.500000e+000
    endloop
  endfacet
  facet normal  9.914449e-001 -1.305262e-001  0.000000e+000
    outer loop
      vertex -1.000000e+000  3.000000e+000  1.100000e+001
      vertex -1.000000e+000  3.000000e+000  5.500000e+000
      vertex -9.659258e-001  3.258819e+000  1.100000e+001
    endloop
  endfacet
  facet normal  9.914449e-001  1.305262e-001  0.000000e+000
    outer loop
      vertex -1.000000e+000  3.000000e+000  1.100000e+001
      vertex -9.659258e-001  2.741181e+000  5.500000e+000
      vertex -1.000000e+000  3.000000e+000  5.500000e+000
    endloop
  endfacet
  facet normal  9.914449e-001  1.305262e-001  -0.000000e+000
    outer loop
      vertex -9.659258e-001  2.741181e+000  1.100000e+001
      vertex -9.659258e-001  2.741181e+000  5.500000e+000
      vertex -1.000000e+000  3.000000e+000  1.100000e+001
    endloop
  endfacet
  facet normal  7.933534e-001  6.087613e-001  0.000000e+000
    outer loop
      vertex -8.660254e-001  2.500000e+000  2.200000e+001
      vertex -7.071068e-001  2.292893e+000  1.650000e+001
      vertex -8.660254e-001  2.500000e+000  1.650000e+001
    endloop
  endfacet
  facet normal  7.933534e-001  6.087613e-001  -0.000000e+000
    outer loop
      vertex -7.071068e-001  2.292893e+000  2.200000e+001
      vertex -7.071068e-001  2.292893e+000  1.650000e+001
      vertex -8.660254e-001  2.500000e+000  2.200000e+001
    endloop
  endfacet
  facet normal  6.087614e-001  7.933533e-001  0.000000e+000
    outer loop
      vertex -7.071068e-001  2.292893e+000  2.200000e+001
      vertex -5.000000e-001  2.133975e+000  1.650000e+001
      vertex -7.071068e-001  2.292893e+000  1.650000e+001
    endloop
  endfacet
  facet normal  6.087614e-001  7.933533e-001  -0.000000e+000
    outer loop
      vertex -5.000000e-001  2.133975e+000  2.200000e+001
      vertex -5.000000e-001  2.133975e+000  1.650000e+001
      vertex -7.071068e-001  2.292893e+000  2.200000e+001
    endloop
  endfacet
  facet normal  3.826829e-001  9.238798e-001  0.000000e+000
    outer loop
      vertex -5.000000e-001  2.133975e+000  2.200000e+001
      vertex -2.588190e-001  2.034074e+000  1.650000e+001
      vertex -5.000000e-001  2.133975e+000  1.650000e+001
    endloop
  endfacet
  facet normal  3.826829e-001  9.238798e-001  -0.000000e+000
    outer loop
      vertex -2.588190e-001  2.034074e+000  2.200000e+001
      vertex -2.588190e-001  2.034074e+000  1.650000e+001
      vertex -5.000000e-001  2.133975e+000  2.200000e+001
    endloop
  endfacet
  facet normal  1.305267e-001  9.914448e-001  0.000000e+000
    outer loop
      vertex -2.588190e-001  2.034074e+000  2.200000e+001
      vertex -5.551115e-017  2.000000e+000  1.650000e+001
      vertex -2.588190e-001  2.034074e+000  1.650000e+001
    endloop
  endfacet
  facet normal  1.305267e-001  9.914448e-001 -3.952193e-018
    outer loop
      vertex  1.110223e-016  2.000000e+000  2.200000e+001
      vertex -5.551115e-017  2.000000e+000  1.650000e+001
      vertex -2.588190e-001  2.034074e+000  2.200000e+001
    endloop
  endfacet
  facet normal -1.305267e-001  9.914448e-001  0.000000e+000
    outer loop
      vertex  1.110223e-016  2.000000e+000  2.200000e+001
      vertex  2.588190e-001  2.034074e+000  1.650000e+001
      vertex -5.551115e-017  2.000000e+000  1.650000e+001
    endloop
  endfacet
  facet normal -1.305267e-001  9.914448e-001  0.000000e+000
    outer loop
      vertex  2.588190e-001  2.034074e+000  2.200000e+001
      vertex  2.588190e-001  2.034074e+000  1.650000e+001
      vertex  1.110223e-016  2.000000e+000  2.200000e+001
    endloop
  endfacet
  facet normal -3.826829e-001  9.238798e-001  0.000000e+000
    outer loop
      vertex  2.588190e-001  2.034074e+000  2.200000e+001
      vertex  5.000000e-001  2.133975e+000  1.650000e+001
      vertex  2.588190e-001  2.034074e+000  1.650000e+001
    endloop
  endfacet
  facet normal -3.826829e-001  9.238798e-001  0.000000e+000
    outer loop
      vertex  5.000000e-001  2.133975e+000  2.200000e+001
      vertex  5.000000e-001  2.133975e+000  1.650000e+001
      vertex  2.588190e-001  2.034074e+000  2.200000e+001
    endloop
  endfacet
  facet normal -6.087614e-001  7.933533e-001  0.000000e+000
    outer loop
      vertex  5.000000e-001  2.133975e+000  2.200000e+001
      vertex  7.071068e-001  2.292893e+000  1.650000e+001
      vertex  5.000000e-001  2.133975e+000  1.650000e+001
    endloop
  endfacet
  facet normal -6.087614e-001  7.933533e-001  0.000000e+000
    outer loop
      vertex  7.071068e-001  2.292893e+000  2.200000e+001
      vertex  7.071068e-001  2.292893e+000  1.650000e+001
      vertex  5.000000e-001  2.133975e+000  2.200000e+001
    endloop
  endfacet
  facet normal -7.933534e-001  6.087613e-001  0.000000e+000
    outer loop
      vertex  7.071068e-001  2.292893e+000  2.200000e+001
      vertex  8.660254e-001  2.500000e+000  1.650000e+001
      vertex  7.071068e-001  2.292893e+000  1.650000e+001
    endloop
  endfacet
  facet normal -7.933534e-001  6.087613e-001  0.000000e+000
    outer loop
      vertex  8.660254e-001  2.500000e+000  2.200000e+001
      vertex  8.660254e-001  2.500000e+000  1.650000e+001
      vertex  7.071068e-001  2.292893e+000  2.200000e+001
    endloop
  endfacet
  facet normal -9.238795e-001  3.826835e-001  0.000000e+000
    outer loop
      vertex  8.660254e-001  2.500000e+000  2.200000e+001
      vertex  9.659258e-001  2.741181e+000  1.650000e+001
      vertex  8.660254e-001  2.500000e+000  1.650000e+001
    endloop
  endfacet
  facet normal -9.238795e-001  3.826835e-001  0.000000e+000
    outer loop
      vertex  9.659258e-001  2.741181e+000  2.200000e+001
      vertex  9.659258e-001  2.741181e+000  1.650000e+001
      vertex  8.660254e-001  2.500000e+000  2.200000e+001
    endloop
  endfacet
  facet normal -9.914449e-001  1.305262e-001  0.000000e+000
    outer loop
      vertex  9.659258e-001  2.741181e+000  2.200000e+001
      vertex  1.000000e+000  3.000000e+000  1.650000e+001
      vertex  9.659258e-001  2.741181e+000  1.650000e+001
    endloop
  endfacet
  facet normal -9.914449e-001  1.305262e-001  0.000000e+000
    outer loop
      vertex  1.000000e+000  3.000000e+000  2.200000e+001
      vertex  1.000000e+000  3.000000e+000  1.650000e+001
      vertex  9.659258e-001  2.741181e+000  2.200000e+001
    endloop
  endfacet
  facet normal -9.914449e-001 -1.305262e-001  0.000000e+000
    outer loop
      vertex  1.000000e+000  3.000000e+000  1.100000e+001
      vertex  9.659258e-001  3.258819e+000  5.500000e+000
      vertex  1.000000e+000  3.000000e+000  5.500000e+000
    endloop
  endfacet
  facet normal -9.914449e-001 -1.305262e-001  -0.000000e+000
    outer loop
      vertex  1.000000e+000  3.000000e+000  1.100000e+001
      vertex  9.659258e-001  3.258819e+000  1.100000e+001
      vertex  9.659258e-001  3.258819e+000  5.500000e+000
    endloop
  endfacet
  facet normal -9.914449e-001 -1.305262e-001  0.000000e+000
    outer loop
      vertex  1.000000e+000  3.000000e+000  1.650000e+001
      vertex  9.659258e-001  3.258819e+000  1.100000e+001
      vertex  1.000000e+000  3.000000e+000  1.100000e+001
    endloop
  endfacet
  facet normal -9.914449e-001 -1.305262e-001  -0.000000e+000
    outer loop
      vertex  1.000000e+000  3.000000e+000  1.650000e+001
      vertex  9.659258e-001  3.258819e+000  1.650000e+001
      vertex  9.659258e-001  3.258819e+000  1.100000e+001
    endloop
  endfacet
  facet normal -9.914449e-001 -1.305262e-001  0.000000e+000
    outer loop
      vertex  1.000000e+000  3.000000e+000  2.200000e+001
      vertex  9.659258e-001  3.258819e+000  1.650000e+001
      vertex  1.000000e+000  3.000000e+000  1.650000e+001
    endloop
  endfacet
  facet normal -7.933534e-001 -6.087613e-001  0.000000e+000
    outer loop
      vertex  8.660254e-001  3.500000e+000  1.100000e+001
      vertex  7.071068e-001  3.707107e+000  5.500000e+000
      vertex  8.660254e-001  3.500000e+000  5.500000e+000
    endloop
  endfacet
  facet normal -7.933534e-001 -6.087613e-001  -0.000000e+000
    outer loop
      vertex  8.660254e-001  3.500000e+000  1.100000e+001
      vertex  7.071068e-001  3.707107e+000  1.100000e+001
      vertex  7.071068e-001  3.707107e+000  5.500000e+000
    endloop
  endfacet
  facet normal -7.933534e-001 -6.087613e-001  0.000000e+000
    outer loop
      vertex  8.660254e-001  3.500000e+000  1.650000e+001
      vertex  7.071068e-001  3.707107e+000  1.100000e+001
      vertex  8.660254e-001  3.500000e+000  1.100000e+001
    endloop
  endfacet
  facet normal -7.933534e-001 -6.087613e-001  -0.000000e+000
    outer loop
      vertex  8.660254e-001  3.500000e+000  1.650000e+001
      vertex  7.071068e-001  3.707107e+000  1.650000e+001
      vertex  7.071068e-001  3.707107e+000  1.100000e+001
    endloop
  endfacet
  facet normal -7.933534e-001 -6.087613e-001  0.000000e+000
    outer loop
      vertex  8.660254e-001  3.500000e+000  2.200000e+001
      vertex  7.071068e-001  3.707107e+000  1.650000e+001
      vertex  8.660254e-001  3.500000e+000  1.650000e+001
    endloop
  endfacet
  facet normal -3.826836e-001 -9.238794e-001  0.000000e+000
    outer loop
      vertex  5.000000e-001  3.866025e+000  1.100000e+001
      vertex  2.588190e-001  3.965926e+000  5.500000e+000
      vertex  5.000000e-001  3.866025e+000  5.500000e+000
    endloop
  endfacet
  facet normal -3.826836e-001 -9.238794e-001  -0.000000e+000
    outer loop
      vertex  5.000000e-001  3.866025e+000  1.100000e+001
      vertex  2.588190e-001  3.965926e+000  1.100000e+001
      vertex  2.588190e-001  3.965926e+000  5.500000e+000
    endloop
  endfacet
  facet normal -3.826836e-001 -9.238794e-001  0.000000e+000
    outer loop
      vertex  5.000000e-001  3.866025e+000  1.650000e+001
      vertex  2.588190e-001  3.965926e+000  1.100000e+001
      vertex  5.000000e-001  3.866025e+000  1.100000e+001
    endloop
  endfacet
  facet normal -3.826836e-001 -9.238794e-001  -0.000000e+000
    outer loop
      vertex  5.000000e-001  3.866025e+000  1.650000e+001
      vertex  2.588190e-001  3.965926e+000  1.650000e+001
      vertex  2.588190e-001  3.965926e+000  1.100000e+001
    endloop
  endfacet
  facet normal -3.826836e-001 -9.238794e-001  0.000000e+000
    outer loop
      vertex  5.000000e-001  3.866025e+000  2.200000e+001
      vertex  2.588190e-001  3.965926e+000  1.650000e+001
      vertex  5.000000e-001  3.866025e+000  1.650000e+001
    endloop
  endfacet
  facet normal  1.305258e-001 -9.914449e-001  0.000000e+000
    outer loop
      vertex  0.000000e+000  4.000000e+000  1.100000e+001
      vertex -2.588190e-001  3.965926e+000  5.500000e+000
      vertex  6.123234e-017  4.000000e+000  5.500000e+000
    endloop
  endfacet
  facet normal  1.305258e-001 -9.914449e-001  0.000000e+000
    outer loop
      vertex  0.000000e+000  4.000000e+000  1.100000e+001
      vertex -2.588190e-001  3.965926e+000  1.100000e+001
      vertex -2.588190e-001  3.965926e+000  5.500000e+000
    endloop
  endfacet
  facet normal  1.305258e-001 -9.914449e-001  0.000000e+000
    outer loop
      vertex  6.123234e-017  4.000000e+000  1.650000e+001
      vertex -2.588190e-001  3.965926e+000  1.100000e+001
      vertex  0.000000e+000  4.000000e+000  1.100000e+001
    endloop
  endfacet
  facet normal  1.305258e-001 -9.914449e-001  0.000000e+000
    outer loop
      vertex  6.123234e-017  4.000000e+000  1.650000e+001
      vertex -2.588190e-001  3.965926e+000  1.650000e+001
      vertex -2.588190e-001  3.965926e+000  1.100000e+001
    endloop
  endfacet
  facet normal  1.305258e-001 -9.914449e-001  0.000000e+000
    outer loop
      vertex  5.551115e-017  4.000000e+000  2.200000e+001
      vertex -2.588190e-001  3.965926e+000  1.650000e+001
      vertex  6.123234e-017  4.000000e+000  1.650000e+001
    endloop
  endfacet
  facet normal  9.238795e-001 -3.826835e-001  0.000000e+000
    outer loop
      vertex -8.660254e-001  3.500000e+000  1.100000e+001
      vertex -9.659258e-001  3.258819e+000  1.100000e+001
      vertex -9.659258e-001  3.258819e+000  5.500000e+000
    endloop
  endfacet
  facet normal  9.238795e-001 -3.826835e-001  0.000000e+000
    outer loop
      vertex -8.660254e-001  3.500000e+000  1.650000e+001
      vertex -9.659258e-001  3.258819e+000  1.100000e+001
      vertex -8.660254e-001  3.500000e+000  1.100000e+001
    endloop
  endfacet
  facet normal  9.238795e-001 -3.826835e-001  0.000000e+000
    outer loop
      vertex -8.660254e-001  3.500000e+000  1.650000e+001
      vertex -9.659258e-001  3.258819e+000  1.650000e+001
      vertex -9.659258e-001  3.258819e+000  1.100000e+001
    endloop
  endfacet
  facet normal  9.238795e-001 -3.826835e-001  0.000000e+000
    outer loop
      vertex -8.660254e-001  3.500000e+000  2.200000e+001
      vertex -9.659258e-001  3.258819e+000  1.650000e+001
      vertex -8.660254e-001  3.500000e+000  1.650000e+001
    endloop
  endfacet
  facet normal  9.914449e-001 -1.305262e-001  0.000000e+000
    outer loop
      vertex -9.659258e-001  3.258819e+000  2.200000e+001
      vertex -1.000000e+000  3.000000e+000  1.650000e+001
      vertex -9.659258e-001  3.258819e+000  1.650000e+001
    endloop
  endfacet
  facet normal  9.914449e-001 -1.305262e-001  0.000000e+000
    outer loop
      vertex -1.000000e+000  3.000000e+000  2.200000e+001
      vertex -1.000000e+000  3.000000e+000  1.650000e+001
      vertex -9.659258e-001  3.258819e+000  2.200000e+001
    endloop
  endfacet
  facet normal  9.914449e-001  1.305262e-001  0.000000e+000
    outer loop
      vertex -1.000000e+000  3.000000e+000  2.200000e+001
      vertex -9.659258e-001  2.741181e+000  1.650000e+001
      vertex -1.000000e+000  3.000000e+000  1.650000e+001
    endloop
  endfacet
  facet normal  9.914449e-001  1.305262e-001  -0.000000e+000
    outer loop
      vertex -9.659258e-001  2.741181e+000  2.200000e+001
      vertex -9.659258e-001  2.741181e+000  1.650000e+001
      vertex -1.000000e+000  3.000000e+000  2.200000e+001
    endloop
  endfacet
  facet normal  6.087614e-001 -7.933533e-001  0.000000e+000
    outer loop
      vertex -7.071068e-001  3.707107e+000  1.100000e+001
      vertex -5.000000e-001  3.866025e+000  1.100000e+001
      vertex -5.000000e-001  3.866025e+000  1.650000e+001
    endloop
  endfacet
  facet normal  6.087614e-001 -7.933533e-001  0.000000e+000
    outer loop
      vertex -7.071068e-001  3.707107e+000  1.100000e+001
      vertex -7.071068e-001  3.707107e+000  5.500000e+000
      vertex -5.000000e-001  3.866025e+000  1.100000e+001
    endloop
  endfacet
  facet normal  7.933534e-001 -6.087613e-001  0.000000e+000
    outer loop
      vertex -8.660254e-001  3.500000e+000  5.500000e+000
      vertex -7.071068e-001  3.707107e+000  5.500000e+000
      vertex -7.071068e-001  3.707107e+000  1.100000e+001
    endloop
  endfacet
  facet normal  7.933534e-001 -6.087613e-001  0.000000e+000
    outer loop
      vertex -8.660254e-001  3.500000e+000  5.500000e+000
      vertex -8.660254e-001  3.500000e+000  0.000000e+000
      vertex -7.071068e-001  3.707107e+000  5.500000e+000
    endloop
  endfacet
  facet normal  9.238795e-001 -3.826835e-001  0.000000e+000
    outer loop
      vertex -9.659258e-001  3.258819e+000  0.000000e+000
      vertex -8.660254e-001  3.500000e+000  0.000000e+000
      vertex -8.660254e-001  3.500000e+000  5.500000e+000
    endloop
  endfacet
  facet normal  3.826836e-001 -9.238794e-001  0.000000e+000
    outer loop
      vertex -5.000000e-001  3.866025e+000  1.100000e+001
      vertex -2.588190e-001  3.965926e+000  1.650000e+001
      vertex -5.000000e-001  3.866025e+000  1.650000e+001
    endloop
  endfacet
  facet normal  3.826836e-001 -9.238794e-001  0.000000e+000
    outer loop
      vertex -5.000000e-001  3.866025e+000  1.100000e+001
      vertex -2.588190e-001  3.965926e+000  1.100000e+001
      vertex -2.588190e-001  3.965926e+000  1.650000e+001
    endloop
  endfacet
  facet normal  3.826836e-001 -9.238794e-001  0.000000e+000
    outer loop
      vertex -5.000000e-001  3.866025e+000  5.500000e+000
      vertex -2.588190e-001  3.965926e+000  1.100000e+001
      vertex -5.000000e-001  3.866025e+000  1.100000e+001
    endloop
  endfacet
  facet normal  3.826836e-001 -9.238794e-001  0.000000e+000
    outer loop
      vertex -5.000000e-001  3.866025e+000  5.500000e+000
      vertex -2.588190e-001  3.965926e+000  5.500000e+000
      vertex -2.588190e-001  3.965926e+000  1.100000e+001
    endloop
  endfacet
  facet normal  3.826836e-001 -9.238794e-001  0.000000e+000
    outer loop
      vertex -5.000000e-001  3.866025e+000  0.000000e+000
      vertex -2.588190e-001  3.965926e+000  5.500000e+000
      vertex -5.000000e-001  3.866025e+000  5.500000e+000
    endloop
  endfacet
  facet normal -1.305258e-001 -9.914449e-001  0.000000e+000
    outer loop
      vertex  0.000000e+000  4.000000e+000  1.100000e+001
      vertex  2.588190e-001  3.965926e+000  1.650000e+001
      vertex  6.123234e-017  4.000000e+000  1.650000e+001
    endloop
  endfacet
  facet normal -1.305258e-001 -9.914449e-001  0.000000e+000
    outer loop
      vertex  0.000000e+000  4.000000e+000  1.100000e+001
      vertex  2.588190e-001  3.965926e+000  1.100000e+001
      vertex  2.588190e-001  3.965926e+000  1.650000e+001
    endloop
  endfacet
  facet normal -1.305258e-001 -9.914449e-001  0.000000e+000
    outer loop
      vertex  6.123234e-017  4.000000e+000  5.500000e+000
      vertex  2.588190e-001  3.965926e+000  1.100000e+001
      vertex  0.000000e+000  4.000000e+000  1.100000e+001
    endloop
  endfacet
  facet normal -1.305258e-001 -9.914449e-001  0.000000e+000
    outer loop
      vertex  6.123234e-017  4.000000e+000  5.500000e+000
      vertex  2.588190e-001  3.965926e+000  5.500000e+000
      vertex  2.588190e-001  3.965926e+000  1.100000e+001
    endloop
  endfacet
  facet normal -1.305258e-001 -9.914449e-001  0.000000e+000
    outer loop
      vertex  5.551115e-017  4.000000e+000  0.000000e+000
      vertex  2.588190e-001  3.965926e+000  5.500000e+000
      vertex  6.123234e-017  4.000000e+000  5.500000e+000
    endloop
  endfacet
  facet normal -6.087614e-001 -7.933533e-001  0.000000e+000
    outer loop
      vertex  5.000000e-001  3.866025e+000  1.100000e+001
      vertex  7.071068e-001  3.707107e+000  1.650000e+001
      vertex  5.000000e-001  3.866025e+000  1.650000e+001
    endloop
  endfacet
  facet normal -6.087614e-001 -7.933533e-001  0.000000e+000
    outer loop
      vertex  5.000000e-001  3.866025e+000  1.100000e+001
      vertex  7.071068e-001  3.707107e+000  1.100000e+001
      vertex  7.071068e-001  3.707107e+000  1.650000e+001
    endloop
  endfacet
  facet normal -6.087614e-001 -7.933533e-001  0.000000e+000
    outer loop
      vertex  5.000000e-001  3.866025e+000  5.500000e+000
      vertex  7.071068e-001  3.707107e+000  1.100000e+001
      vertex  5.000000e-001  3.866025e+000  1.100000e+001
    endloop
  endfacet
  facet normal -6.087614e-001 -7.933533e-001  0.000000e+000
    outer loop
      vertex  5.000000e-001  3.866025e+000  5.500000e+000
      vertex  7.071068e-001  3.707107e+000  5.500000e+000
      vertex  7.071068e-001  3.707107e+000  1.100000e+001
    endloop
  endfacet
  facet normal -6.087614e-001 -7.933533e-001  0.000000e+000
    outer loop
      vertex  5.000000e-001  3.866025e+000  0.000000e+000
      vertex  7.071068e-001  3.707107e+000  5.500000e+000
      vertex  5.000000e-001  3.866025e+000  5.500000e+000
    endloop
  endfacet
  facet normal -9.238795e-001 -3.826835e-001  0.000000e+000
    outer loop
      vertex  8.660254e-001  3.500000e+000  1.100000e+001
      vertex  9.659258e-001  3.258819e+000  1.650000e+001
      vertex  8.660254e-001  3.500000e+000  1.650000e+001
    endloop
  endfacet
  facet normal -9.238795e-001 -3.826835e-001  0.000000e+000
    outer loop
      vertex  8.660254e-001  3.500000e+000  1.100000e+001
      vertex  9.659258e-001  3.258819e+000  1.100000e+001
      vertex  9.659258e-001  3.258819e+000  1.650000e+001
    endloop
  endfacet
  facet normal -9.238795e-001 -3.826835e-001  0.000000e+000
    outer loop
      vertex  8.660254e-001  3.500000e+000  5.500000e+000
      vertex  9.659258e-001  3.258819e+000  1.100000e+001
      vertex  8.660254e-001  3.500000e+000  1.100000e+001
    endloop
  endfacet
  facet normal -9.238795e-001 -3.826835e-001  0.000000e+000
    outer loop
      vertex  8.660254e-001  3.500000e+000  5.500000e+000
      vertex  9.659258e-001  3.258819e+000  5.500000e+000
      vertex  9.659258e-001  3.258819e+000  1.100000e+001
    endloop
  endfacet
  facet normal -9.238795e-001 -3.826835e-001  0.000000e+000
    outer loop
      vertex  8.660254e-001  3.500000e+000  0.000000e+000
      vertex  9.659258e-001  3.258819e+000  5.500000e+000
      vertex  8.660254e-001  3.500000e+000  5.500000e+000
    endloop
  endfacet
  facet normal -9.914449e-001 -1.305262e-001  0.000000e+000
    outer loop
      vertex  9.659258e-001  3.258819e+000  0.000000e+000
      vertex  1.000000e+000  3.000000e+000  5.500000e+000
      vertex  9.659258e-001  3.258819e+000  5.500000e+000
    endloop
  endfacet
  facet normal -9.914449e-001 -1.305262e-001  -0.000000e+000
    outer loop
      vertex  1.000000e+000  3.000000e+000  0.000000e+000
      vertex  1.000000e+000  3.000000e+000  5.500000e+000
      vertex  9.659258e-001  3.258819e+000  0.000000e+000
    endloop
  endfacet
  facet normal -9.914449e-001  1.305262e-001  0.000000e+000
    outer loop
      vertex  1.000000e+000  3.000000e+000  0.000000e+000
      vertex  9.659258e-001  2.741181e+000  5.500000e+000
      vertex  1.000000e+000  3.000000e+000  5.500000e+000
    endloop
  endfacet
  facet normal -9.914449e-001  1.305262e-001  0.000000e+000
    outer loop
      vertex  9.659258e-001  2.741181e+000  0.000000e+000
      vertex  9.659258e-001  2.741181e+000  5.500000e+000
      vertex  1.000000e+000  3.000000e+000  0.000000e+000
    endloop
  endfacet
  facet normal -9.238795e-001  3.826835e-001  0.000000e+000
    outer loop
      vertex  9.659258e-001  2.741181e+000  0.000000e+000
      vertex  8.660254e-001  2.500000e+000  5.500000e+000
      vertex  9.659258e-001  2.741181e+000  5.500000e+000
    endloop
  endfacet
  facet normal -9.238795e-001  3.826835e-001  0.000000e+000
    outer loop
      vertex  8.660254e-001  2.500000e+000  0.000000e+000
      vertex  8.660254e-001  2.500000e+000  5.500000e+000
      vertex  9.659258e-001  2.741181e+000  0.000000e+000
    endloop
  endfacet
  facet normal -7.933534e-001  6.087613e-001  0.000000e+000
    outer loop
      vertex  8.660254e-001  2.500000e+000  0.000000e+000
      vertex  7.071068e-001  2.292893e+000  5.500000e+000
      vertex  8.660254e-001  2.500000e+000  5.500000e+000
    endloop
  endfacet
  facet normal -7.933534e-001  6.087613e-001  0.000000e+000
    outer loop
      vertex  7.071068e-001  2.292893e+000  0.000000e+000
      vertex  7.071068e-001  2.292893e+000  5.500000e+000
      vertex  8.660254e-001  2.500000e+000  0.000000e+000
    endloop
  endfacet
  facet normal -6.087614e-001  7.933533e-001  0.000000e+000
    outer loop
      vertex  7.071068e-001  2.292893e+000  0.000000e+000
      vertex  5.000000e-001  2.133975e+000  5.500000e+000
      vertex  7.071068e-001  2.292893e+000  5.500000e+000
    endloop
  endfacet
  facet normal -6.087614e-001  7.933533e-001  0.000000e+000
    outer loop
      vertex  5.000000e-001  2.133975e+000  0.000000e+000
      vertex  5.000000e-001  2.133975e+000  5.500000e+000
      vertex  7.071068e-001  2.292893e+000  0.000000e+000
    endloop
  endfacet
  facet normal -3.826829e-001  9.238798e-001  0.000000e+000
    outer loop
      vertex  5.000000e-001  2.133975e+000  0.000000e+000
      vertex  2.588190e-001  2.034074e+000  5.500000e+000
      vertex  5.000000e-001  2.133975e+000  5.500000e+000
    endloop
  endfacet
  facet normal -3.826829e-001  9.238798e-001  0.000000e+000
    outer loop
      vertex  2.588190e-001  2.034074e+000  4.440892e-016
      vertex  2.588190e-001  2.034074e+000  5.500000e+000
      vertex  5.000000e-001  2.133975e+000  0.000000e+000
    endloop
  endfacet
  facet normal -1.305267e-001  9.914448e-001  0.000000e+000
    outer loop
      vertex  2.588190e-001  2.034074e+000  4.440892e-016
      vertex  1.665335e-016  2.000000e+000  5.500000e+000
      vertex  2.588190e-001  2.034074e+000  5.500000e+000
    endloop
  endfacet
  facet normal -1.305267e-001  9.914448e-001  3.952193e-018
    outer loop
      vertex  0.000000e+000  2.000000e+000  4.440892e-016
      vertex  1.665335e-016  2.000000e+000  5.500000e+000
      vertex  2.588190e-001  2.034074e+000  4.440892e-016
    endloop
  endfacet
  facet normal  1.305267e-001  9.914448e-001  0.000000e+000
    outer loop
      vertex  0.000000e+000  2.000000e+000  4.440892e-016
      vertex -2.588190e-001  2.034074e+000  5.500000e+000
      vertex  1.665335e-016  2.000000e+000  5.500000e+000
    endloop
  endfacet
  facet normal  1.305267e-001  9.914448e-001  0.000000e+000
    outer loop
      vertex -2.588190e-001  2.034074e+000  0.000000e+000
      vertex -2.588190e-001  2.034074e+000  5.500000e+000
      vertex  0.000000e+000  2.000000e+000  4.440892e-016
    endloop
  endfacet
  facet normal  3.826829e-001  9.238798e-001  0.000000e+000
    outer loop
      vertex -2.588190e-001  2.034074e+000  0.000000e+000
      vertex -5.000000e-001  2.133975e+000  5.500000e+000
      vertex -2.588190e-001  2.034074e+000  5.500000e+000
    endloop
  endfacet
  facet normal  3.826829e-001  9.238798e-001  0.000000e+000
    outer loop
      vertex -5.000000e-001  2.133975e+000  0.000000e+000
      vertex -5.000000e-001  2.133975e+000  5.500000e+000
      vertex -2.588190e-001  2.034074e+000  0.000000e+000
    endloop
  endfacet
  facet normal  6.087614e-001  7.933533e-001  0.000000e+000
    outer loop
      vertex -5.000000e-001  2.133975e+000  0.000000e+000
      vertex -7.071068e-001  2.292893e+000  5.500000e+000
      vertex -5.000000e-001  2.133975e+000  5.500000e+000
    endloop
  endfacet
  facet normal  6.087614e-001  7.933533e-001  0.000000e+000
    outer loop
      vertex -7.071068e-001  2.292893e+000  0.000000e+000
      vertex -7.071068e-001  2.292893e+000  5.500000e+000
      vertex -5.000000e-001  2.133975e+000  0.000000e+000
    endloop
  endfacet
  facet normal  7.933534e-001  6.087613e-001  0.000000e+000
    outer loop
      vertex -7.071068e-001  2.292893e+000  0.000000e+000
      vertex -8.660254e-001  2.500000e+000  5.500000e+000
      vertex -7.071068e-001  2.292893e+000  5.500000e+000
    endloop
  endfacet
  facet normal  7.933534e-001  6.087613e-001  0.000000e+000
    outer loop
      vertex -8.660254e-001  2.500000e+000  0.000000e+000
      vertex -8.660254e-001  2.500000e+000  5.500000e+000
      vertex -7.071068e-001  2.292893e+000  0.000000e+000
    endloop
  endfacet
  facet normal  9.238795e-001  3.826835e-001  0.000000e+000
    outer loop
      vertex -8.660254e-001  2.500000e+000  1.650000e+001
      vertex -9.659258e-001  2.741181e+000  2.200000e+001
      vertex -8.660254e-001  2.500000e+000  2.200000e+001
    endloop
  endfacet
  facet normal  9.238795e-001  3.826835e-001  -0.000000e+000
    outer loop
      vertex -8.660254e-001  2.500000e+000  1.650000e+001
      vertex -9.659258e-001  2.741181e+000  1.650000e+001
      vertex -9.659258e-001  2.741181e+000  2.200000e+001
    endloop
  endfacet
  facet normal  9.238795e-001  3.826835e-001  0.000000e+000
    outer loop
      vertex -8.660254e-001  2.500000e+000  1.100000e+001
      vertex -9.659258e-001  2.741181e+000  1.650000e+001
      vertex -8.660254e-001  2.500000e+000  1.650000e+001
    endloop
  endfacet
  facet normal  9.238795e-001  3.826835e-001  -0.000000e+000
    outer loop
      vertex -8.660254e-001  2.500000e+000  1.100000e+001
      vertex -9.659258e-001  2.741181e+000  1.100000e+001
      vertex -9.659258e-001  2.741181e+000  1.650000e+001
    endloop
  endfacet
  facet normal  9.238795e-001  3.826835e-001  0.000000e+000
    outer loop
      vertex -8.660254e-001  2.500000e+000  5.500000e+000
      vertex -9.659258e-001  2.741181e+000  1.100000e+001
      vertex -8.660254e-001  2.500000e+000  1.100000e+001
    endloop
  endfacet
  facet normal  9.238795e-001  3.826835e-001  -0.000000e+000
    outer loop
      vertex -8.660254e-001  2.500000e+000  5.500000e+000
      vertex -9.659258e-001  2.741181e+000  5.500000e+000
      vertex -9.659258e-001  2.741181e+000  1.100000e+001
    endloop
  endfacet
  facet normal  9.238795e-001  3.826835e-001  0.000000e+000
    outer loop
      vertex -8.660254e-001  2.500000e+000  0.000000e+000
      vertex -9.659258e-001  2.741181e+000  5.500000e+000
      vertex -8.660254e-001  2.500000e+000  5.500000e+000
    endloop
  endfacet
  facet normal  3.826836e-001 -9.238794e-001  0.000000e+000
    outer loop
      vertex -5.000000e-001  3.866025e+000  2.200000e+001
      vertex -5.000000e-001  3.866025e+000  1.650000e+001
      vertex -2.588190e-001  3.965926e+000  2.200000e+001
    endloop
  endfacet
  facet normal  6.087614e-001 -7.933533e-001  0.000000e+000
    outer loop
      vertex -7.071068e-001  3.707107e+000  1.650000e+001
      vertex -5.000000e-001  3.866025e+000  1.650000e+001
      vertex -5.000000e-001  3.866025e+000  2.200000e+001
    endloop
  endfacet
  facet normal  6.087614e-001 -7.933533e-001  0.000000e+000
    outer loop
      vertex -7.071068e-001  3.707107e+000  1.650000e+001
      vertex -7.071068e-001  3.707107e+000  1.100000e+001
      vertex -5.000000e-001  3.866025e+000  1.650000e+001
    endloop
  endfacet
  facet normal  7.933534e-001 -6.087613e-001  0.000000e+000
    outer loop
      vertex -8.660254e-001  3.500000e+000  1.100000e+001
      vertex -7.071068e-001  3.707107e+000  1.100000e+001
      vertex -7.071068e-001  3.707107e+000  1.650000e+001
    endloop
  endfacet
  facet normal  7.933534e-001 -6.087613e-001  0.000000e+000
    outer loop
      vertex -8.660254e-001  3.500000e+000  1.100000e+001
      vertex -8.660254e-001  3.500000e+000  5.500000e+000
      vertex -7.071068e-001  3.707107e+000  1.100000e+001
    endloop
  endfacet
  facet normal  9.238795e-001 -3.826835e-001  0.000000e+000
    outer loop
      vertex -9.659258e-001  3.258819e+000  5.500000e+000
      vertex -8.660254e-001  3.500000e+000  5.500000e+000
      vertex -8.660254e-001  3.500000e+000  1.100000e+001
    endloop
  endfacet
  facet normal  9.238795e-001 -3.826835e-001  0.000000e+000
    outer loop
      vertex -9.659258e-001  3.258819e+000  5.500000e+000
      vertex -9.659258e-001  3.258819e+000  0.000000e+000
      vertex -8.660254e-001  3.500000e+000  5.500000e+000
    endloop
  endfacet
  facet normal  9.914449e-001 -1.305262e-001  0.000000e+000
    outer loop
      vertex -1.000000e+000  3.000000e+000  0.000000e+000
      vertex -9.659258e-001  3.258819e+000  0.000000e+000
      vertex -9.659258e-001  3.258819e+000  5.500000e+000
    endloop
  endfacet
  facet normal -1.268826e-017 -1.000000e+000  -0.000000e+000
    outer loop
      vertex  3.500000e+001 -5.329071e-015  0.000000e+000
      vertex -3.500000e+001 -4.440892e-015  2.200000e+001
      vertex -3.500000e+001 -4.440892e-015  0.000000e+000
    endloop
  endfacet
  facet normal -1.141944e-016 -1.000000e+000 -3.229740e-016
    outer loop
      vertex  3.500000e+001 -1.243450e-014  2.200000e+001
      vertex -3.500000e+001 -4.440892e-015  2.200000e+001
      vertex  3.500000e+001 -5.329071e-015  0.000000e+000
    endloop
  endfacet
  facet normal  0.000000e+000  0.000000e+000 -1.000000e+000
    outer loop
      vertex -5.000000e+000  5.000000e+000  2.100000e+001
      vertex -3.290000e+001  1.500000e+000  2.100000e+001
      vertex -2.500000e-001  2.482143e+001  2.100000e+001
    endloop
  endfacet
  facet normal -9.724668e-001  2.330416e-001  0.000000e+000
    outer loop
      vertex -5.000000e+000  5.000000e+000  1.000000e+000
      vertex -2.500000e-001  2.482143e+001  2.100000e+001
      vertex -2.500000e-001  2.482143e+001  1.000000e+000
    endloop
  endfacet
  facet normal -9.724668e-001  2.330416e-001  0.000000e+000
    outer loop
      vertex -5.000000e+000  5.000000e+000  2.100000e+001
      vertex -2.500000e-001  2.482143e+001  2.100000e+001
      vertex -5.000000e+000  5.000000e+000  1.000000e+000
    endloop
  endfacet
  facet normal -1.244724e-001  9.922231e-001  0.000000e+000
    outer loop
      vertex -3.290000e+001  1.500000e+000  1.000000e+000
      vertex -5.000000e+000  5.000000e+000  2.100000e+001
      vertex -5.000000e+000  5.000000e+000  1.000000e+000
    endloop
  endfacet
  facet normal  0.000000e+000  -0.000000e+000  1.000000e+000
    outer loop
      vertex -3.290000e+001  1.500000e+000  1.000000e+000
      vertex -5.000000e+000  5.000000e+000  1.000000e+000
      vertex -2.500000e-001  2.482143e+001  1.000000e+000
    endloop
  endfacet
  facet normal  5.812382e-001  8.137335e-001  8.868991e-007
    outer loop
      vertex  3.500000e+001 -1.243450e-014  2.200000e+001
      vertex  3.290000e+001  1.500000e+000  2.100000e+001
      vertex  4.440892e-015  2.500000e+001  2.200000e+001
    endloop
  endfacet
  facet normal  0.000000e+000  0.000000e+000 -1.000000e+000
    outer loop
      vertex  3.290000e+001  1.500000e+000  2.100000e+001
      vertex  5.000000e+000  5.000000e+000  2.100000e+001
      vertex  2.500000e-001  2.482143e+001  2.100000e+001
    endloop
  endfacet
  facet normal  9.724668e-001  2.330416e-001  0.000000e+000
    outer loop
      vertex  2.500000e-001  2.482143e+001  1.000000e+000
      vertex  5.000000e+000  5.000000e+000  2.100000e+001
      vertex  5.000000e+000  5.000000e+000  1.000000e+000
    endloop
  endfacet
  facet normal  9.724668e-001  2.330416e-001  0.000000e+000
    outer loop
      vertex  2.500000e-001  2.482143e+001  2.100000e+001
      vertex  5.000000e+000  5.000000e+000  2.100000e+001
      vertex  2.500000e-001  2.482143e+001  1.000000e+000
    endloop
  endfacet
  facet normal  0.000000e+000  0.000000e+000  1.000000e+000
    outer loop
      vertex  5.000000e+000  5.000000e+000  1.000000e+000
      vertex  3.290000e+001  1.500000e+000  1.000000e+000
      vertex  2.500000e-001  2.482143e+001  1.000000e+000
    endloop
  endfacet
  facet normal  7.933534e-001 -6.087613e-001  0.000000e+000
    outer loop
      vertex -8.660254e-001  3.500000e+000  1.100000e+001
      vertex -7.071068e-001  3.707107e+000  1.650000e+001
      vertex -8.660254e-001  3.500000e+000  1.650000e+001
    endloop
  endfacet
  facet normal  6.087614e-001 -7.933533e-001  0.000000e+000
    outer loop
      vertex -5.000000e-001  3.866025e+000  5.500000e+000
      vertex -5.000000e-001  3.866025e+000  1.100000e+001
      vertex -7.071068e-001  3.707107e+000  5.500000e+000
    endloop
  endfacet
  facet normal -9.914449e-001 -1.305262e-001  0.000000e+000
    outer loop
      vertex  9.659258e-001  3.258819e+000  2.200000e+001
      vertex  9.659258e-001  3.258819e+000  1.650000e+001
      vertex  1.000000e+000  3.000000e+000  2.200000e+001
    endloop
  endfacet
  facet normal -9.238795e-001 -3.826835e-001  0.000000e+000
    outer loop
      vertex  9.659258e-001  3.258819e+000  2.200000e+001
      vertex  8.660254e-001  3.500000e+000  1.650000e+001
      vertex  9.659258e-001  3.258819e+000  1.650000e+001
    endloop
  endfacet
  facet normal -9.238795e-001 -3.826835e-001  0.000000e+000
    outer loop
      vertex  8.660254e-001  3.500000e+000  2.200000e+001
      vertex  8.660254e-001  3.500000e+000  1.650000e+001
      vertex  9.659258e-001  3.258819e+000  2.200000e+001
    endloop
  endfacet
  facet normal -7.933534e-001 -6.087613e-001  0.000000e+000
    outer loop
      vertex  7.071068e-001  3.707107e+000  2.200000e+001
      vertex  7.071068e-001  3.707107e+000  1.650000e+001
      vertex  8.660254e-001  3.500000e+000  2.200000e+001
    endloop
  endfacet
  facet normal -6.087614e-001 -7.933533e-001  0.000000e+000
    outer loop
      vertex  7.071068e-001  3.707107e+000  2.200000e+001
      vertex  5.000000e-001  3.866025e+000  1.650000e+001
      vertex  7.071068e-001  3.707107e+000  1.650000e+001
    endloop
  endfacet
  facet normal -6.087614e-001 -7.933533e-001  0.000000e+000
    outer loop
      vertex  5.000000e-001  3.866025e+000  2.200000e+001
      vertex  5.000000e-001  3.866025e+000  1.650000e+001
      vertex  7.071068e-001  3.707107e+000  2.200000e+001
    endloop
  endfacet
  facet normal -3.826836e-001 -9.238794e-001  0.000000e+000
    outer loop
      vertex  2.588190e-001  3.965926e+000  2.200000e+001
      vertex  2.588190e-001  3.965926e+000  1.650000e+001
      vertex  5.000000e-001  3.866025e+000  2.200000e+001
    endloop
  endfacet
  facet normal -1.305258e-001 -9.914449e-001  0.000000e+000
    outer loop
      vertex  2.588190e-001  3.965926e+000  2.200000e+001
      vertex  6.123234e-017  4.000000e+000  1.650000e+001
      vertex  2.588190e-001  3.965926e+000  1.650000e+001
    endloop
  endfacet
  facet normal -1.305258e-001 -9.914449e-001 -1.357751e-019
    outer loop
      vertex  5.551115e-017  4.000000e+000  2.200000e+001
      vertex  6.123234e-017  4.000000e+000  1.650000e+001
      vertex  2.588190e-001  3.965926e+000  2.200000e+001
    endloop
  endfacet
  facet normal  1.305258e-001 -9.914449e-001  0.000000e+000
    outer loop
      vertex -2.588190e-001  3.965926e+000  2.200000e+001
      vertex -2.588190e-001  3.965926e+000  1.650000e+001
      vertex  5.551115e-017  4.000000e+000  2.200000e+001
    endloop
  endfacet
  facet normal  3.826836e-001 -9.238794e-001  0.000000e+000
    outer loop
      vertex -2.588190e-001  3.965926e+000  2.200000e+001
      vertex -5.000000e-001  3.866025e+000  1.650000e+001
      vertex -2.588190e-001  3.965926e+000  1.650000e+001
    endloop
  endfacet
  facet normal  6.087614e-001 -7.933533e-001  0.000000e+000
    outer loop
      vertex -7.071068e-001  3.707107e+000  2.200000e+001
      vertex -7.071068e-001  3.707107e+000  1.650000e+001
      vertex -5.000000e-001  3.866025e+000  2.200000e+001
    endloop
  endfacet
  facet normal  7.933534e-001 -6.087613e-001  0.000000e+000
    outer loop
      vertex -7.071068e-001  3.707107e+000  2.200000e+001
      vertex -8.660254e-001  3.500000e+000  1.650000e+001
      vertex -7.071068e-001  3.707107e+000  1.650000e+001
    endloop
  endfacet
  facet normal  7.933534e-001 -6.087613e-001  0.000000e+000
    outer loop
      vertex -8.660254e-001  3.500000e+000  2.200000e+001
      vertex -8.660254e-001  3.500000e+000  1.650000e+001
      vertex -7.071068e-001  3.707107e+000  2.200000e+001
    endloop
  endfacet
  facet normal  9.238795e-001 -3.826835e-001  0.000000e+000
    outer loop
      vertex -9.659258e-001  3.258819e+000  2.200000e+001
      vertex -9.659258e-001  3.258819e+000  1.650000e+001
      vertex -8.660254e-001  3.500000e+000  2.200000e+001
    endloop
  endfacet
  facet normal  7.933534e-001 -6.087613e-001  0.000000e+000
    outer loop
      vertex -7.071068e-001  3.707107e+000  0.000000e+000
      vertex -7.071068e-001  3.707107e+000  5.500000e+000
      vertex -8.660254e-001  3.500000e+000  0.000000e+000
    endloop
  endfacet
  facet normal  6.087614e-001 -7.933533e-001  0.000000e+000
    outer loop
      vertex -7.071068e-001  3.707107e+000  0.000000e+000
      vertex -5.000000e-001  3.866025e+000  5.500000e+000
      vertex -7.071068e-001  3.707107e+000  5.500000e+000
    endloop
  endfacet
  facet normal  6.087614e-001 -7.933533e-001  0.000000e+000
    outer loop
      vertex -5.000000e-001  3.866025e+000  0.000000e+000
      vertex -5.000000e-001  3.866025e+000  5.500000e+000
      vertex -7.071068e-001  3.707107e+000  0.000000e+000
    endloop
  endfacet
  facet normal  3.826836e-001 -9.238794e-001  0.000000e+000
    outer loop
      vertex -2.588190e-001  3.965926e+000  0.000000e+000
      vertex -2.588190e-001  3.965926e+000  5.500000e+000
      vertex -5.000000e-001  3.866025e+000  0.000000e+000
    endloop
  endfacet
  facet normal  1.305258e-001 -9.914449e-001  0.000000e+000
    outer loop
      vertex -2.588190e-001  3.965926e+000  0.000000e+000
      vertex  6.123234e-017  4.000000e+000  5.500000e+000
      vertex -2.588190e-001  3.965926e+000  5.500000e+000
    endloop
  endfacet
  facet normal  1.305258e-001 -9.914449e-001 -1.357751e-019
    outer loop
      vertex  5.551115e-017  4.000000e+000  0.000000e+000
      vertex  6.123234e-017  4.000000e+000  5.500000e+000
      vertex -2.588190e-001  3.965926e+000  0.000000e+000
    endloop
  endfacet
  facet normal -1.305258e-001 -9.914449e-001  -0.000000e+000
    outer loop
      vertex  2.588190e-001  3.965926e+000  0.000000e+000
      vertex  2.588190e-001  3.965926e+000  5.500000e+000
      vertex  5.551115e-017  4.000000e+000  0.000000e+000
    endloop
  endfacet
  facet normal -3.826836e-001 -9.238794e-001  0.000000e+000
    outer loop
      vertex  2.588190e-001  3.965926e+000  0.000000e+000
      vertex  5.000000e-001  3.866025e+000  5.500000e+000
      vertex  2.588190e-001  3.965926e+000  5.500000e+000
    endloop
  endfacet
  facet normal -3.826836e-001 -9.238794e-001  -0.000000e+000
    outer loop
      vertex  5.000000e-001  3.866025e+000  0.000000e+000
      vertex  5.000000e-001  3.866025e+000  5.500000e+000
      vertex  2.588190e-001  3.965926e+000  0.000000e+000
    endloop
  endfacet
  facet normal -6.087614e-001 -7.933533e-001  -0.000000e+000
    outer loop
      vertex  7.071068e-001  3.707107e+000  0.000000e+000
      vertex  7.071068e-001  3.707107e+000  5.500000e+000
      vertex  5.000000e-001  3.866025e+000  0.000000e+000
    endloop
  endfacet
  facet normal -7.933534e-001 -6.087613e-001  0.000000e+000
    outer loop
      vertex  7.071068e-001  3.707107e+000  0.000000e+000
      vertex  8.660254e-001  3.500000e+000  5.500000e+000
      vertex  7.071068e-001  3.707107e+000  5.500000e+000
    endloop
  endfacet
  facet normal -7.933534e-001 -6.087613e-001  -0.000000e+000
    outer loop
      vertex  8.660254e-001  3.500000e+000  0.000000e+000
      vertex  8.660254e-001  3.500000e+000  5.500000e+000
      vertex  7.071068e-001  3.707107e+000  0.000000e+000
    endloop
  endfacet
  facet normal -9.238795e-001 -3.826835e-001  -0.000000e+000
    outer loop
      vertex  9.659258e-001  3.258819e+000  0.000000e+000
      vertex  9.659258e-001  3.258819e+000  5.500000e+000
      vertex  8.660254e-001  3.500000e+000  0.000000e+000
    endloop
  endfacet
  facet normal  9.238795e-001  3.826835e-001  0.000000e+000
    outer loop
      vertex -9.659258e-001  2.741181e+000  0.000000e+000
      vertex -9.659258e-001  2.741181e+000  5.500000e+000
      vertex -8.660254e-001  2.500000e+000  0.000000e+000
    endloop
  endfacet
  facet normal  9.914449e-001  1.305262e-001  0.000000e+000
    outer loop
      vertex -9.659258e-001  2.741181e+000  0.000000e+000
      vertex -1.000000e+000  3.000000e+000  5.500000e+000
      vertex -9.659258e-001  2.741181e+000  5.500000e+000
    endloop
  endfacet
  facet normal  9.914449e-001  1.305262e-001  0.000000e+000
    outer loop
      vertex -1.000000e+000  3.000000e+000  0.000000e+000
      vertex -1.000000e+000  3.000000e+000  5.500000e+000
      vertex -9.659258e-001  2.741181e+000  0.000000e+000
    endloop
  endfacet
  facet normal  9.914449e-001 -1.305262e-001  0.000000e+000
    outer loop
      vertex -1.000000e+000  3.000000e+000  0.000000e+000
      vertex -9.659258e-001  3.258819e+000  5.500000e+000
      vertex -1.000000e+000  3.000000e+000  5.500000e+000
    endloop
  endfacet
endsolid CATIA STL
