; NON-PLATED HOLES START AT T1
; THROUGH (PLATED) HOLES START AT T100
M48
INCH
T1C0.125984
T100C0.015748
T101C0.031250
T102C0.035433
T103C0.035000
T104C0.027559
T105C0.031497
T106C0.042000
T107C0.037000
T108C0.039111
T109C0.100000
T110C0.040000
%
T1
X034944Y002035
X002444Y002035
X002444Y031535
X034944Y031535
T100
X019483Y013882
X031531Y013331
X020940Y007244
X011806Y005693
X014365Y010102
X011294Y010653
X020743Y010338
X015231Y010102
X022380Y007484
X028020Y014564
X027436Y006559
X018145Y013803
X024180Y013964
X022239Y013488
X014523Y011047
X014129Y016244
X020586Y014275
X013657Y010890
X020428Y008055
X023657Y011283
X014208Y023960
X022948Y013409
X015074Y015220
T101
X017042Y030133
X017042Y026133
X017042Y029133
X017042Y027133
X017042Y025134
X017042Y028134
T102
X024653Y012147
X029657Y022149
X028657Y022149
X022657Y022149
X019653Y012147
X016661Y022149
X020657Y022149
X025653Y012147
X021653Y012147
X025657Y022149
X017657Y022149
X030653Y012147
X032653Y012147
X021657Y022149
X019657Y022149
X027653Y012147
X022653Y012147
X026657Y022149
X018657Y022149
X015658Y012147
X032657Y022149
X020653Y012147
X017653Y012147
X014663Y022149
X030657Y022149
X027657Y022149
X026653Y012147
X031653Y012147
X028653Y012147
X016657Y012147
X024657Y022149
X023653Y012147
X015662Y022149
X031657Y022149
X029653Y012147
X018653Y012147
X014660Y012147
X023657Y022149
T103
X020113Y007189
X030664Y017346
X004444Y012035
X016491Y009315
X005944Y006535
X035861Y011992
X025940Y020260
X007444Y021035
X008444Y009035
X034090Y014551
X007444Y014535
X019491Y009315
X010822Y026323
X004444Y009035
X008444Y012035
X007444Y018535
X013444Y005035
X016491Y010315
X019944Y005035
X009444Y021035
X028066Y018764
X028239Y015772
X019491Y010315
X024066Y018764
X010822Y024323
X013444Y009035
X021940Y020260
X006444Y004035
X015944Y005035
X032239Y015772
X010444Y004035
X004444Y014535
X009944Y006535
X004444Y018535
X035861Y014551
X005444Y022035
X034090Y011992
X005444Y026035
X016113Y007189
X026664Y017346
T104
X005944Y010535
X006944Y010535
X005944Y016035
X005944Y017035
T105
X034444Y021051
X034444Y020051
X034444Y017067
X001928Y016035
X034444Y018051
X000944Y016035
X034444Y019067
X034444Y022035
T106
X009464Y032035
X005444Y027535
X012444Y015035
X017944Y002535
X009798Y015075
X018944Y002535
X004944Y032035
X007924Y032035
X012444Y032035
X012444Y018015
X008424Y027535
X009798Y018055
X016944Y002535
T107
X010344Y029551
X008307Y029551
X007289Y029551
X011363Y029551
X009326Y029551
T108
X023424Y010035
X025432Y010028
X024428Y010028
X026444Y010035
X027441Y010035
X025432Y001518
X023416Y001518
X028445Y010035
X024420Y001518
X026436Y001518
X022412Y001518
X027439Y001520
T109
X003444Y028535
X002244Y019635
X001044Y028535
X002244Y026635
X003444Y021535
X001044Y021535
T110
X013814Y026575
X010566Y002535
X002444Y010657
X002444Y012035
X007322Y002535
X005944Y002535
X011944Y002535
X013322Y002535
X013814Y030575
T00
M30
